<?xml version="1.0" encoding="utf-8"?>
<!-- Generator: Adobe Illustrator 19.2.0, SVG Export Plug-In . SVG Version: 6.00 Build 0)  -->
<svg version="1.1" id="图层_1" xmlns="http://www.w3.org/2000/svg" xmlns:xlink="http://www.w3.org/1999/xlink" x="0px" y="0px"
	 viewBox="0 0 27.5 28.7" style="enable-background:new 0 0 27.5 28.7;" xml:space="preserve">
<style type="text/css">
	.st0{fill:#FFFFFF;}
	.st1{fill:#12A8E7;}
	.st2{fill:#12A8E7;stroke:#FFFFFF;stroke-width:0.5;stroke-miterlimit:10;}
</style>
<title>logo_w</title>
<rect y="23.5" class="st0" width="23.5" height="5.2"/>
<path class="st1" d="M2.8,27.5v-0.5C2,27.3,1.2,26.8,1,26c0-0.1,0-0.1,0-0.2h1.8v-0.5H0.9c0.2-0.8,1-1.3,1.8-1.1l0,0v-0.5H2.4
	c-1-0.1-1.9,0.7-2,1.8c0,0.1,0,0.1,0,0.2c0,1.1,0.9,2,2,2C2.6,27.6,2.7,27.5,2.8,27.5"/>
<path class="st1" d="M5.5,26.8c-0.2,0.2-0.4,0.3-0.6,0.4c-0.5,0-0.9-0.4-0.9-0.9c0,0,0-0.1,0-0.1c0-0.4,0.4-0.8,0.8-0.8l0,0
	c0.4,0,0.8,0.2,0.9,0.6v1.6h0.6V26c0-0.7-0.6-1.1-1.3-1.1c0,0,0,0,0,0l0,0c-0.7,0-1.3,0.5-1.4,1.3c0,0,0,0.1,0,0.1
	c0,0.7,0.5,1.3,1.3,1.4c0,0,0,0,0,0h0c0.2,0,0.5-0.1,0.7-0.2L5.5,26.8L5.5,26.8z"/>
<path class="st1" d="M8.8,24.9H7.6c-0.4,0-0.8,0.3-0.8,0.7l0,0c0,0.7,0.9,0.8,1.5,1c0.3,0.1,0.4,0.5-0.1,0.5H6.8v0.4h1.4
	c0.4,0,0.7-0.2,0.8-0.6v0c0-0.6-0.6-0.7-1.2-0.9s-0.5-0.5-0.2-0.6h1.3L8.8,24.9L8.8,24.9L8.8,24.9z"/>
<path class="st1" d="M9.7,24.9h0.5v1.6c0.1,0.3,0.4,0.6,0.7,0.5c0.3,0,0.5-0.3,0.5-0.6l0,0v-1.5h0.5v1.6c0,0.5-0.3,1-0.8,1.1v1.1
	h-0.5v-1.1c-0.5-0.1-0.9-0.5-0.9-1L9.7,24.9"/>
<path class="st1" d="M13.6,23.7c-0.5,0-0.9,0.4-0.9,0.9l0,0l0,0v3h0.5v-2.2H14v-0.5h-0.8v-0.3c0-0.2,0.2-0.4,0.4-0.4H14v-0.5
	L13.6,23.7L13.6,23.7z"/>
<path class="st1" d="M16.4,26.8c-0.2,0.2-0.4,0.3-0.6,0.4c-0.5,0-0.9-0.4-0.9-0.9c0,0,0-0.1,0-0.1c0-0.4,0.4-0.8,0.8-0.8h0.1
	c0.4,0,0.8,0.3,0.8,0.7v1.6h0.5V26c0-0.7-0.6-1.1-1.3-1.1c0,0,0,0,0,0l0,0c-0.7,0-1.3,0.5-1.4,1.2c0,0,0,0,0,0.1
	c0,0.7,0.5,1.3,1.3,1.4c0,0,0,0,0,0h0c0.2,0,0.5-0.1,0.7-0.2L16.4,26.8L16.4,26.8z"/>
<path class="st1" d="M19.6,24.9h-0.5c-0.7,0.1-1.2,0.7-1.1,1.5c0.1,0.6,0.5,1.1,1.1,1.1h0.5v-0.4h-0.5c-0.4,0-0.8-0.4-0.7-0.9l0,0
	c0-0.4,0.4-0.8,0.8-0.8h0.5L19.6,24.9z"/>
<path class="st1" d="M20.9,26.3l0.2,0.4l1.8-1c-0.2-0.5-0.7-0.8-1.2-0.8c-0.7,0-1.4,0.5-1.4,1.3c0,0.1,0,0.1,0,0.2
	c0,0.8,0.7,1.3,1.5,1.3c0.7,0,1.2-0.6,1.3-1.2l-0.5-0.1c-0.1,0.5-0.5,0.8-1,0.8s-0.8-0.5-0.8-1c0.1-0.4,0.4-0.7,0.8-0.8
	c0.2,0,0.5,0.1,0.7,0.2L20.9,26.3z"/>
<path class="st0" d="M10.2,12.2L10.2,12.2c-0.1-0.1-0.1-0.1-0.1-0.1c0,0,0,0,0,0l0,0c0.1,0,0.1,0,0-0.1c-0.1-0.1-0.3-0.1-0.4-0.1
	H9.6H9.4H9.4c0,0-0.1,0-0.1-0.1H9.2H9.1l0,0H8.3c-0.1,0-0.2,0-0.3,0H7c0-0.1,0-0.1,0-0.2c0,0,0-0.1,0-0.1v-0.2c0,0,0-0.1,0-0.1
	c0,0,0-0.1,0-0.1l0,0v-0.2c0,0,0-0.1,0-0.1c0,0,0-0.1,0-0.1c0,0,0.1-0.1,0.1-0.1V9.9c0,0,0-0.1,0-0.1c0-0.1,0-0.1,0-0.2V9.4
	c0,0,0-0.1,0-0.1c0-0.1-0.2-0.1-0.2-0.1L6.7,9.2c0,0-0.1,0-0.1,0.1L6.4,9.4L6.1,9.6H6.1c0,0,0,0.1,0,0.1L6,9.7
	c-0.1,0-0.1,0.1-0.2,0.1l0,0l0,0c0,0,0-0.1,0-0.1c0,0,0-0.1,0-0.1c0.1,0,0.1-0.1,0.1-0.2c0-0.1,0.1-0.2,0.1-0.2C6,9.1,6,9.1,6,9
	C6,8.8,6,8.8,6,8.8s0-0.2,0-0.3s0.1-0.2,0.1-0.2C6.2,8.3,6.2,8.1,6.2,8c0-0.1,0-0.1,0-0.2c0-0.1,0-0.2,0-0.3c0-0.1-0.1-0.2-0.1-0.2
	c0,0,0,0,0-0.1H5.8c0,0-0.1,0.1-0.1,0.1c0,0,0,0.1,0,0.1L5.6,7.4v0.1c0,0-0.1,0-0.1,0.1c0,0,0,0.1,0,0.1c-0.1,0.1,0,0.1,0,0.1
	c0,0,0,0.1,0,0.1c0,0.1,0,0.2,0,0.2H5.4v0.2L5.3,8.3c0,0,0,0.1,0,0.1c-0.1,0.1,0,0.1,0,0.1c0,0,0,0.1,0,0.1c0,0,0,0.1,0,0.1
	C5.2,8.7,5.2,8.8,5.1,8.9c0,0.1,0,0.1-0.1,0.1c0,0,0,0.1,0,0.1l0,0l0,0c0,0,0,0.1-0.1,0.1c0,0,0,0.1,0,0.1l0,0c0,0.1,0,0.2-0.1,0.2
	l0,0v0.2l0,0v0.1c-0.1,0.2-0.1,0.3-0.2,0.4v0.1H4.2v0.1H4.1c0,0,0,0.1,0,0.1H4c-0.1,0,0,0,0,0v0.2H3.9c0,0,0,0.1,0,0.1L3.8,11l0,0
	c0,0,0,0,0,0.1c0,0,0,0.1,0,0.1H3.7v0.1H3.6c0,0,0,0,0,0.1c0,0-0.1,0.1-0.1,0.1c0,0,0,0.1,0,0.1l0,0c0,0,0,0.1,0,0.1c0,0,0,0,0,0.1
	c0,0,0,0,0,0.1c0,0,0,0.1,0,0.1c-0.1,0.1-0.1,0.2-0.2,0.3c0,0,0,0-0.1,0c0,0,0,0.1,0,0.1c0,0-0.1,0.1-0.1,0.1c0,0,0,0.1,0,0.1
	c0,0-0.1,0.1-0.1,0.1c0,0.1-0.1,0.2-0.2,0.2l-0.3,0.5H2.3c0-0.3,0-0.5,0-0.8c0-0.1,0-0.1,0.1-0.1c0.1-0.1,0.1-0.2,0.2-0.3
	c0.1-0.4,0.2-0.7,0.2-1.1c0-0.1,0-0.1,0-0.2c0.1-0.1,0-0.1,0-0.1c0,0,0-0.1,0-0.1c0,0,0-0.1,0-0.1c0,0,0-0.1,0-0.1v0c0,0,0,0,0-0.1
	c0.1,0,0,0,0,0l0,0l0,0c0,0,0-0.1,0-0.1l0,0c0,0,0-0.1,0-0.1V10c0,0,0-0.1,0-0.1l0,0c0-0.1,0-0.1,0-0.2c0,0,0-0.1,0-0.1V9.2
	c0,0,0,0,0-0.1c0-0.1,0-0.1,0-0.2c0,0,0-0.1,0-0.1V8.6L2.7,8.9c0,0,0,0.1,0,0.1c0,0,0,0.1-0.1,0.1v0.1c0,0,0,0.1,0,0.1L2.6,9.4v0.1
	c0,0,0,0,0,0.1c0,0,0,0.1,0,0.2c0,0.1,0,0.1,0,0.2c0,0,0,0-0.1,0c0,0,0,0.1,0,0.1c0,0,0,0.1,0,0.1c0,0,0,0,0,0c0,0,0,0.1,0,0.1l0,0
	c0,0,0,0.1,0,0.1H2.3c0,0-0.1,0-0.1,0H2c0,0-0.1,0-0.1,0.1l0,0l-0.1,0.1H1.7l0,0c0,0,0.1,0.1,0,0.1s-0.1,0.1-0.1,0H1.5
	c0,0-0.1,0.1-0.1,0.1H1.3c0,0,0,0,0,0.1H1.1c0,0,0,0.1,0,0.1H1c0,0,0,0,0,0.1H0.9l0,0H0.8c0,0-0.1,0-0.1,0c0,0-0.1,0.1-0.1,0.1H0.4
	c-0.1,0-0.2,0.1-0.3,0.1l0,0c0,0.1,0,0.2,0.1,0.3l0,0l0,0c0,0,0.1,0,0.1,0.1c0.1,0.1,0.3,0.1,0.4,0c0.1-0.1,0.3-0.2,0.4-0.3h0.1h0.2
	c0,0,0.1-0.1,0.1-0.1c0,0,0.1,0,0.1,0C1.7,11.1,1.9,11,2,10.9c0.2-0.1,0.1,0.3,0.1,0.3L2,12H1.9c0,0.1,0,0.2,0,0.3
	c0,0.1,0,0.2,0,0.3c-0.1,0,0,0.1,0,0.1l0,0c0,0,0,0.1,0,0.1c0,0,0,0.1,0,0.1c0,0.1,0,0.1,0,0.2H1.8c0,0.1,0,0.2-0.1,0.4H1.6v0.2
	c0,0,0,0.1,0,0.1c0,0,0,0.1-0.1,0.1c0,0,0,0.1,0,0.1H1.4c0,0,0,0.1,0,0.1c0,0.1,0,0.2-0.1,0.2v0.1c-0.1,0.1-0.1,0.2-0.1,0.3L1,14.9
	H0.8V15c-0.1,0.1-0.2,0.3-0.1,0.4c0,0.3,0.2,0.3,0.2,0.3c0.1-0.1,0.1-0.2,0.2-0.2h0.1v-0.1l0.3-0.2c0.1,0,0.1-0.1,0.2-0.1
	C1.6,15,1.7,15,1.8,14.9c0.1-0.2,0.2,0,0.2,0c0,0.1,0,0.2,0,0.3c0,0.3,0.1,0.6,0.3,0.8c0.1,0.1,0,0.1,0,0.1c0,0.1,0.1,0.2,0.1,0.2
	c0,0,0.1,0.1,0.1,0.1c0,0,0,0.1,0,0.1c0,0,0.1,0,0.1,0c0.2,0.2,0.3,0.2,0.3,0.2c0-0.1,0-0.2,0-0.4c-0.1-0.2,0-0.2,0-0.2
	c0,0,0-0.1,0-0.1c-0.2,0-0.2-0.3-0.2-0.3c0-0.1,0-0.2-0.1-0.2c0-0.1,0-0.2,0-0.3c0,0,0-0.1-0.1-0.1c0-0.1,0-0.2,0-0.3
	c0,0,0-0.1,0-0.1c0-0.4,0-0.4,0.1-0.4c0,0,0-0.1,0-0.1h0.1c0-0.3,0.2-0.2,0.2-0.2c0-0.1,0-0.1,0-0.2c0,0,0.1-0.1,0.1-0.1
	c0-0.2,0.1-0.1,0.1-0.1c0-0.1,0-0.1,0-0.2h0.2C3.2,13,3.2,13,3.2,13v-0.1c0-0.2,0.1-0.1,0.1-0.1c0-0.1,0-0.1,0-0.2l0.3-0.5
	c0.1,0,0.1-0.1,0.1-0.1L4,11.6c0-0.1,0.1-0.2,0.2-0.3c0,0,0-0.1,0-0.1c0,0,0-0.1,0-0.1c-0.1,0,0-0.1,0-0.1c0.1-0.1,0.1-0.2,0.2-0.3
	L4.6,10c0.1-0.2,0.1-0.3,0.3-0.4c0-0.1,0-0.3,0.1-0.4V9.1L5.1,9c0-0.1,0.1-0.2,0.1-0.2c0-0.1,0,0,0-0.1s0.1,0,0.1,0s0.1-0.1,0.1-0.1
	c0-0.1,0-0.1,0.1-0.2c0,0,0.1-0.1,0.1-0.1c0.1-0.4,0.1-0.1,0.1-0.1c0,0.3-0.1,0.5-0.2,0.8c-0.1,0.4-0.2,0.8-0.3,1.2
	c-0.1,0.7-0.3,1.5-0.3,1.5c-0.2,0.1-0.4,0.4-0.4,0.6c-0.1,0-0.1,0.2-0.1,0.2c0.1,0.1,0.1,0.1,0.1,0.2c0,0.1,0.1,0.3,0.2,0.4
	c0,0.2,0,0.5-0.1,0.7c0,0.1,0.1,0.2,0.1,0.3c-0.1,0.3,0,0.4,0,0.4c0.1,0.2,0,0.3,0,0.3c-0.1,0.2-0.1,0.4,0.1,0.6
	C4.9,15.4,5,15.3,5,15.3l0.1,0.1h0.1c0.2-0.1,0.1,0,0.1,0c0,0.1,0,0.2-0.1,0.2c0,0.1-0.1,0.2-0.2,0.3C5,16,4.9,16,4.9,16
	c0,0.1-0.1,0.1-0.2,0.1c0,0.1-0.1,0.1-0.1,0.1c0,0.1,0,0.1-0.1,0.1c0,0.1,0,0.3,0,0.4l0,0c0,0,0,0.1,0,0.1c0.2,0.1,0.4,0.1,0.5,0
	c0.1,0,0.2-0.1,0.3-0.1c0.1,0,0.2,0,0.2-0.1c0.2,0.1,0.2-0.1,0.2-0.1C6,16.8,6,16.7,6,16.7c0.3,0,0.2,0.1,0.2,0.1
	c-0.1,0.4-0.4,0.7-0.7,0.9c0,0.1-0.1,0.1-0.1,0.1c0,0.1-0.1,0.2-0.2,0.2L5,18.1l0,0c0,0-0.1,0-0.1,0l0,0c-0.1,0-0.1,0.1-0.1,0.1
	l-0.1,0.1l-0.1,0.1c-0.5,0.5-0.5,0.3-0.5,0.3s0,0,0,0.1c0,0-0.1,0-0.1,0c0,0-0.1,0.1-0.1,0.1H3.9l-0.2,0.2c-0.1,0-0.1,0.1-0.2,0.1
	c0,0,0,0,0,0.1c-0.2,0.1-0.3,0.2-0.4,0.4C3,19.8,2.9,20,3,20.2c0.1,0.1,0.3,0.1,0.4,0c0.1-0.1,0.2-0.1,0.3-0.1C3.9,20,4,20,4.2,20
	c0.2-0.1,0.5-0.1,0.8-0.1c0.1,0,0.2,0,0.3-0.1c0.1,0,0.2,0,0.2,0c0,0,0.1,0,0.1,0l0.2-0.1l0.2-0.1c0.1-0.1,0.3-0.1,0.4-0.1
	c0,0,0.1,0,0.1,0c0,0,0.1,0,0.1,0c0.1,0,0.1-0.1,0.2-0.1L7,19.3c0,0,0.1,0,0.1-0.1c0,0,0.1,0,0.1,0c0,0,0.1-0.1,0.1-0.1
	c0,0,0.1,0,0.1,0C7.6,18.9,7.6,19,7.6,19c0.1,0.2,0,0.3,0,0.3c0,0.1,0,0.2,0,0.3c0,0.1,0,0.2-0.1,0.3C7.5,20,7.5,20,7.5,20.1l0,0
	c0,0,0,0.1,0,0.1l0,0c0.1,0.1,0.2,0.1,0.3,0c0,0,0,0,0,0l0,0c0.1,0,0.2,0,0.3-0.1c0.3-0.1,0.4-0.4,0.5-0.6c0-0.1,0.1-0.2,0.2-0.3
	c0.2-0.4,0-0.5,0-0.5c-0.1-0.2-0.3-0.3-0.4-0.4c0,0,0-0.1-0.1-0.1H8.2c-0.1,0-0.1,0-0.2-0.1c0,0-0.1,0-0.1,0.1H7.7
	c0,0-0.1,0.1-0.1,0.1l0,0l0,0c0,0-0.1,0-0.1,0.1c0,0,0,0.1,0,0.1c-0.1,0.1-0.1,0.1-0.2,0.1l-0.3,0.1c-0.1,0-0.1,0-0.2,0.1
	c-0.1,0-0.1,0-0.1,0.1H6.5c-0.1,0.1-0.3,0.1-0.4,0.1c0,0,0,0.1-0.1,0.1c0,0,0,0,0,0H5.9c-0.1,0-0.1,0-0.2,0H5.2l0,0H4.7
	c-0.1,0-0.2,0.1-0.2,0.1c-0.1,0-0.2,0-0.3,0c0-0.1-0.1,0-0.1,0c-0.1,0-0.2,0-0.3,0c0-0.1,0.1-0.1,0.1-0.1l0.2-0.1
	c0.1,0,0.1-0.1,0.1-0.1l0.1,0v-0.1l0,0c0.1-0.1,0.1-0.1,0.2-0.2c0,0,0.1-0.1,0.1-0.1c0,0,0,0,0-0.1h0l0.1-0.1v-0.1
	c0.1-0.1,0.2-0.1,0.2-0.2h0.2l0.1-0.1L5.6,18h0.1c0,0,0,0,0-0.1l0.1-0.1h0.1l0,0l0.1-0.1v-0.2c0.1-0.1,0.2-0.2,0.3-0.3
	c0-0.1,0.1-0.1,0.2-0.2c0.1-0.1,0.1-0.1,0.2-0.2c0-0.1,0-0.1,0-0.1c0.1-0.1,0.2-0.2,0.2-0.3c-0.1-0.2-0.3-0.3-0.5-0.3
	c-0.1,0-0.2,0-0.3,0H5.8v0.1H5.7c0,0.1,0,0.1-0.1,0s-0.1,0-0.1,0l0,0l0,0c0,0,0-0.1,0-0.1l0,0c0,0,0.1,0,0.1,0c0,0,0-0.1,0-0.1
	c0,0,0-0.1,0-0.1c0,0.1,0.1,0,0.1,0l0,0c0,0,0-0.1,0-0.1l0.1-0.1c0.1,0,0.2-0.1,0.2-0.1c0,0,0-0.1,0-0.1c0,0,0,0,0,0l0,0l0.1-0.1
	l0,0c0,0,0-0.1,0-0.1l0,0l0.1-0.1c0-0.1,0-0.1,0.1-0.1c0,0,0-0.1,0-0.1c0.1,0,0.2,0,0.3-0.1c0.1,0,0.1-0.1,0.1-0.1
	c0.1-0.1,0.1-0.1,0.1-0.1c0-0.1,0-0.1,0-0.2c-0.1-0.1-0.1-0.1-0.2-0.2c0,0-0.1,0-0.1,0c0,0-0.1,0-0.1,0H6.2l0,0H5.7
	c-0.1,0-0.1,0.1-0.1,0.1l0,0c-0.1,0-0.1-0.1-0.1-0.1c0,0,0-0.1,0.1-0.1c0-0.1,0-0.1,0-0.2l0,0c0,0,0-0.1,0.1-0.1c0,0,0,0,0,0l0,0
	c0.1,0,0.1,0,0.1-0.1c0.1,0,0.1-0.1,0.1-0.1c0,0,0-0.1,0-0.1l0.1-0.1c0-0.1,0.1-0.1,0.1-0.2c0,0,0,0,0-0.1v-0.2c0,0,0.1-0.1,0.1-0.1
	c0,0,0.1-0.1,0.1-0.1c0,0,0-0.1,0-0.1c0,0,0-0.1,0-0.1c0,0,0.1-0.1,0.1-0.1c0-0.1,0-0.1,0-0.2c0,0,0-0.1-0.1-0.1l0,0
	c0,0-0.1-0.1-0.1-0.1l-0.2-0.2H5.9C5.9,12.1,5.8,12,5.7,12v-0.2c0-0.1,0.2,0,0.2,0h0.4l0.1,0.1h0.3v0.6c-0.1,0.1-0.1,0.3,0,0.4
	c0,0,0,0.1,0,0.1c0,0.1,0.1,0.2,0.2,0.3h0.1c0.1,0.1,0.1,0.1,0.2,0.1c0.2,0,0.4,0,0.6-0.1H8c0.3-0.1,0.6-0.2,0.8-0.3
	c0.1,0,0.2-0.1,0.2-0.1c0.2,0,0.1-0.1,0.1-0.1h0.1c0.1-0.1,0.2-0.1,0.3-0.1c0.1,0,0.1,0,0.1-0.1c0.1-0.1,0.1,0,0.1,0
	c0,0,0.1-0.1,0.1-0.1c0-0.1,0.1-0.2,0.2-0.2C10.3,12.3,10.2,12.2,10.2,12.2L10.2,12.2z M5.7,13.2c0,0.1-0.1,0.1-0.1,0.2
	c-0.1,0-0.1,0.1-0.1,0.1c0,0.1-0.1,0.1-0.1,0c0.1-0.1,0.1-0.2,0.1-0.3c0-0.1,0.1-0.2,0.1-0.2c0,0,0,0,0.1,0
	C5.7,13,5.7,13.1,5.7,13.2L5.7,13.2z M7,10c0,0-0.1,0.5-0.1,0.6c0,0,0,0,0,0.1c0,0-0.1,0.1-0.1,0.1v0.3c0,0,0,0.1,0,0.1
	c0,0,0,0.2,0,0.3c0,0.1-0.1,0.1-0.1,0.1H5.9c-0.1,0-0.1-0.1-0.1-0.2l0,0c0,0,0.1-0.6,0.1-0.6C6,10.7,6,10.6,6.1,10.6
	c0.2-0.3,0.4-0.5,0.6-0.7c0-0.1,0-0.1,0.1-0.1c0,0,0,0,0,0l0,0C6.9,9.8,6.9,9.9,7,10L7,10L7,10z M9.1,12.3c-0.1,0.1-0.1,0.1-0.2,0.1
	c-0.1,0-0.1,0.1-0.2,0.1c0,0-0.1,0.1-0.2,0.1c-0.1,0-0.1,0-0.2,0c-0.1,0-0.2,0-0.3,0.1l-0.5,0.1c-0.1,0-0.3,0-0.4-0.1
	c0,0-0.1,0-0.1-0.4V12c0,0-0.1-0.1,0-0.1l0,0c0.2,0,0.4,0,0.5,0.1c0,0,0.5,0,0.7,0.1h0.3c0.1,0,0.1,0,0.2,0c0,0,0.1,0.1,0.1,0.1
	l0.1,0.1C9.1,12.2,9.2,12.2,9.1,12.3L9.1,12.3L9.1,12.3L9.1,12.3z"/>
<path class="st0" d="M0.3,8.1c0,0,0,0.1,0,0.1c0,0,0,0,0.1,0.1c0,0.1,0.1,0.1,0.2,0.1c0,0,0.1,0,0.1,0h0.1l0.1,0.1l0,0
	c0,0,0.1,0,0.1,0l0,0h0.3c0,0,0.1,0,0.1,0h0.1h0.1c0,0,0.1,0,0.1,0h0.1l0.1-0.1h0.1h0.1c0.2-0.1,0.4-0.1,0.6-0.2h0.2c0,0,0,0,0-0.1
	c0,0,0.1,0,0.1,0l0,0c0,0,0,0,0-0.1L3,8l0,0l0,0l0,0H3l0,0h0.3c0.1,0,0.1-0.1,0.2-0.1c0.1,0,0.1,0,0.2-0.1c0-0.1,0-0.1-0.1-0.2h0.2
	l0.1-0.1l0.1-0.1H4c0,0,0-0.1,0.1-0.1l0.2-0.1h0.2c0.1,0,0.1-0.1,0.1-0.1l0,0h0.1c0,0,0-0.1,0-0.1h0.2c0,0,0,0,0-0.1l0,0
	c0.1,0,0.1-0.1,0.1-0.2c0,0,0.1,0,0.1,0c0,0,0.1,0,0.1-0.1l0,0l0,0c0,0,0,0,0-0.1h0.2c0,0,0,0,0,0.1l0.2-0.3l0.2-0.2c0,0,0,0,0.1,0
	C5.9,6.3,6,6.2,6,6.2h0.7c0,0,0.1,0,0.1,0l0,0c0,0,0.1-0.1,0.1-0.1l0,0c0,0,0,0,0-0.1s0,0,0,0C7,6,7,6,7,6c0-0.1,0.1-0.1,0.2-0.1
	l0,0c0.1-0.1,0.2-0.2,0.3-0.2c0.1-0.1,0.2-0.1,0.3-0.1C7.9,5.5,8,5.5,8,5.4c0,0,0-0.1,0.1-0.1c0,0,0-0.1,0-0.1c0,0,0-0.1,0-0.1
	c0,0,0.1-0.1,0.1-0.1c0,0,0,0,0-0.1c0,0-0.1,0-0.1,0c0-0.1,0-0.1-0.1-0.1c-0.1,0-0.2,0-0.2,0l0,0L7.6,4.9L7.3,5.1
	C7.1,5.1,7,5.2,6.8,5.4c-0.1,0-0.1,0-0.2,0.1C6.5,5.5,6.4,5.6,6.3,5.7c-0.1,0-0.2,0-0.2,0.1C6,5.8,5.8,5.9,5.7,6c0,0-0.1,0-0.1,0
	L5.4,6.1c-0.1,0-0.2,0.1-0.2,0.1L5.1,6.3C5,6.3,5,6.3,4.9,6.4c0,0-0.3,0.2-0.5,0.3c0,0-0.1,0-0.1,0l0,0H4.3L4.2,6.8H4.2v0.1L3.9,7
	H3.8H3.8H3.7c0,0,0,0,0,0.1c0,0-0.1,0.1-0.1,0.1c-0.1,0-0.2,0-0.3,0.1H3.1L3,7.3H2.8L2.5,7.4H2.4l0,0H2.3c0,0,0,0,0,0.1
	C2.2,7.5,2,7.6,1.9,7.6c0,0-0.1,0-0.1,0H1.3c0,0,0,0-0.1,0.1c-0.1,0-0.2,0-0.2,0c-0.1,0-0.2,0-0.3,0H0.5l-0.1,0
	C0.3,7.6,0.3,7.5,0.2,7.5c0,0.1,0,0.2,0,0.3c0,0,0,0.1,0,0.1c0,0,0,0.1,0,0.1C0.2,8,0.2,8,0.3,8.1C0.2,8.1,0.2,8.1,0.3,8.1z"/>
<path class="st0" d="M6.3,4h0.2l0.2-0.1c0.1,0,0.1,0,0.2-0.1c0,0,0.1,0,0.1,0l0,0h0.1c0.3-0.1,0.5-0.3,0.8-0.4
	c0.4-0.2,0.6-0.5,0.8-0.8c0,0,0,0,0-0.1l0,0V2.3l0.1-0.1V2c0-0.1,0-0.2,0-0.3L8.6,1.5c0,0,0-0.1-0.1-0.1V1.3c0,0,0,0.1,0,0.1
	c-0.1,0-0.1,0.1-0.1,0.2v0.1c0,0.1,0,0.2,0,0.3c0,0,0,0.1,0,0.1c0,0.1-0.1,0.1-0.1,0.2C8.3,2.4,8.2,2.5,8.1,2.6L7.7,2.8l0,0
	C7.6,2.9,7.5,2.9,7.4,3C7.4,3,7.3,3,7.3,3.1c0,0-0.1,0-0.1,0.1c0,0,0,0,0,0c0,0.1,0.1,0,0,0.1H7.1H7l0,0l0,0c0,0,0,0,0,0.1
	c0,0-0.1,0-0.1,0c0,0-0.1,0.1-0.1,0.1H6.7c-0.1,0-0.1,0-0.1,0.1c0,0-0.1,0-0.1,0c0,0,0,0,0,0.1c0,0,0,0.1,0,0.1c0,0,0,0-0.1,0
	c0,0-0.1,0.1-0.1,0.1c0,0-0.1,0,0,0.1L6.3,4z"/>
<path class="st0" d="M2.6,3.7L2.6,3.7L2.6,3.7c0,0,0,0.1,0,0.1c0,0,0.1,0.2,0.1,0.3l0.1,0.1c0,0,0,0,0.1,0c0.1,0.1,0.2,0.2,0.4,0.2
	c0.1,0,0.1,0.1,0.2,0.1c0.1,0,0.2-0.1,0.3-0.1h0.1V4.2C3.9,4.2,3.9,4.1,4,4c0,0,0-0.1,0-0.2c0,0,0-0.1,0-0.1c0,0,0,0,0.1-0.1
	c0.1,0,0.1-0.1,0.1-0.1c0,0,0-0.1,0-0.1c0,0-0.1,0.1-0.1,0.1l0,0L3.9,3.8c0,0-0.1,0-0.1,0.1c0,0-0.1,0.1-0.1,0.1C3.6,4,3.6,4,3.5,4
	H3.4c0,0-0.1,0-0.1,0c0,0-0.1-0.1-0.1-0.1c0-0.1-0.1-0.1-0.1-0.1C2.9,3.8,2.9,3.7,2.9,3.6C2.8,3.5,2.7,3.1,2.6,3
	c0,0-0.1-0.1-0.1-0.1l0,0c0,0.2-0.1,0.3-0.1,0.5c0,0,0,0.1,0,0.2C2.5,3.5,2.5,3.6,2.6,3.7L2.6,3.7z"/>
<path class="st1" d="M0.2,7.6L0.2,7.6C0.2,7.5,0.2,7.5,0.2,7.6L0.2,7.6L0.2,7.6L0.2,7.6z"/>
<path class="st0" d="M20.5,13.3L20.5,13.3z"/>
<path class="st0" d="M7.1,10.9L7.1,10.9z"/>
<path class="st0" d="M21.9,16.9c-0.1-0.1-0.2-0.1-0.4-0.2c0-0.1,0-0.2-0.1-0.4c0-0.1,0-0.1,0-0.2c0.1-0.1,0.1-0.3,0.1-0.4
	c0-0.2-0.2-0.4-0.3-0.5c-0.1-0.1-0.1-0.1-0.2-0.2l-0.3-0.2c-0.1-0.1-0.2-0.2-0.2-0.3c0,0,0-0.1,0-0.1c0,0,0-0.1,0-0.1v-0.2
	c0,0,0-0.1,0-0.1c0-0.1,0-0.1,0-0.2v-0.2c0-0.1,0-0.1-0.1-0.1c0,0,0-0.1,0-0.1c0,0,0,0,0-0.1s0,0-0.1,0s0,0.3,0,0.4
	c0,0.1,0,0.2,0,0.3c0.1,0,0.1,0.1,0.1,0.1c0,0,0,0,0,0.1c0,0.1,0,0.2,0,0.2c0,0,0,0.1,0,0.1c0,0.1,0,0.1,0,0.2c0,0.1,0,0.3,0,0.4
	c0,0,0,0.1,0,0.1c0,0.1,0,0.1,0,0.2c0,0.1,0,0.2,0,0.3c0,0,0,0.1,0,0.1c0,0.1,0,0.1,0,0.2h0.1c0,0.1,0.1,0.2,0.1,0.3H21
	c0.1,0.1,0.3,0.2,0.3,0.3c0.1,0.1,0.1,0.3,0.1,0.5c-0.1,0.1-0.2,0.2-0.4,0.3c-0.2,0.2-0.5,0.3-0.8,0.4c-0.1,0-0.2,0-0.2,0.1
	c-0.1,0-0.2,0.1-0.2,0.1c-0.3,0.1-0.5,0.2-0.8,0.3l0,0c0.1,0,0.1,0,0.2,0h0.1h0.2c0.1,0,0.2,0,0.4-0.1h0.2l0,0l0.1-0.1
	c0.1,0,0.2,0,0.2,0c0.1-0.1,0.2-0.1,0.3-0.1h0.4l0.1-0.1h0.1c0.1-0.1,0.1-0.1,0.2-0.1h0.1l0.1-0.1l0.1,0.1c0.1,0,0.1,0,0.1,0.1h0.2
	l0.1-0.1c0.1-0.1,0.1-0.1,0.1-0.2c0,0,0-0.1,0-0.1c0-0.2-0.1-0.3-0.2-0.5C22.1,17,22,16.9,21.9,16.9z"/>
<path class="st0" d="M19.6,8.7c0,0,0-0.1,0-0.1l0,0C19.6,8.6,19.6,8.6,19.6,8.7L19.6,8.7v0.1l0,0C19.6,8.7,19.6,8.7,19.6,8.7z"/>
<path class="st0" d="M23.5,6.4c-0.1-0.2-0.3-0.3-0.5-0.4c-0.1,0-0.1,0-0.2-0.1c-0.1,0-0.3-0.1-0.4-0.1h-1.8c0,0-0.1,0.1-0.1,0.1
	c0,0-0.1,0-0.1,0h-0.4c-0.1,0.1-0.1,0.1-0.2,0.1c0,0,0,0.1,0,0.1h-0.1c0,0-0.1,0-0.1,0c0,0-0.1,0.1-0.1,0.1c0,0-0.1,0-0.1,0
	c0,0-0.1,0-0.1,0H19l-0.2,0.1c0,0,0,0-0.1,0l0,0c-0.1,0-0.2,0.1-0.2,0.1h-0.1l0,0l0,0c-0.1-0.1-0.1-0.1,0-0.2V5.9
	c0-0.1-0.1-0.1-0.1-0.1c0-0.1,0-0.2,0-0.3c0,0,0-0.1,0-0.1C18.3,5.2,18.2,5.1,18,5c0,0,0-0.1,0-0.1c0,0,0,0,0,0c0,0,0.1,0,0.1,0
	c0.1,0,0.1,0,0.2,0c0,0,0.1,0,0.1,0h0.2c0.1,0,0.1,0,0.2,0l0.4-0.1c0.2,0,0.3,0,0.5,0c0.2,0,0-0.1,0-0.1c0-0.1,0-0.1,0-0.2
	c0,0,0,0-0.1,0l-0.4-0.1c-0.2-0.1-0.4-0.3-0.5-0.5c-0.2-0.1-0.3-0.1-0.5-0.2h-0.5c-0.5,0-1-0.1-1.5-0.3l0,0c0-0.1-0.1-0.3-0.2-0.3
	c-0.1,0-0.3,0.1-0.3,0.2c0,0,0,0.1,0,0.1c0,0,0,0,0,0.1l-0.1,0.1l0,0l0,0l0,0c0,0,0,0.1,0,0.1c0,0,0,0.1,0,0.1c0,0.1,0,0.1,0.1,0.2
	c0,0,0,0.1,0,0.1l0,0v0.1c0,0,0.1,0.1,0.1,0.1l0.3,0.4c0.1,0,0.2,0,0.3,0c0.1,0,0,0.2,0,0.2c0,0.2,0,0.3-0.1,0.4c0,0.1,0,0.7,0,0.7
	c0,0,0,0.1,0,0.2v0.3c0,0,0,0.1,0,0.1c0,0,0,0.1,0,0.1c0,0,0,0.1,0,0.2c0,0.1,0,0.1-0.1,0.2c-0.2,0.1-0.4,0.2-0.6,0.3
	c-0.1,0-0.1,0-0.2,0.1l-0.1,0.2l-0.4,0.1c-0.1,0-0.1,0-0.2,0c-0.1-0.1-0.3-0.2-0.4-0.4c-0.1-0.1-0.2-0.1-0.3-0.2l0,0
	c0,0-0.1,0-0.1,0.1c0,0,0,0,0,0l0,0c0,0.1,0,0.1-0.1,0.1c0,0.1,0,0.1,0,0.2c0,0.1,0,0.2-0.1,0.3c0,0-0.1,0-0.1,0c0,0-0.1,0-0.1,0
	c-0.1,0-0.2,0-0.3,0.1h-0.4h-0.6c0-0.1,0-0.1,0-0.2h-0.1c0-0.1,0-0.1-0.1-0.1l0,0c0,0-0.1,0-0.1,0h-0.1H12v0.1L12,7.9v0.2l-0.1,0.1
	c0,0,0,0.1-0.1,0.1c0,0,0,0.1,0,0.1c0,0,0,0-0.1,0.1c0,0.1,0,0.1,0,0.2l-0.1,0.1v0.1c0,0,0,0.1-0.1,0.1c0,0,0,0.1,0,0.1v0.1
	c0,0.1,0,0.1,0,0.2v0.1c0,0,0,0,0,0.1c0,0.1,0,0.1,0,0.2c0,0.1,0,0.2,0,0.2c0,0,0.1,0.1,0.1,0.2c0,0.1,0.1,0.1,0.1,0.1
	c0,0,0.1,0,0.1,0.1l0.2,0.1c0.1,0,0.1,0,0.2,0c0,0,0.1,0,0.1,0h0.4c0,0,0-0.1,0.1-0.1l0.1-0.1c0,0,0.1,0,0.1,0C13,10.1,13,10,13,9.9
	c0-0.1-0.1-0.2-0.2-0.3c0,0,0-0.1,0-0.1c0-0.1,0-0.1,0-0.2c0,0,0-0.1,0-0.1V9c0.2,0,0.3,0,0.5,0c0,0,0.1,0,0.1,0h0.3
	c0.1,0,0.1,0,0.1,0.1H14c0.1,0.1,0.1,0.2,0.1,0.4c0,0.1,0.1,0.2,0.1,0.2c0,0.1,0,0.2,0,0.2c0,0.1,0.1,0.2,0.1,0.4c0,0.1,0,0.2,0,0.3
	c0,0.2,0.1,0.3,0.1,0.4c0,0.1,0.1,0.2,0.2,0.3c0.1,0,0.2,0,0.2-0.1h0.3c0,0,0.1-0.1,0.1-0.1c0.1,0,0.3-0.1,0.4-0.1l0.2-0.1
	c0.2-0.1,0.3-0.2,0.4-0.3c0.1-0.1,0.3-0.3,0.4-0.4c0.1-0.2,0.2-0.1,0.2-0.1c0.1,0,0.1,0,0.2,0l0.2,0.2l0,0c0,0,0.1,0,0.1,0
	c0,0.1,0.1,0.2,0.2,0.1c0.1,0,0.2-0.1,0.1-0.2l0,0c0,0,0-0.1,0-0.1l0,0c0,0,0-0.1,0-0.1V9.9c0,0,0.1-0.1,0.1-0.1c0,0,0.1,0,0.1,0
	c0,0,0.1-0.1,0.1-0.1H18l0,0c-0.1,0.1-0.1,0-0.1,0c0,0,0-0.1,0-0.1c0-0.1,0-0.2,0-0.3c0,0,0-0.1,0-0.1c0,0,0-0.1,0-0.1
	c0,0,0-0.1,0-0.1c0-0.1,0-0.1,0-0.2c0,0,0-0.1,0-0.1c0,0,0.1-0.1,0.1-0.1l0,0c0,0,0-0.1,0.1-0.1c0,0,0-0.1,0-0.1l0.5-0.6l0,0
	c0.1,0,0,0,0,0c0,0.1,0,0.2,0,0.3c0,0.1,0,0.1,0,0.2c0,0.1,0,0.2,0,0.4v0.7c0,0,0,0.1,0,0.1c0,0,0,0-0.1,0c-0.1,0-0.1,0-0.1,0h0.3
	c0.1,0-0.1,0.1-0.1,0.1c0,0-0.1,0-0.1,0.1v0.1l0,0c0,0,0.1,0,0.1,0c0.1,0,0,0.1,0,0.1l-0.1,0.2c0,0.1-0.1,0.1-0.1,0.2h0
	c0,0-0.1,0-0.1,0.1c0,0.1-0.1,0-0.1,0s0.1,0.1,0,0.1H18l0,0c0,0,0,0-0.1,0h-0.1l0,0c0,0-0.1,0-0.1,0c0,0.1-0.1,0.1-0.1,0.1l0,0
	c0,0-0.1,0-0.1,0.1v0.2h-0.2c0,0-0.1,0.1-0.1,0.1c0,0.1,0,0.1-0.1,0.2c0,0-0.1,0-0.1,0c0,0,0,0,0,0.1c0,0-0.1,0-0.1,0l0,0h-0.1
	c0,0,0,0.1-0.1,0.1c0,0,0,0.1,0,0.1h-0.2c-0.1,0.1-0.1,0.1-0.2,0.2l-0.2,0.1c-0.1,0.1-0.1,0.1-0.1,0.2c0,0,0,0.1-0.1,0.1
	c0,0.1,0,0.1-0.1,0.2c-0.1,0.1-0.1,0.2-0.1,0.4c0,0.1,0,0.2-0.1,0.3c0,0.1,0,0.2,0,0.3c0,0.2,0.1,0.4,0.1,0.6v0.9
	c0,0.1,0.1,0.7,0.1,0.7c0.1,0.2,0.1,0.4,0.1,0.6c0,0.1,0,0.3,0,0.4c0,0,0,0,0,0.1c0,0,0,0,0,0.1l0,0l0,0l0,0v0.1c0,0.1,0,0.2,0,0.3
	c-0.1,0.1-0.2,0.1-0.3,0.2c-0.1,0-0.1,0-0.1,0.1c-0.1,0.1-0.2,0.2-0.3,0.2c-0.1,0.1-0.1,0-0.1-0.1v-0.6c0-0.1,0-0.3,0-0.4
	c0-0.1,0-0.2,0-0.3c0,0,0-0.1,0-0.1v-1.2c0-0.1-0.1-0.2-0.1-0.3c0-0.1,0-0.1,0-0.2v-0.3c0,0,0-0.1,0-0.1v-0.1c0,0,0-0.1,0-0.1l0,0
	c0,0,0-0.1,0-0.1c0,0,0,0,0,0V13c0-0.1,0-0.1,0-0.2c0-0.1-0.1-0.2-0.1-0.3c0-0.1-0.1-0.1-0.1-0.2c0-0.1-0.1-0.1-0.2-0.1
	c0,0,0,0,0-0.1l0,0c0,0,0-0.1,0-0.1l0,0c-0.1,0-0.1,0-0.2,0c0,0-0.1,0-0.1,0c0,0,0,0.1,0,0.1c-0.1,0-0.1,0-0.2,0h-0.3
	c-0.1,0.1-0.2,0.1-0.3,0.2c0,0-0.1,0.1-0.1,0.1c0,0,0,0,0,0.1c0,0,0,0.1,0,0.1c0,0,0,0.1,0,0.1c0,0.1,0.1,0.1,0.2,0.1
	c0,0,0.1,0,0.1,0.1l0.1,0.2c0,0,0.1,0,0.1,0l0.1,0.1H14c0,0,0.1,0,0.1,0.1l0.1,0.1h0.1l0.1,0.1c0,0,0.1,0.1,0.1,0.1
	c0.1,0.1,0.1,0.2,0.1,0.3c0,0.1,0,0.1,0.1,0.2c0,0,0,0.1,0,0.1c0,0,0,0.1,0,0.1c0,0.1,0,0.2,0,0.3c0,0.1,0,0.1,0,0.2
	c0,0.1,0,0.2,0,0.3c0,0.1,0,0.1,0,0.1c0,0,0,0.1,0,0.1c0,0.1,0,0.1,0,0.2c0,0,0,0.1,0,0.1v0.1c0,0,0,0.1,0,0.1v0.2
	c0,0.2,0,0.4-0.1,0.6c0,0.1-0.1,0.2-0.1,0.3c0,0,0,0.1,0,0.1c0,0.1,0,0.2-0.1,0.3c0,0.1,0,0.1,0,0.2l0.2,0.2c0,0,0,0,0,0.1
	c0,0,0,0.1-0.1,0.1c0,0,0,0.1,0,0.1v0.2c0,0,0,0,0,0.1c0,0,0,0.1,0,0.1l0,0c0.1,0.1,0.2,0.2,0.4,0.2c0.2,0,0.4-0.2,0.5-0.4
	c0,0,0.1-0.1,0.1-0.1l0,0v-0.1h0.1l0.1-0.1c0,0,0-0.1,0-0.1c0.1-0.1,0.1-0.1,0.2-0.2c0,0,0-0.1,0-0.1h0.2v-0.2h0.1
	c0,0,0.1,0,0.1,0.1v0.1c0,0,0.1,0.1,0.1,0.1h0.1c0,0,0,0.1,0,0.1l0.2,0.1l0,0l0.1,0l0.1-0.1c0,0,0.1,0,0.1-0.1c0,0,0-0.1,0-0.1
	c0,0,0.1-0.1,0.1-0.1c0-0.1,0-0.2,0-0.2c0-0.1,0-0.1,0-0.2v-0.1l0,0c0,0,0,0,0-0.1l0,0l0,0c0,0,0-0.1,0-0.1l0,0c0,0,0,0,0-0.1v-0.4
	c0,0,0-0.1,0-0.1v-0.1c0,0,0-0.1,0-0.1c0,0,0-0.1,0-0.1l0,0c0,0,0,0,0-0.1h0.1c0,0,0-0.1,0-0.1c0-0.1,0-0.1,0-0.2s0.1,0,0.2,0
	c0,0,0-0.1,0-0.1c0,0,0-0.1,0-0.1h0.1c0,0,0,0,0-0.1c0,0,0-0.1,0-0.1v-0.1h0.2v-0.1l0,0h0.1V15h0.1c0,0,0.1-0.1,0.1-0.1l0,0l0,0
	c0,0,0.1,0,0.1,0c0,0.1,0,0.1,0,0.2c0,0,0,0.1,0,0.1v0.4c0,0.1,0,0.1,0,0.2c0,0.1,0,0.1,0,0.2c0,0,0,0.1,0,0.1c0,0.1,0,0.2,0,0.2
	c0,0.1,0,0.1,0,0.2v0.2c0,0.1,0,0.1,0,0.2c0,0,0,0.1,0,0.1c0,0,0,0,0,0.1c0,0,0,0.1,0,0.1c0,0,0,0.1,0,0.1c0,0.1,0,0.2-0.1,0.3
	c0,0.1,0,0.2,0,0.2c0,0,0,0.1,0,0.1v0.7c0,0.1,0,0.2,0,0.2c0,0,0,0-0.1,0c0,0,0,0,0,0.1c0,0,0,0,0,0.1l0,0c0,0,0,0.1,0,0.1l0,0
	c0,0.1,0,0.1,0,0.2c0,0.1,0,0.2,0,0.3c0,0,0,0.1,0,0.1l0,0l0.1,0.1c0,0,0.1,0.1,0.1,0.1h0.2c0,0,0-0.1,0-0.1c0,0,0.1,0,0.1,0
	c0,0,0,0,0,0c0-0.1,0-0.1,0.1-0.1s0,0,0.1,0c0,0,0.1,0,0.1,0v-0.1c0,0,0-0.1,0-0.1c0,0,0-0.1,0-0.1c0,0,0-0.1,0-0.1V19
	c0,0,0-0.1,0-0.1c0,0,0-0.1,0-0.1v-0.3h0l0.1-0.1c0,0,0-0.1,0-0.1c0,0,0-0.1,0.1-0.1c0,0,0-0.1,0-0.1c0,0,0-0.1,0-0.1
	c0,0,0-0.1,0-0.1c0,0,0-0.1,0-0.1c0,0,0-0.1,0-0.1c0-0.1,0-0.2-0.1-0.3v-0.1c0-0.1-0.1-0.1-0.1-0.1h0v-0.1h0.1v-0.5c0,0,0,0,0-0.1
	V16l0,0l0,0l0,0l0,0l0,0c0,0,0,0.1,0,0.1c0,0,0-0.1,0-0.1l0,0c0,0,0-0.1,0-0.1l0,0c0,0,0-0.1,0-0.1c0,0-0.1,0-0.1-0.1l0,0h0.1l0,0
	h-0.2c0,0,0-0.1,0-0.1c0,0,0-0.1,0-0.1l0,0c0,0,0-0.1,0-0.1l0.1-0.2l0,0c0,0.1,0,0.1,0,0.2c0,0,0,0.1,0,0.1l0,0v-0.1
	c0,0,0-0.1,0-0.1c0,0,0,0,0-0.1l0,0c0,0,0-0.1,0-0.1c0,0,0-0.1,0-0.1h-0.1l0,0l0,0c0,0,0,0.1,0,0.1c0,0-0.1,0-0.1,0c0,0,0-0.1,0-0.1
	c0,0,0-0.1,0-0.1v-0.2c0,0,0-0.1,0-0.1c0,0,0,0-0.1,0s0,0,0-0.1l0,0c0,0,0-0.1,0-0.1h0.1l0,0c0,0,0,0,0,0.1l0,0v-0.2
	c0,0,0-0.1,0-0.1l0,0c0,0,0,0.1,0,0.1l0,0l0,0l0,0c0,0,0-0.1,0-0.1h0.1c0.1,0,0-0.1,0-0.1c0,0,0-0.1,0-0.1l0,0c0-0.1,0.1,0,0.1,0
	s0.2-0.4,0.2-0.4v-0.1c0,0,0,0,0-0.1c0,0,0-0.1,0-0.1c0,0,0,0,0-0.1c-0.1-0.1-0.1-0.2,0-0.3c0,0,0,0,0,0l0,0c0,0,0,0,0-0.1
	c0.2-0.3,0.4-0.6,0.7-0.8c0-0.1,0.2-0.2,0.3-0.1c0.1,0,0.1,0.1,0.1,0.1C20,12,20,12,20,12.1c0,0.1,0.1,0.1,0.1,0.1
	c0,0,0.1,0.1,0.1,0.2c0,0,0.1,0,0.1,0.1c0,0.1,0,0.1,0.1,0.1s0,0.1,0,0.1v0.1c0,0.1,0.1,0.1,0.1,0.2v0.1c0,0,0,0.1,0,0.1h0.1
	c0,0,0,0.1,0,0.1l0,0c0,0,0-0.1,0-0.1c0,0,0-0.1,0-0.1v-0.2c0-0.1,0-0.2,0-0.3c0-0.1,0-0.3,0-0.4c0-0.1,0-0.1,0-0.2l0.3-0.3l0.3-0.1
	c0.1-0.2,0.1-0.4,0-0.6c0-0.1-0.1-0.2-0.2-0.2c0-0.1-0.1-0.1-0.1-0.2h-0.1c-0.1,0-0.1,0-0.2,0.1c-0.1,0-0.2,0.1-0.2,0.1
	c-0.1,0-0.2,0.1-0.3,0.2h-0.1c0,0-0.1,0.1-0.1,0.1l-0.1,0.2v0.3c-0.1,0.1-0.2,0.3-0.3,0.4c0,0.1-0.1,0.2-0.1,0.3l0,0
	c0-0.1,0.1-0.1,0.2-0.2l0,0c0.1,0,0,0.1,0,0.1c-0.1,0.1-0.1,0.2-0.2,0.4c0,0,0,0.1-0.1,0.1c0,0,0,0.1,0,0.1c0,0,0,0,0,0.1v0.1
	c0,0,0,0.1,0,0.1c0,0.1,0,0.1-0.1,0.1c-0.1,0.1,0,0.1-0.1,0.1s0-0.1,0-0.1V13c0,0.1-0.1,0-0.1,0c0,0,0-0.1,0-0.1c0-0.1,0-0.2,0-0.2
	h0.1c0-0.1,0-0.3,0-0.4c0-0.1,0-0.1,0.1-0.2c0-0.1,0-0.2,0-0.2c0,0,0-0.1-0.1-0.1c-0.1-0.1-0.2-0.1-0.3,0c-0.1,0-0.2-0.1-0.3-0.1
	c-0.1,0-0.1,0-0.1,0.1H18c0,0.1-0.1,0.1-0.1,0.1c0,0.1-0.1,0.1-0.1,0.1c-0.1,0,0,0.2,0,0.2c0,0.1,0.1,0.1,0.1,0.2
	c0,0.1,0,0.1,0.1,0.2v1.3c0,0.1,0,0.3,0,0.4c0,0,0,0.1,0,0.1c0,0-0.1,0.1-0.1,0.1c0,0,0,0.1,0,0.1c-0.1,0.1-0.1,0.1-0.2,0.2
	c0,0.1-0.2,0.1-0.1,0.1s0.1,0,0,0.1s-0.1,0-0.1,0c0,0,0,0.1,0,0.1c0,0.1-0.1,0.2-0.2,0.3c-0.1,0-0.1,0.1-0.1,0.2
	c-0.1,0.2-0.1,0-0.1,0c-0.1-0.2-0.1-0.3-0.1-0.5c0-0.1,0-0.1,0-0.2c0.1-0.2,0-0.2,0-0.2c0-0.4,0-0.9,0-1.3c0-0.1,0-0.2,0-0.3
	c0-0.1,0-0.1,0-0.2c0-0.1-0.1-0.2-0.2-0.2c-0.1-0.1-0.2-0.1-0.2-0.2c0,0,0-0.1,0-0.1l-0.1-0.1c0,0,0-0.1,0-0.1c0,0,0-0.1,0-0.1
	c0-0.1,0-0.1,0-0.2c0.1,0,0.1-0.1,0.2-0.2c0,0,0.1,0,0.1,0l0,0c0,0,0.1,0,0.1,0c0,0,0.1-0.1,0.1-0.1h0.1c0,0,0-0.1,0-0.1
	c0,0,0.1,0,0.1,0c0.1,0,0.2,0,0.2-0.1l0,0c0.1,0,0.1-0.1,0.2-0.1l0.1-0.1h0.1c0,0,0.1-0.1,0.1-0.1l0,0c0,0,0-0.1,0-0.1h0.1
	c0.1-0.1,0.1-0.1,0.2-0.1c0,0,0.1,0,0.1,0c0.2,0,0.3-0.1,0.4-0.2c0.1,0,0.2-0.1,0.3-0.1c0.1,0,0.3,0,0.3-0.2c0-0.1,0-0.1,0-0.2
	c0.1,0,0.3-0.1,0.4-0.2c0.1,0,0.1-0.1,0.1-0.2c0-0.1,0-0.1,0-0.2c0-0.1-0.1-0.2-0.1-0.2c-0.1,0,0-0.1,0-0.1c0.1,0,0.1,0,0.2-0.1
	c0,0,0.1,0,0.1-0.1c0,0,0.1,0,0.1-0.1h0.1l0.1-0.1c0.1-0.1,0.3-0.1,0.4-0.1l0.3-0.1c0,0,0.1,0,0.2,0c0,0,0.1,0,0.1,0h0.2
	c0,0,0-0.1,0-0.1c0,0-0.1,0-0.1,0c0,0,0-0.1,0-0.1c0,0,0,0,0,0l0,0V8.4l0,0c0-0.1,0,0,0-0.1c0,0,0.1,0,0.1,0c0,0,0,0,0,0
	c0,0,0-0.1,0-0.1c0,0,0.1,0,0.1,0.1l0.1-0.1c0,0,0.1,0,0.1,0L22.2,8c0,0,0.1,0,0.1,0c0,0,0,0,0-0.1l0,0c0.3-0.1,0.3-0.1,0.3-0.2
	c0,0-0.1,0-0.1,0s0-0.1,0-0.1c0,0,0,0,0.1,0l0,0c0-0.1,0.1-0.1,0.1-0.1c0,0,0,0,0-0.1c0.1,0,0.1,0,0.1-0.1c0-0.1,0.1-0.1,0.1-0.1
	c0,0,0.1-0.1,0.1-0.1c0.1,0,0.2-0.1,0.2-0.1l0.2-0.3C23.5,6.6,23.5,6.5,23.5,6.4z M16.8,10c-0.2,0.3-0.4,0.5-0.6,0.7
	c0,0.1-0.1,0.1-0.2,0.1L15.8,11h-0.2c-0.1,0-0.1,0-0.1,0c-0.1,0-0.1,0-0.1-0.1c0,0,0-0.1,0-0.1c0,0,0-0.1,0-0.1h0.1
	c0,0,0-0.1,0.1-0.1c0,0,0-0.1,0-0.1c0-0.1,0-0.3,0-0.4c0-0.1,0-0.2,0.1-0.3c0-0.1,0-0.1,0-0.2c0-0.2,0.1-0.3,0.1-0.5l0,0
	c0,0,0.1-0.1,0.1-0.1l0.1-0.1h0.1c0,0,0,0,0.1,0h0.1c0,0,0,0,0-0.1h0.1c0,0,0.1-0.1,0.1-0.1c0,0,0.1,0,0.1,0l0.2-0.1
	c0.1-0.1,0.1,0,0.1,0.1v0.9C16.7,9.8,16.8,9.8,16.8,10L16.8,10z M22.4,6.9c0,0,0,0.1,0,0.1c-0.1,0.1-0.1,0.1-0.2,0.2
	c0,0,0,0.1,0,0.1l0,0c-0.1,0-0.2,0.1-0.3,0.2c0,0-0.1,0.1-0.1,0.1l0,0c0,0-0.1,0.1,0,0.1s0.1,0.1,0,0.1s-0.1-0.1-0.1,0
	c0,0-0.1,0.1-0.1,0.1c0,0,0,0-0.1,0l0,0c0,0-0.1,0-0.1,0.1c-0.1,0-0.2,0.1-0.2,0.1c-0.2,0.1-0.4,0.2-0.6,0.3c-0.1,0-0.2,0.1-0.3,0.2
	h-0.2c-0.1,0-0.1,0-0.2,0.1c-0.1,0-0.1,0.1-0.2,0.1l-0.2,0.1c0,0,0,0,0,0.1c0,0,0,0.1-0.1,0.1l0,0c0,0-0.1,0-0.1-0.1c0,0,0,0,0.1,0
	c0,0,0-0.1,0-0.1l0,0l0,0c0,0,0-0.1,0-0.1c0,0,0-0.1,0-0.1c0,0,0-0.1,0-0.1c0,0,0.1,0,0.1,0V8.3c0,0,0,0.1,0,0.1l0,0
	c0,0,0,0.1,0,0.1h0.1c0,0,0,0,0-0.1l0,0c0,0,0.1-0.1,0.1-0.1c0,0,0-0.1,0-0.1c0,0,0.1-0.1,0-0.1c0,0-0.1,0-0.1-0.1l0,0V7.9h0
	c0,0,0,0.1-0.1,0.1s0,0,0-0.1l0.1-0.1c0-0.1,0-0.2,0-0.3c0-0.1,0-0.1,0-0.2c0,0,0-0.1,0-0.1c0,0,0-0.1,0-0.1l0,0c0,0,0-0.1,0-0.1
	c0-0.1,0.1,0,0.1,0c0-0.1,0-0.2,0-0.2l0,0c0,0,0.1,0,0.1,0c0,0,0-0.1,0.1-0.1L20,6.8c0.1,0,0.3,0,0.4,0c0.1,0,0.2-0.1,0.3-0.1
	c0.1-0.1,0.2-0.1,0.3-0.1c0,0,0.1,0,0.1,0l0.1-0.1h0.2c0.1,0,0.2,0,0.2,0c0.1,0,0.2,0,0.3,0c0.1,0.1,0.2,0.2,0.2,0.3
	C22.4,6.8,22.4,6.8,22.4,6.9L22.4,6.9z"/>
<path class="st0" d="M19.6,8.8L19.6,8.8z"/>
<path class="st0" d="M18.4,9.5C18.3,9.5,18.3,9.5,18.4,9.5L18.4,9.5L18.4,9.5C18.3,9.6,18.4,9.6,18.4,9.5L18.4,9.5L18.4,9.5z"/>
<path class="st0" d="M18.4,9.5L18.4,9.5z"/>
<path class="st0" d="M20.6,13.1L20.6,13.1z"/>
<path class="st0" d="M18.1,9.6L18.1,9.6z"/>
<circle class="st2" cx="24.9" cy="2.6" r="2.1"/>
<path class="st0" d="M24.1,3.7V1.5H25c0.1,0,0.3,0,0.4,0.1c0.1,0,0.2,0.1,0.2,0.2c0.1,0.1,0.1,0.2,0.1,0.3c0,0.1-0.1,0.3-0.1,0.4
	c-0.1,0.1-0.3,0.2-0.5,0.2c0.1,0,0.1,0.1,0.2,0.1c0.1,0.1,0.2,0.2,0.3,0.3L26,3.7h-0.4l-0.3-0.4l-0.2-0.3c0-0.1-0.1-0.1-0.1-0.1
	l-0.1-0.1h-0.5v0.9L24.1,3.7L24.1,3.7z M24.3,2.5h0.6c0.1,0,0.2,0,0.3,0c0.1,0,0.1-0.1,0.2-0.1c0-0.1,0.1-0.1,0.1-0.2
	c0-0.1,0-0.2-0.1-0.2c-0.1-0.1-0.2-0.1-0.4-0.1h-0.7L24.3,2.5L24.3,2.5L24.3,2.5z"/>
</svg>
