<svg id="图层_1" data-name="图层 1" xmlns="http://www.w3.org/2000/svg" viewBox="0 0 51.79 54.06"><defs><style>.cls-1{fill:#b1b1b1;}.cls-2{fill:#040000;}</style></defs><title>logo_g</title><path class="cls-1" d="M0,44.41v10H45.14v-10H0ZM5.32,45.8c-1.56-.16-3.19.42-3.56,2.13H5.32v1H1.77C2,50.79,3.48,51.51,5.32,51.35v0.87c-2.77.25-4.6-1.43-4.6-3.66V48.25a3.66,3.66,0,0,1,3.91-3.39H5.32V45.8Zm6.56,6.41h-1v-3A1.56,1.56,0,0,0,9.24,48H9.16a1.61,1.61,0,0,0-1.61,1.61h0A1.69,1.69,0,0,0,9,51.49H9.24a1.74,1.74,0,0,0,1.26-.71h0.07v1.13a2.45,2.45,0,0,1-1.33.46H9.15A2.54,2.54,0,0,1,6.7,49.76V49.69a2.5,2.5,0,0,1,2.36-2.63H9.41a2.29,2.29,0,0,1,2.47,2.1h0v3.06h0ZM17.22,51a1.38,1.38,0,0,1-1.47,1.28H13.07V51.42h2.56c1,0,.76-0.73.28-0.94-1.07-.48-2.77-0.6-2.82-1.94s1.53-1.34,1.53-1.34H17v0.92H14.5c-0.64.07-.77,0.77,0.36,1.07s2.36,0.57,2.36,1.72V51Zm5.6-.72a2,2,0,0,1-1.62,2v2.09h-1V52.35a2,2,0,0,1-1.63-2V47.21H19.5v3.15a1.16,1.16,0,1,0,2.32-.15v-3h1v3.07ZM27,45.76H26.2a0.84,0.84,0,0,0-.83.85h0V47.2h1.47v0.89h-1.5v4.14H24.42V46.5a1.64,1.64,0,0,1,1.64-1.64H27v0.89h0Zm5.9,6.42h-1v-3a1.56,1.56,0,0,0-1.64-1.24h-0.1a1.61,1.61,0,0,0-1.61,1.61h0A1.69,1.69,0,0,0,30,51.43h0.21a1.74,1.74,0,0,0,1.26-.71h0.07v1.13a2.43,2.43,0,0,1-1.33.46H30.15a2.54,2.54,0,0,1-2.45-2.63h0A2.5,2.5,0,0,1,30,47h0.41a2.29,2.29,0,0,1,2.47,2.1h0v3.06Zm3.72-.83h1.06V52.2h-1a2.52,2.52,0,0,1,0-5h1v0.91h-1a1.62,1.62,0,0,0-1.48,1.55,1.59,1.59,0,0,0,1.38,1.69h0Zm4.8,1a2.56,2.56,0,0,1-2.62-2.44,2.61,2.61,0,0,1,2.4-2.81h0.36a2.54,2.54,0,0,1,2.29,1.6l-3.41,1.88L40,49.83l2.53-1.39A1.43,1.43,0,0,0,41.26,48a1.72,1.72,0,1,0,1.84,1.91L44,50a2.59,2.59,0,0,1-2.6,2.34h0Z" transform="translate(0 -0.36)"/><path class="cls-1" d="M19.52,22.75l-0.09-.12a0.13,0.13,0,0,1,0-.18c0.19-.09.11-0.08,0-0.19A3.71,3.71,0,0,0,18.56,22H18.4l-0.28-.09L18,22a0.79,0.79,0,0,0-.23-0.12l-0.14.07-0.22-.1a0.32,0.32,0,0,0-.1.1H16a1.11,1.11,0,0,0-.5,0H14.58c-0.51,0-1.13-.06-1.13-0.06a0.57,0.57,0,0,1-.07-0.37,0.46,0.46,0,0,0,0-.29V20.9a0.73,0.73,0,0,1,.1-0.3,1.66,1.66,0,0,0,0-.2h0V20a0.28,0.28,0,0,1,.1-0.22,0.53,0.53,0,0,0,0-.21,0.29,0.29,0,0,0,.11-0.24c-0.07-.12,0,0,0-0.12V18.39a0.21,0.21,0,0,1,0-.15,2,2,0,0,0,0-.36V17.34a0.93,0.93,0,0,1-.06-0.28c0-.21-0.36-0.14-0.44-0.14L13,17a0.6,0.6,0,0,0-.25.15c-0.14.1-.42,0.26-0.42,0.26l-0.47.3H11.72a0.38,0.38,0,0,1-.08.2l-0.2.12a0.7,0.7,0,0,0-.33.29,0.1,0.1,0,0,1-.18,0,0.38,0.38,0,0,1,0-.28A0.73,0.73,0,0,0,11,17.82a0.33,0.33,0,0,0,.14-0.31,0.74,0.74,0,0,1,.14-0.35,1.14,1.14,0,0,0,.12-0.43c0-.3.14-0.3,0.14-0.3a5.06,5.06,0,0,1,.09-0.52c0-.27.12-0.27,0.12-0.27a2.8,2.8,0,0,0,.13-0.82,0.74,0.74,0,0,1,0-.32A1.91,1.91,0,0,0,12,13.87a1.21,1.21,0,0,0-.29-0.56,0.09,0.09,0,0,1-.11-0.06h0a0.11,0.11,0,0,0-.13-0.09h0c-0.13,0-.13-0.07-0.13-0.07H11.09a0.26,0.26,0,0,1-.23.13,0.23,0.23,0,0,0-.09.16l-0.16.15c0,0.19-.06.19-0.06,0.19a0.18,0.18,0,0,0-.19.13,0.19,0.19,0,0,1,0,.17c-0.13.11,0,.11,0,0.11a0.42,0.42,0,0,1,.06.18,0.48,0.48,0,0,1-.09.43L10,14.92V15.2l-0.17.13a0.28,0.28,0,0,0-.07.18c-0.11.15,0,.15,0,0.15a0.16,0.16,0,0,1-.08.18A0.52,0.52,0,0,0,9.6,16a0.72,0.72,0,0,0-.27.43,0.25,0.25,0,0,1-.16.29,0.25,0.25,0,0,0,0,.2h0a0.08,0.08,0,0,1-.08.08,0.2,0.2,0,0,1-.14.18,0.47,0.47,0,0,0,0,.19h0a0.74,0.74,0,0,1-.13.45H8.74c0,0.16,0,.08-0.06.11l-0.07.23h0a0.07,0.07,0,0,0-.07.07,0.47,0.47,0,0,1-.07.12,4.35,4.35,0,0,1-.39.83V19.3H8v0.23H7.83a0.43,0.43,0,0,1,0,.18,0.37,0.37,0,0,1-.16.1c-0.13,0-.05,0,0,0.1a0.1,0.1,0,0,1-.06.14V20.2H7.51a0.44,0.44,0,0,0,0,.2,0.77,0.77,0,0,1-.12.14H7.29a0.21,0.21,0,0,1,0,.13,0.29,0.29,0,0,1,0,.17H7.17V21l-0.06.11H6.9a0.5,0.5,0,0,1,0,.13,0.39,0.39,0,0,1-.21.19,0.48,0.48,0,0,1,0,.28H6.6a0.27,0.27,0,0,1-.05.21,0.11,0.11,0,0,0,0,.11,0.18,0.18,0,0,0-.09.11,0.61,0.61,0,0,1-.06.27,1.15,1.15,0,0,0-.28.48A0.23,0.23,0,0,1,6,23a0.2,0.2,0,0,1-.08.18,0.35,0.35,0,0,0-.12.18,0.73,0.73,0,0,0-.07.24,0.76,0.76,0,0,0-.19.19,0.57,0.57,0,0,1-.28.37c-0.09.16-.67,1-0.67,1H4.45a8.56,8.56,0,0,1,.1-1.5,0.42,0.42,0,0,1,.1-0.33,3.66,3.66,0,0,0,.28-0.74,13.23,13.23,0,0,0,.4-2.08,1.22,1.22,0,0,0,0-.35C5.44,20,5.26,20,5.26,20a1,1,0,0,1,0-.21,1,1,0,0,1,0-.17,0.22,0.22,0,0,0-.06-0.17V19.34a0.27,0.27,0,0,1,.07-0.12c0.16,0,.08-0.08.08-0.08a0.1,0.1,0,0,1,0-.09h0a0.06,0.06,0,0,1,.07,0,1.45,1.45,0,0,0,0-.23c0-.1.07,0,0.07-0.1a0.78,0.78,0,0,0,0-.29,1.5,1.5,0,0,0,.09-0.19,0.44,0.44,0,0,0,0-.2,0.15,0.15,0,0,1,.05-0.1,1.77,1.77,0,0,0,0-.39,0.63,0.63,0,0,0,.06-0.22V17a0.22,0.22,0,0,1,0-.14,2.17,2.17,0,0,0,0-.42,1,1,0,0,0,.08-0.28c0.07-.24,0-0.27,0-0.24s-0.19.57-.2,0.6a0.67,0.67,0,0,0-.09.19,0.36,0.36,0,0,1-.11.18V17a0.35,0.35,0,0,1-.06.18,0.73,0.73,0,0,1-.11.16,0.66,0.66,0,0,1,0,.13,0.15,0.15,0,0,0,0,.11A2.3,2.3,0,0,1,5,18a1.08,1.08,0,0,0,0,.3,0.14,0.14,0,0,1-.14.09,0.22,0.22,0,0,0,0,.18,0.13,0.13,0,0,1,0,.17,0.33,0.33,0,0,0,0,.23,0.08,0.08,0,0,0,0,.06,0.41,0.41,0,0,1-.09.21H4.32a0.24,0.24,0,0,0-.17.08,0.32,0.32,0,0,1-.19,0H3.84a0.29,0.29,0,0,0-.18.12,0.12,0.12,0,0,0-.1,0,0.84,0.84,0,0,0-.16.14s-0.27-.08-0.27,0h0A0.15,0.15,0,0,1,3,19.7H2.83a0.32,0.32,0,0,1-.26.11H2.38a0.14,0.14,0,0,0,0,.13H2.12a0.22,0.22,0,0,0-.06.18H1.89c-0.09,0-.09.13-0.09,0.13H1.65v0.08l-0.2.07a0.59,0.59,0,0,0-.23.09,1.4,1.4,0,0,0-.18.3H0.77A4.11,4.11,0,0,1,.11,21v0.1a1,1,0,0,0,.18.6,0.09,0.09,0,0,0,0,.12h0A0.14,0.14,0,0,1,.49,22a0.67,0.67,0,0,0,.77,0A2.28,2.28,0,0,1,2,21.41a0.85,0.85,0,0,0,.3-0.21H2.56A0.51,0.51,0,0,1,2.82,21,0.28,0.28,0,0,1,3,21a5.69,5.69,0,0,1,.82-0.38c0.43-.17.24,0.49,0.24,0.49,0,0.19-.36,1.5-0.36,1.5H3.64a1.85,1.85,0,0,1,0,.52,1.57,1.57,0,0,1,0,.53c-0.22.08-.07,0.18-0.07,0.18h0a0.21,0.21,0,0,1,0,.3h0a0.2,0.2,0,0,0-.07.15,1.07,1.07,0,0,1,0,.42H3.39a1.45,1.45,0,0,1-.16.66H3.1v0.47A0.21,0.21,0,0,0,3,26a0.17,0.17,0,0,1-.13.13,0.39,0.39,0,0,1-.07.26H2.72a0.18,0.18,0,0,0-.09.24h0a0.9,0.9,0,0,1-.2.41c0,0.29-.09.29-0.09,0.29a1,1,0,0,0-.25.52c-0.28.4-.35,0.53-0.35,0.53H1.63v0.17a1.11,1.11,0,0,0-.26.82c0,0.54.3,0.54,0.3,0.54A2.74,2.74,0,0,1,2,29.5a0.38,0.38,0,0,1,.2,0c0.09,0,0-.16,0-0.16l0.49-.44A2.77,2.77,0,0,0,3,28.38,3.78,3.78,0,0,0,3.38,28c0.24-.37.35,0,0.35,0a4.13,4.13,0,0,0,.07.48A3.44,3.44,0,0,0,4.32,30c0.13,0.15.08,0.15,0.08,0.15a1.11,1.11,0,0,0,.27.44,0.17,0.17,0,0,0,.18.14,0.54,0.54,0,0,1,.08.25,0.23,0.23,0,0,0,.17,0c0.39,0.46.59,0.33,0.59,0.33a0.91,0.91,0,0,0-.06-0.7c-0.2-.34,0-0.4,0-0.4a0.57,0.57,0,0,0-.07-0.3c-0.31,0-.31-0.54-0.31-0.54A0.47,0.47,0,0,0,5.07,29a4.69,4.69,0,0,0-.2-0.61,0.27,0.27,0,0,0-.12-0.28,4.41,4.41,0,0,0,0-.65,0.7,0.7,0,0,1-.07-0.29c-0.06-.78.09-0.7,0.16-0.78a0.51,0.51,0,0,0,0-.3H5c0.09-.59.32-0.47,0.32-0.47a0.43,0.43,0,0,1,.13-0.36,0.3,0.3,0,0,1,.2-0.2c0.07-.38.2-0.24,0.2-0.24a1.84,1.84,0,0,0,0-.36H6.06c0-.27.13-0.18,0.13-0.18,0-.22.1-0.22,0.1-0.22,0-.33.15-0.24,0.15-0.24a2.31,2.31,0,0,0,0-.33c0.12-.23.53-0.9,0.53-0.9a0.66,0.66,0,0,0,.14-0.22c0.1-.12.57-0.85,0.57-0.85A1.1,1.1,0,0,1,8,20.89a1.17,1.17,0,0,1,.07-0.26,0.13,0.13,0,0,0,.06-0.15c-0.14,0,.08-0.24.08-0.24a6,6,0,0,1,.38-0.66c0.17-.5.35-1,0.35-1a2.42,2.42,0,0,1,.53-0.87A0.93,0.93,0,0,1,9.66,17V16.8a0.73,0.73,0,0,1,.14-0.14,3,3,0,0,0,.2-0.45C9.91,16,10,16.11,10,16s0.25,0,.13-0.07,0.12-.24.12-0.24a0.43,0.43,0,0,1,.14-0.32,0.42,0.42,0,0,0,.13-0.29c0.27-.66.33-0.2,0.33-0.2a7.06,7.06,0,0,1-.31,1.52c-0.07.45-.65,2.35-0.65,2.35-0.32,1.5-.6,2.93-0.6,2.93a1.78,1.78,0,0,0-.85,1.22c-0.25,0-.18.32-0.18,0.32a0.52,0.52,0,0,1,.21.43,0.85,0.85,0,0,0,.4.68,2.68,2.68,0,0,1-.15,1.31,2.26,2.26,0,0,1-.06.58C8.43,26.86,8.72,27,8.72,27c0.29,0.4,0,.52,0,0.52a0.87,0.87,0,0,0,.17,1.1c0.49,0.3.56,0.13,0.56,0.13l0.21,0.11,0.17-.1c0.37-.16.27,0,0.27,0a0.77,0.77,0,0,1-.19.41,0.8,0.8,0,0,1-.4.55C9.41,30.07,9.29,30,9.29,30a0.38,0.38,0,0,1-.32.26c0,0.27-.13.27-0.13,0.27a0.38,0.38,0,0,1-.17.25,1.67,1.67,0,0,0,0,.82h0a0.21,0.21,0,0,1,.15.26h0a1,1,0,0,0,1-.08,0.76,0.76,0,0,1,.48-0.13,0.66,0.66,0,0,0,.4-0.12c0.44,0.11.44-.12,0.44-0.12,0.39,0,.39-0.14.39-0.14,0.48,0,.38.13,0.38,0.13,0.09,0.89-1.42,1.8-1.42,1.8,0,0.3-.16.25-0.16,0.25a0.61,0.61,0,0,1-.45.36,1,1,0,0,1-.24.16,0.13,0.13,0,0,1-.13.13h0a0.46,0.46,0,0,0-.23.25L9,34.51l-0.15.21c-0.93.93-.88,0.53-0.93,0.61s0.08,0.06,0,.15a0.22,0.22,0,0,1-.17.08,0.56,0.56,0,0,0-.14.23H7.48l-0.35.37a1.11,1.11,0,0,0-.35.2c-0.1-.06-0.1.12-0.1,0.12a1.11,1.11,0,0,0-.76.8,1,1,0,0,0-.25,1,0.73,0.73,0,0,0,.75,0A1.13,1.13,0,0,1,7,38a4.37,4.37,0,0,1,.86-0.17,8.86,8.86,0,0,1,1.46-.27,0.72,0.72,0,0,0,.56-0.15,1.45,1.45,0,0,1,.44-0.08,1,1,0,0,1,.43-0.09l0.36-.11A1.36,1.36,0,0,1,11.39,37a7.31,7.31,0,0,1,.85-0.28,0.37,0.37,0,0,1,.25-0.09,0.23,0.23,0,0,1,.24-0.09,1.63,1.63,0,0,0,.38-0.18l0.39-.19A0.5,0.5,0,0,0,13.71,36a0.39,0.39,0,0,1,.22,0,0.43,0.43,0,0,0,.18-0.2,0.18,0.18,0,0,1,.17-0.1c0.29-.29.37-0.13,0.37-0.13,0.14,0.45,0,.53,0,0.53a0.88,0.88,0,0,0,0,.57,5.48,5.48,0,0,1-.15.62,0.51,0.51,0,0,0-.15.45H14.28a0.15,0.15,0,0,0,0,.21h0a0.47,0.47,0,0,0,.66,0,0.55,0.55,0,0,0,.49-0.11,1.88,1.88,0,0,0,1-1,1,1,0,0,1,.44-0.53c0.38-.71,0-0.89,0-0.89a2.68,2.68,0,0,0-.81-0.73A0.69,0.69,0,0,1,16,34.57a1,1,0,0,0-.3,0,2.11,2.11,0,0,1-.41-0.12,0.3,0.3,0,0,0-.23.12,0.47,0.47,0,0,1-.21,0,0.45,0.45,0,0,0-.15.27c0,0.06-.09,0-0.09,0a0.1,0.1,0,0,0,0,.1,0.25,0.25,0,0,0-.2.11,0.32,0.32,0,0,1-.09.18,0.77,0.77,0,0,1-.39.26l-0.51.24a0.85,0.85,0,0,0-.32.12,0.52,0.52,0,0,0-.3.15,1,1,0,0,0-.33,0,1.09,1.09,0,0,1-.79.23,0.14,0.14,0,0,1-.15.12h-0.3a0.45,0.45,0,0,1-.32.09l-0.38.06H10a0.1,0.1,0,0,0-.07.09c-0.25-.06-0.25,0-0.25,0H9c-0.43,0-.38.12-0.38,0.12a2.2,2.2,0,0,1-.55,0c0-.14-0.19,0-0.19,0a0.83,0.83,0,0,1-.49,0,0.42,0.42,0,0,1,.27-0.25L8,36.27A1.35,1.35,0,0,0,8.28,36l0.22-.14V35.75H8.57a2.72,2.72,0,0,0,.34-0.42,0.27,0.27,0,0,1,.22-0.11,0.17,0.17,0,0,0,0-.12,0.16,0.16,0,0,1,.12,0l0.22-.2,0.07-.11A2.42,2.42,0,0,0,10,34.37a0.25,0.25,0,0,1,.14,0,1.5,1.5,0,0,1,.28-0.25,1.84,1.84,0,0,1,.27-0.19l0.22-.13a0.48,0.48,0,0,0,0-.11L11,33.53h0.13l0.08-.1,0.26-.16c0.07,0,.07-0.12.07-0.12a3,3,0,0,0,.51-0.51,2.16,2.16,0,0,1,.31-0.32,1.21,1.21,0,0,0,.31-0.41c0-.23.1-0.23,0.1-0.23A1.2,1.2,0,0,0,13.14,31a1.33,1.33,0,0,0-.93-0.55,0.88,0.88,0,0,0-.54,0,1,1,0,0,0-.3.06,1,1,0,0,0-.27,0v0.12H10.89c-0.06.11-.09,0.11-0.15,0s-0.15,0-.15,0h0a0.1,0.1,0,0,1-.14,0,0.11,0.11,0,0,1,0-.15,0.14,0.14,0,0,0,.15,0,0.37,0.37,0,0,0,.07-0.22,0.24,0.24,0,0,1,.13-0.1c0.06,0.11.12,0.07,0.12,0a0.05,0.05,0,0,1,.07,0,0.18,0.18,0,0,1,0-.25l0.12-.18a0.48,0.48,0,0,0,.22-0.19,0.13,0.13,0,0,1,.11-0.14,2.31,2.31,0,0,0,.18-0.29h0A0.1,0.1,0,1,1,11.79,29a0.13,0.13,0,0,1,.11-0.15h0a0.82,0.82,0,0,0,.2-0.17c0-.14,0-0.14.11-0.14a0.27,0.27,0,0,0,.09-0.21,0.53,0.53,0,0,0,.21-0.19,1.19,1.19,0,0,0,.24-0.26c0.23-.14.16-0.27,0.16-0.27a0.35,0.35,0,0,1-.09-0.31,2,2,0,0,0-.37-0.3c-0.07,0-.11.08-0.23-0.07a0.22,0.22,0,0,0-.24-0.1H11.84l-0.07-.07a0.1,0.1,0,0,0-.08.1H10.86a0.3,0.3,0,0,0-.22.15c0,0.07-.09,0-0.09,0-0.24,0-.24-0.11-0.24-0.11a0.23,0.23,0,0,1,.17-0.18,0.82,0.82,0,0,1,.31-0.36h0a0.16,0.16,0,0,1,.15-0.17h0A0.21,0.21,0,0,0,11.07,26a0.81,0.81,0,0,0,.27-0.27,0.81,0.81,0,0,1,0-.2,1.2,1.2,0,0,1,.3-0.16,1.15,1.15,0,0,0,.2-0.32,0.12,0.12,0,0,0,.06-0.13v-0.1a0.18,0.18,0,0,1,.2-0.15,0.35,0.35,0,0,0,.19-0.21,0.23,0.23,0,0,0,0-.2,0.21,0.21,0,0,0,0-.18,0.75,0.75,0,0,0,.17-0.3,0.55,0.55,0,0,0,0-.37,0.34,0.34,0,0,0-.16-0.22,0.14,0.14,0,0,0-.1,0A0.87,0.87,0,0,0,12,23a3.42,3.42,0,0,1-.33-0.3l-0.26-.1a2.2,2.2,0,0,0-.53-0.3V22c0-.19.33-0.07,0.33-0.07H12L12.28,22a3.58,3.58,0,0,0,.57,0v1.09a1.12,1.12,0,0,0,.09.79,0.32,0.32,0,0,0,.07.29,1.19,1.19,0,0,0,.31.66,0.45,0.45,0,0,0,.2.08,0.53,0.53,0,0,0,.4.2A1.65,1.65,0,0,0,15,25h0.4a6.94,6.94,0,0,0,1.51-.55,0.56,0.56,0,0,0,.41-0.25c0.36,0,.28-0.12.28-0.12A0.75,0.75,0,0,0,17.86,24a1.41,1.41,0,0,1,.53-0.25,0.31,0.31,0,0,0,.24-0.14c0.15-.15.22-0.09,0.22-0.09a1.2,1.2,0,0,1,.27-0.17,0.75,0.75,0,0,1,.44-0.42c0.13,0,.06-0.17.06-0.17A0.09,0.09,0,0,0,19.52,22.75Zm-8.65,2a2.58,2.58,0,0,1-.18.39,1,1,0,0,0-.25.24c0,0.11-.19.25-0.14,0a3.26,3.26,0,0,0,.27-0.54,2.25,2.25,0,0,0,.12-0.46c0-.1.11-0.11,0.18,0a0.44,0.44,0,0,1,0,.38h0Zm2.48-6.17s-0.1,1-.14,1.17a0.26,0.26,0,0,1,.1.13,0.49,0.49,0,0,0-.15.17V20.7a1.3,1.3,0,0,1,0,.2c0,0.09-.09.47-0.09,0.59a0.21,0.21,0,0,1-.21.18H11.29c-0.11,0-.19-0.11-0.14-0.31h0c0-.07.23-1.11,0.21-1.21a4.68,4.68,0,0,0,.36-0.48A17.33,17.33,0,0,1,13,18.26a0.23,0.23,0,0,1,.2-0.26h0a0.54,0.54,0,0,1,.16.59h0ZM17.52,23a1,1,0,0,1-.47.29,0.56,0.56,0,0,1-.37.16,0.71,0.71,0,0,1-.31.18,0.31,0.31,0,0,0-.33.09,2.07,2.07,0,0,0-.5.15,4.17,4.17,0,0,1-.89.13,1.3,1.3,0,0,1-.73-0.11s-0.29-.06-0.3-0.83V22.32c0-.08-0.12-0.17,0-0.16h0a3.83,3.83,0,0,1,1,.13s1,0.08,1.27.14c0,0,.4.06,0.49,0.06a0.34,0.34,0,0,0,.36,0,0.32,0.32,0,0,0,.28.14,1.18,1.18,0,0,0,.29.15,0.7,0.7,0,0,1,.21.19S17.6,23,17.52,23Z" transform="translate(0 -0.36)"/><path class="cls-1" d="M13.58,20.36h0Z" transform="translate(0 -0.36)"/><path class="cls-1" d="M4.88,6.46a0.08,0.08,0,0,1-.08.08,0.46,0.46,0,0,0,.07.21c0,0.09.27,0.48,0.27,0.55a1,1,0,0,0,.11.2,0.21,0.21,0,0,0,.13.09A1.11,1.11,0,0,0,6.14,8a0.75,0.75,0,0,0,.45.14A0.84,0.84,0,0,0,7,7.92l0.19-.13a1.06,1.06,0,0,0,.09-0.17,2.32,2.32,0,0,0,.27-0.38A0.43,0.43,0,0,0,7.65,7a0.19,0.19,0,0,0,0-.17,0.38,0.38,0,0,0,.13-0.15A1.1,1.1,0,0,0,8,6.4a0.28,0.28,0,0,0,0-.17,0.91,0.91,0,0,1-.2.23,0.11,0.11,0,0,0-.1.07,1.6,1.6,0,0,1-.22.24,0.28,0.28,0,0,0-.17.12A0.32,0.32,0,0,1,7.1,7a1.26,1.26,0,0,1-.37.11,0.86,0.86,0,0,1-.27,0A0.18,0.18,0,0,0,6.31,7,0.34,0.34,0,0,0,6,6.89a0.38,0.38,0,0,0-.26-0.2,1,1,0,0,1-.25-0.42C5.3,6,5.21,5.27,5.07,5.16A0.63,0.63,0,0,1,5,4.84v0.1a5.77,5.77,0,0,0-.17.94,1.28,1.28,0,0,0,0,.28,0.43,0.43,0,0,0,.07.25A0.08,0.08,0,0,1,4.88,6.46Z" transform="translate(0 -0.36)"/><path class="cls-2" d="M0.43,13.89h0a1.17,1.17,0,0,0,0-.12v0.11h0Z" transform="translate(0 -0.36)"/><path class="cls-1" d="M0.54,14.93a0.52,0.52,0,0,0,0,.19,0.28,0.28,0,0,1,.13.16,0.66,0.66,0,0,0,.32.21,0.17,0.17,0,0,1,.17.09H1.35l0.14,0.15a0.09,0.09,0,0,0,0-.07,0.34,0.34,0,0,1,.26,0v0.08H2.23a0.36,0.36,0,0,1,.2,0,0.5,0.5,0,0,0,.18.1,0.25,0.25,0,0,0,.14,0H2.88A0.35,0.35,0,0,0,3,15.68H3.2a0.38,0.38,0,0,1,.11-0.1H3.47l0.25-.09a8.64,8.64,0,0,0,1.1-.38A1.05,1.05,0,0,0,5.15,15a0.16,0.16,0,0,0,.09-0.11,0.19,0.19,0,0,1,.16,0V15a0.33,0.33,0,0,0,.11-0.14,0.86,0.86,0,0,1,.21-0.15l0.1,0.07V14.67a0.14,0.14,0,0,1,.08-0.09L6,14.49a0.2,0.2,0,0,0,.09-0.09,0.78,0.78,0,0,1,.3-0.06,1.4,1.4,0,0,1,.39-0.22A0.1,0.1,0,0,0,6.91,14h0a1.06,1.06,0,0,0,.29,0,0.3,0.3,0,0,1,.11-0.11,1.49,1.49,0,0,1,.23-0.2,0.15,0.15,0,0,0,.12,0,0.46,0.46,0,0,1,.14-0.15,2,2,0,0,0,.29-0.21H8.41a0.61,0.61,0,0,0,.25-0.27,0.28,0.28,0,0,1,0-.09,0.76,0.76,0,0,0,.23,0,0.34,0.34,0,0,0,0-.15,1.06,1.06,0,0,1,.3,0,0.22,0.22,0,0,0,.09-0.13h0.1a0.74,0.74,0,0,0,.27-0.34,0.28,0.28,0,0,1,.28,0,0.28,0.28,0,0,0,.23-0.09,0.33,0.33,0,0,0,0-.08h-0.1a0.15,0.15,0,0,1,.1-0.14c0.08,0,.11-0.06.13,0a0.35,0.35,0,0,0,0,.11s0.32-.27.44-0.35a4.76,4.76,0,0,1,.46-0.32,0.11,0.11,0,0,0,.11,0,0.72,0.72,0,0,0,.27-0.18H12.5l0.38-.07a0.46,0.46,0,0,1,.23,0,0.06,0.06,0,0,0,.06.06h0c0.07,0,.2-0.17.26-0.17s0,0.06.09,0.06,0-.1,0-0.15,0.06,0,.09,0a0.3,0.3,0,0,1,.19,0,0.7,0.7,0,0,1,.33-0.29h0.1a4.25,4.25,0,0,1,.64-0.41,1.86,1.86,0,0,1,.63-0.19,0.42,0.42,0,0,0,.29-0.3A0.35,0.35,0,0,1,16,9.66a0.3,0.3,0,0,0,.1-0.19,0.25,0.25,0,0,1,0-.17A0.55,0.55,0,0,0,15.83,9a0.18,0.18,0,0,0-.08-0.13,0.29,0.29,0,0,1-.2-0.06c-0.1-.11-0.07-0.2-0.19-0.2a0.83,0.83,0,0,0-.46.08H14.63l-0.17.09a2.06,2.06,0,0,0-.54.35,1.89,1.89,0,0,0-.88.51,0.51,0.51,0,0,0-.38.17,2.93,2.93,0,0,0-.63.45,0.48,0.48,0,0,0-.39.19,6.78,6.78,0,0,0-.73.4,0.2,0.2,0,0,0-.22.1l-0.27.23a0.45,0.45,0,0,0-.38.24,1,1,0,0,1-.24.14,0.37,0.37,0,0,0-.34.11s-0.72.4-.89,0.53a0.27,0.27,0,0,1-.18,0v0.08a0.39,0.39,0,0,0-.18,0l-0.13.16H8c-0.06,0,.06.06-0.07,0.12a2.67,2.67,0,0,0-.45.23H7.31l-0.15.11a0.37,0.37,0,0,0-.16,0,0.3,0.3,0,0,1-.1.1,0.39,0.39,0,0,1-.18.11,0.92,0.92,0,0,0-.56.23H6a0.79,0.79,0,0,0-.16.15H5.31a5.39,5.39,0,0,1-.6.19H4.53c-0.06,0,0,.08,0,0.08a0.26,0.26,0,0,0-.13,0,0.11,0.11,0,0,0-.06.11,3.63,3.63,0,0,1-.82.33,0.43,0.43,0,0,0-.27.07H3l-0.24.06H2.59a0.25,0.25,0,0,1-.13.11,1,1,0,0,1-.46,0,2.67,2.67,0,0,0-.57,0A1.88,1.88,0,0,1,1,14.38l-0.27-.13A1.76,1.76,0,0,1,.44,13.9a1.17,1.17,0,0,1,0,.52,0.54,0.54,0,0,0,0,.22,0.25,0.25,0,0,1,0,.19A0.12,0.12,0,0,0,.54,14.93Z" transform="translate(0 -0.36)"/><path class="cls-1" d="M12.07,7.14L12.38,7l0.41-.19a0.52,0.52,0,0,0,.34-0.15,0.36,0.36,0,0,0,.23,0c0-.06,0-0.1.05-0.1h0.16a17,17,0,0,0,1.55-.85c0.08-.07.51-0.31,0.67-0.45a2.91,2.91,0,0,0,.84-1.18,0.45,0.45,0,0,0,0-.13h0V3.84a0.54,0.54,0,0,0,.13-0.14V3.36a0.68,0.68,0,0,0,.06-0.14,1.84,1.84,0,0,0,0-.64s-0.08-.23-0.12-0.33-0.06-.19-0.16-0.17V2a0.46,0.46,0,0,1,0,.21,0.41,0.41,0,0,0-.15.33V2.63a1.85,1.85,0,0,1-.15.55,0.25,0.25,0,0,0-.06.16,2.4,2.4,0,0,0-.17.38,7,7,0,0,1-.56.6l-0.67.52-0.11.1a1.89,1.89,0,0,0-.43.3,0.49,0.49,0,0,0-.29.18,0.11,0.11,0,0,0-.11.17c0.07,0.17.15,0.07,0,.18l-0.2.1h-0.1a0.09,0.09,0,0,1,0-.1h0a0.24,0.24,0,0,0-.07.11,0.18,0.18,0,0,1-.18.06s-0.22.16-.16,0.2a0.05,0.05,0,0,1,0,.07l0,0a0.13,0.13,0,0,1-.09,0H12.92a0.71,0.71,0,0,0-.29.11,0.23,0.23,0,0,1-.18.09,0.12,0.12,0,0,0-.08.14,0.2,0.2,0,0,1-.07.17,0.13,0.13,0,0,1-.12.07A0.43,0.43,0,0,1,12,7s-0.15,0,0,.11Z" transform="translate(0 -0.36)"/><path class="cls-1" d="M39.33,24.82h0Z" transform="translate(0 -0.36)"/><path class="cls-1" d="M37.54,16.3a0.2,0.2,0,0,0,0,0h0v0Z" transform="translate(0 -0.36)"/><path class="cls-1" d="M37.6,16a1.41,1.41,0,0,1,0-.18s0-.06-0.06,0a0.43,0.43,0,0,1,0,.18,0.09,0.09,0,0,0,0,.08V16.3a0.2,0.2,0,0,1,.06-0.08A1.09,1.09,0,0,0,37.6,16Z" transform="translate(0 -0.36)"/><path class="cls-1" d="M45,11.71A1.47,1.47,0,0,0,44,11a0.4,0.4,0,0,1-.29-0.16A4.46,4.46,0,0,0,43,10.73H39.57a0.32,0.32,0,0,1-.21.18,0.64,0.64,0,0,1-.27-0.09l-0.17.07a1.45,1.45,0,0,0-.3.07,0.26,0.26,0,0,1-.15,0l-0.15,0a0.36,0.36,0,0,1-.44.12,0.75,0.75,0,0,1,0,.15H37.73a0.24,0.24,0,0,1-.25,0,0.26,0.26,0,0,1-.21.11,0.16,0.16,0,0,1-.16-0.08,0.36,0.36,0,0,0-.21.1,1.46,1.46,0,0,0-.34.08l-0.4.16a0.11,0.11,0,0,1-.12.09,1,1,0,0,0-.45.25H35.43a0.09,0.09,0,0,1-.11.06l0,0a0.31,0.31,0,0,1,0-.4l0.09-.54c0.07-.29-0.13-0.29-0.13-0.29a3.08,3.08,0,0,0,0-.56,0.19,0.19,0,0,0-.1-0.19,5.88,5.88,0,0,0-.53-0.75,0.11,0.11,0,0,1,0-.2A0.27,0.27,0,0,0,34.77,9a0.54,0.54,0,0,0,.31-0.1,0.23,0.23,0,0,0,.24,0l0.39-.08a0.27,0.27,0,0,0,.32,0l0.81-.15a5.4,5.4,0,0,1,1-.06c0.33-.08.08-0.2,0.08-0.2-0.22,0-.1-0.25-0.08-0.31s-0.06,0-.2-0.06l-0.79-.3a3,3,0,0,1-.91-0.91,7.75,7.75,0,0,1-.87-0.41L34.2,6.25a8.68,8.68,0,0,1-2.83-.57v0.1a0.51,0.51,0,0,0-1-.16,0.4,0.4,0,0,0,0,.23,0.5,0.5,0,0,1,0,.14,2.07,2.07,0,0,1-.08.23V6.34l-0.08.09a0.07,0.07,0,0,0,0,.13l0.06,0.06a0.15,0.15,0,0,1,0,.16,0.17,0.17,0,0,0,0,.19,1.64,1.64,0,0,0,.15.3,1.16,1.16,0,0,1,.06.22h0.09l0.07,0.18a0.66,0.66,0,0,0,.24.16C31,8,31.54,8.55,31.54,8.55a2.58,2.58,0,0,0,.55.07c0.18,0,.1.45,0.1,0.45a5.18,5.18,0,0,1-.11.87c0,0.25-.14,1.25-0.14,1.25a0.83,0.83,0,0,0-.06.29V12a0.27,0.27,0,0,0,0,.22,0.34,0.34,0,0,1,0,.25,0.64,0.64,0,0,0,0,.29,0.33,0.33,0,0,1-.11.34,11.94,11.94,0,0,1-1.09.63,0.69,0.69,0,0,0-.38.17,2.94,2.94,0,0,1-.41.14l-0.75.27a1,1,0,0,1-.34,0,10,10,0,0,0-.8-0.65,2.11,2.11,0,0,0-.51-0.35h0a0.15,0.15,0,0,0-.14.16h0a0.59,0.59,0,0,1-.14.3,1.52,1.52,0,0,0,0,.32,0.71,0.71,0,0,1-.13.62,0.47,0.47,0,0,0-.28.1,0.23,0.23,0,0,1-.19,0,1.12,1.12,0,0,0-.4.06,4.06,4.06,0,0,1-.66.09h-1l-0.38-.06a0.54,0.54,0,0,0-.11-0.47H23.86a0.18,0.18,0,0,0-.18-0.17,0.2,0.2,0,0,1,0-.09,0.22,0.22,0,0,0-.2,0l-0.23.08H23.11v0.09a0.84,0.84,0,0,1-.15.13v0.37a3.1,3.1,0,0,1-.18.28,1.27,1.27,0,0,1-.14.25,0.53,0.53,0,0,0,0,.21,0.4,0.4,0,0,1-.14.13,1.63,1.63,0,0,1,0,.38,0.52,0.52,0,0,0-.12.12v0.26a0.19,0.19,0,0,1-.09.14,0.66,0.66,0,0,0,0,.24v0.26a1.5,1.5,0,0,1,.08.32v0.18a0.15,0.15,0,0,1,0,.11,1.75,1.75,0,0,0,0,.35,3.14,3.14,0,0,0,.1.43,0.36,0.36,0,0,1,.13.33,0.31,0.31,0,0,0,.23.24,0.25,0.25,0,0,1,.15.11,1.63,1.63,0,0,1,.34.11,0.51,0.51,0,0,0,.38,0,0.41,0.41,0,0,1,.23.1,1,1,0,0,1,.26,0c0.09,0,.41-0.06.41-0.06a0.19,0.19,0,0,1,.15-0.13l0.16-.2a0.13,0.13,0,0,1,.16,0,3.06,3.06,0,0,0,.13-0.74,3,3,0,0,0-.32-0.48,0.49,0.49,0,0,0,0-.29,1.16,1.16,0,0,1,0-.42,2,2,0,0,1-.07-0.25s0-.17.08-0.17a4,4,0,0,1,.94.07,0.32,0.32,0,0,0,.27,0h0.53a0.37,0.37,0,0,1,.26.15l0.28-.08a1.21,1.21,0,0,1,.25.75,2.2,2.2,0,0,0,.23.47,0.76,0.76,0,0,0,.08.44,5.51,5.51,0,0,1,.18.69,1.24,1.24,0,0,1,.1.65,2.18,2.18,0,0,0,.27.84,0.73,0.73,0,0,0,.31.54A0.67,0.67,0,0,0,29,21.06a2.14,2.14,0,0,1,.49,0,0.79,0.79,0,0,1,.24-0.17,2.16,2.16,0,0,0,.72-0.27,1.66,1.66,0,0,1,.31-0.23,3.6,3.6,0,0,0,.81-0.64,5.64,5.64,0,0,0,.7-0.8c0.13-.33.31-0.2,0.31-0.2a0.61,0.61,0,0,0,.37.07l0.36,0.24h0A0.17,0.17,0,0,1,33.53,19l0,0a0.26,0.26,0,0,0,.15-0.16,0.12,0.12,0,0,1,.09-0.15h0a0.18,0.18,0,0,0,.08-0.19c-0.1,0,0-.2,0-0.2a0.73,0.73,0,0,0,.22-0.3,0.33,0.33,0,0,0,.28,0,0.31,0.31,0,0,1,.18-0.11l0.18-.1H34.71c-0.13.16-.19,0.06-0.19,0a1.15,1.15,0,0,1,.08-0.28A5.13,5.13,0,0,0,34.66,17a0.9,0.9,0,0,0,0-.23,0.2,0.2,0,0,1,.06-0.15,0.39,0.39,0,0,0,0-.29,2.36,2.36,0,0,1,.06-0.39,0.22,0.22,0,0,1,.1-0.16,0.4,0.4,0,0,0,0-.2A0.12,0.12,0,0,1,35,15.53a0.58,0.58,0,0,1,.12-0.25,0.64,0.64,0,0,0,.08-0.21L36,14h0c0.11-.06.07,0,0.09-0.09a1.46,1.46,0,0,1,0,.54,0.53,0.53,0,0,1,0,.41,6.38,6.38,0,0,1-.08.67v1.36a0.15,0.15,0,0,1-.2.21c-0.3,0-.3.09-0.3,0.09a0.56,0.56,0,0,1,.19,0c0.14,0-.11.14-0.16,0.14a0.26,0.26,0,0,0-.19.16c0,0.06.06,0.07,0,.14h0a0.59,0.59,0,0,0,.29-0.07c0.21-.08.08,0.12,0.08,0.12a4.58,4.58,0,0,0-.29.42,2.19,2.19,0,0,0-.22.33h-0.2a0.33,0.33,0,0,0-.12.28c0,0.13-.12,0-0.12.08s0.11,0.15,0,.15H34.59c-0.08,0,0,.09,0,0.09a0.14,0.14,0,0,1-.13.08H34.31a0.11,0.11,0,0,1-.09.08,0.4,0.4,0,0,0-.23.09,1.07,1.07,0,0,1-.26.25,0.09,0.09,0,0,1-.08-0.09,0.41,0.41,0,0,0-.2.15v0.15a0.67,0.67,0,0,1-.22,0,0.47,0.47,0,0,0-.22.2,1.36,1.36,0,0,1-.14.31,0.26,0.26,0,0,0-.19,0,0.41,0.41,0,0,0-.06.14,0.32,0.32,0,0,0-.16.09,0.32,0.32,0,0,1,0,.08l-0.27.07a0.37,0.37,0,0,1-.12.16,0.39,0.39,0,0,1-.08.15L31.72,21a1.32,1.32,0,0,1-.4.38,4.23,4.23,0,0,1-.39.28,1,1,0,0,0-.27.37,0.4,0.4,0,0,1-.15.2,0.7,0.7,0,0,1-.17.34,4.06,4.06,0,0,0-.27.68,1,1,0,0,1-.13.58,1.15,1.15,0,0,0,0,.54,7,7,0,0,1,.12,1.06l0.23,1.64c0,0.25.12,1.37,0.12,1.37a10.34,10.34,0,0,1,.26,1.07,2.63,2.63,0,0,1,0,.73,0.23,0.23,0,0,0,0,.12,0.18,0.18,0,0,0,0,.11,0.09,0.09,0,0,1,0,.08,0.19,0.19,0,0,0-.08.08,0.08,0.08,0,0,0,.08.08c0.06,0,0,.11,0,0.11a0.67,0.67,0,0,1-.06.51,3.58,3.58,0,0,1-.53.38,0.51,0.51,0,0,0-.27.14,1.63,1.63,0,0,1-.65.41C29,32.39,29,32.2,29,32.13V30.66a4,4,0,0,0-.1-0.74,2,2,0,0,0-.08-0.51,0.38,0.38,0,0,0,0-.26V26.74a1.19,1.19,0,0,0-.14-0.58,0.44,0.44,0,0,1,0-.31V25.4a0.28,0.28,0,0,0,0-.28V24.8a1.06,1.06,0,0,0,0-.26h0a0.14,0.14,0,0,0,.06-0.19h0l0.08-.13a0.48,0.48,0,0,0,0-.4,2.12,2.12,0,0,0-.33-0.44A1.61,1.61,0,0,0,28.21,23a0.68,0.68,0,0,0-.38-0.28,0.11,0.11,0,0,1,0-.13h0a0.19,0.19,0,0,0-.07-0.26h0a0.38,0.38,0,0,0-.37.1,0.29,0.29,0,0,0-.22,0,0.28,0.28,0,0,0,0,.17,1.06,1.06,0,0,1-.37,0H26.21a3.32,3.32,0,0,0-.59.43,0.27,0.27,0,0,0-.14.27,0.25,0.25,0,0,0,.1.13,0.39,0.39,0,0,1,0,.23,0.68,0.68,0,0,1,.1.21,1,1,0,0,0,.31.3,0.87,0.87,0,0,0,.29.12,3.36,3.36,0,0,1,.19.32,0.4,0.4,0,0,0,.26,0,1.93,1.93,0,0,1,.21.23h0.12a0.36,0.36,0,0,1,.16.15,1.24,1.24,0,0,0,.12.21h0.12a1.68,1.68,0,0,1,.19.25,0.56,0.56,0,0,0,.2.19,1.28,1.28,0,0,1,.3.62,0.86,0.86,0,0,0,.12.33,1,1,0,0,1,.09.28,0.34,0.34,0,0,0,.08.17,3.3,3.3,0,0,1,0,.52,1,1,0,0,0,0,.34,3.39,3.39,0,0,1,0,.63q0,0.15,0,.3a0.74,0.74,0,0,1,.06.23,1.16,1.16,0,0,1-.07.32,0.34,0.34,0,0,0,.09.2,0.7,0.7,0,0,0-.06.19,1.6,1.6,0,0,0,.07.26v0.46a3.77,3.77,0,0,1-.13,1.16,1.35,1.35,0,0,1-.22.57,0.62,0.62,0,0,1,0,.28,5,5,0,0,1-.11.54,3.11,3.11,0,0,0-.08.34l-0.13.21a0.25,0.25,0,0,0,.07.12,0.27,0.27,0,0,1-.12.23,1.7,1.7,0,0,0,0,.29V34.6a0.18,0.18,0,0,0,.08.12,0.79,0.79,0,0,1,0,.2,0.32,0.32,0,0,0,.1.1,0.75,0.75,0,0,0,.66.43,1.59,1.59,0,0,0,1-.7,0.77,0.77,0,0,1,.2-0.19h0a0.09,0.09,0,0,0,0-.13h0s-0.08-.12,0-0.12a0.46,0.46,0,0,0,.18,0,2.53,2.53,0,0,1,.34-0.21,0.34,0.34,0,0,0,0-.18,2.14,2.14,0,0,1,.38-0.36,0.26,0.26,0,0,0,0-.2A0.68,0.68,0,0,0,31,33.3V33a1,1,0,0,1,.23-0.09,0.15,0.15,0,0,1,.12.16l-0.09.12a0.64,0.64,0,0,0,.23.19,0.16,0.16,0,0,0,0-.06,0.3,0.3,0,0,1,.12.07,0.87,0.87,0,0,0,0,.17,3.34,3.34,0,0,0,.47.3h0a0.06,0.06,0,0,0,0-.07,0.81,0.81,0,0,0,.2.12,1.37,1.37,0,0,0,.21-0.16,0.23,0.23,0,0,0,.19-0.16,0.33,0.33,0,0,1,0-.18,0.65,0.65,0,0,0,.15-0.22,4.14,4.14,0,0,0,0-.47,0.41,0.41,0,0,0,0-.34c-0.06,0,0-.15,0-0.15h0a0.63,0.63,0,0,1,0-.13h0.07c0.07,0-.08-0.1-0.08-0.1a0.36,0.36,0,0,1,0-.26h0a0.24,0.24,0,0,0,0-.13V31.07a1.34,1.34,0,0,1,0-.23V30.57a0.64,0.64,0,0,1,.09-0.25A2.11,2.11,0,0,0,33,30l0.1-.06a0.18,0.18,0,0,1,0-.11h0.14a0.73,0.73,0,0,0,0-.19,0.09,0.09,0,0,1,.09-0.09h0a0.45,0.45,0,0,0,0-.15,0.23,0.23,0,0,1,0-.17l0.19-.06A0.12,0.12,0,0,1,33.58,29h0.06a0.16,0.16,0,0,0,0-.2V28.7h0.15V28.55a0.15,0.15,0,0,1,.08-0.07h0a0.06,0.06,0,0,1,0-.08L34,28.3V28.14h0.16a0.46,0.46,0,0,0,.1-0.17H34.2V27.85a0.19,0.19,0,0,1,.17,0,0.66,0.66,0,0,1,0,.33,1.51,1.51,0,0,0,.08.3,0.58,0.58,0,0,1-.06.13v0.25a2.08,2.08,0,0,0,0,.21v0.2a0.84,0.84,0,0,1,.07.31,1.19,1.19,0,0,0-.06.35,0.16,0.16,0,0,0,.09.15,2.09,2.09,0,0,1-.08.43,1.4,1.4,0,0,0,.08.32v0.35a1.33,1.33,0,0,1,0,.39,0.2,0.2,0,0,0,0,.18,0.38,0.38,0,0,1,0,.13,0.92,0.92,0,0,1,0,.24,0.29,0.29,0,0,0,0,.16,2.27,2.27,0,0,1-.13.54,1.29,1.29,0,0,1,0,.45,0.55,0.55,0,0,0,0,.27c0,0.08-.06,1.16-0.06,1.27a1.28,1.28,0,0,1-.07.46,0.26,0.26,0,0,1-.14.09,0.14,0.14,0,0,0-.08.12,0.34,0.34,0,0,1,.1.13,0.07,0.07,0,0,1,0,.09h0a0.11,0.11,0,0,0,0,.16h0a0.57,0.57,0,0,1,0,.37,0.08,0.08,0,0,0,0,.11A4.69,4.69,0,0,1,34,37a0.55,0.55,0,0,1,0,.19,0.14,0.14,0,0,0-.08.1,1,1,0,0,0,.22.16,0.88,0.88,0,0,1,.16.23c0.07,0.08.07,0,.07,0a0.63,0.63,0,0,1,.2,0,0.94,0.94,0,0,0,.2-0.11L35,37.47a0.49,0.49,0,0,1,0-.24s0.16,0.11.18-.08,0-.19.13-0.19,0.07,0.1.12,0.1a0.15,0.15,0,0,0,.18,0V36.62a1.5,1.5,0,0,1,0-.2,0.71,0.71,0,0,0-.09-0.25,0.23,0.23,0,0,0-.1-0.24V35.76a1.89,1.89,0,0,0,0-.3,0.22,0.22,0,0,1,.1-0.2V34.74a0.48,0.48,0,0,0,.18,0l0.13-.3a0.35,0.35,0,0,0,0-.21A0.31,0.31,0,0,1,36.09,34a0.49,0.49,0,0,0,0-.18,0.19,0.19,0,0,1,.09-0.19,0.35,0.35,0,0,0,.08-0.23,0.42,0.42,0,0,0-.06-0.22,1.39,1.39,0,0,1,0-.24,1.21,1.21,0,0,0-.2-0.53V32.14c0-.2-0.13-0.2-0.13-0.2a0.21,0.21,0,0,0-.15-0.06c0-.09-0.07-0.2,0-0.2h0.19V30.83a0.25,0.25,0,0,0-.06-0.14V30.13a0.1,0.1,0,0,0-.06-0.1,0.23,0.23,0,0,0-.06.1,0.27,0.27,0,0,0,0,.1l0.07,0.06a0.22,0.22,0,0,1,0,.1,0.38,0.38,0,0,1-.06.15,0.1,0.1,0,0,1-.11,0,0.27,0.27,0,0,1,0-.15V30.16a0.7,0.7,0,0,0,0-.23H35.56a0.73,0.73,0,0,1,0-.22,0.58,0.58,0,0,1,.08-0.19,0.38,0.38,0,0,0,0-.08h0.13a0.17,0.17,0,0,0,.09-0.07,0.08,0.08,0,0,0,0-.1s0,0.06-.1.06H35.54a0.24,0.24,0,0,1,0-.16,2.46,2.46,0,0,0,0-.3l-0.08-.07a0.72,0.72,0,0,1,0-.2,0.55,0.55,0,0,1,.12-0.12H35.7a0.79,0.79,0,0,1,0,.37,1.41,1.41,0,0,0,0,.19c0,0.07.08,0,.08,0V28.88a0.41,0.41,0,0,1,0-.15,0.35,0.35,0,0,1,0-.13,0.09,0.09,0,0,0,0-.09,0.32,0.32,0,0,1,0-.17,1.73,1.73,0,0,0,0-.3,0.35,0.35,0,0,0-.13-0.11v0.13a0.27,0.27,0,0,1,0,.08,0.13,0.13,0,0,1-.06.15,0.16,0.16,0,0,1-.15,0,0.35,0.35,0,0,1,0-.29,0.43,0.43,0,0,0,0-.18V27.51a1,1,0,0,0,0-.25c0-.08-0.06,0-0.12-0.08s0-.1,0-0.17a0.19,0.19,0,0,1,.08-0.07,0.66,0.66,0,0,1,0-.15c0-.06.11,0,0.11,0v0.09a0.22,0.22,0,0,1,.07.13h0s0.06-.4.06-0.45a0.53,0.53,0,0,0-.06-0.28v0.1a0.69,0.69,0,0,0,0,.2H35.52a0.18,0.18,0,0,0,0,.08c0,0.1-.1,0-0.1,0a0.31,0.31,0,0,0-.06-0.23,0.07,0.07,0,0,1,0-.1h0c0-.06.06-0.06,0.14-0.06s0-.11,0-0.11a0.45,0.45,0,0,1,0-.3,0.14,0.14,0,0,0,.09-0.09c0-.14.12,0,0.14-0.08s0.46-.84.46-0.84l0.07-.2a0.18,0.18,0,0,0,0-.11,0.17,0.17,0,0,1,.06-0.16,0.17,0.17,0,0,0,.07-0.12A0.37,0.37,0,0,1,36.47,24a0.11,0.11,0,0,0,.1-0.11,14.56,14.56,0,0,1,1.11-1.61A0.41,0.41,0,0,1,38.17,22a0.24,0.24,0,0,1,.2.26,1,1,0,0,1,.14.32,1.32,1.32,0,0,0,.22.29,0.67,0.67,0,0,1,.14.33c0.06,0,.12,0,0.13.13s0,0.18.17,0.18,0,0.23,0,.26V24c0,0.12.13,0.28,0.12,0.38s0,0.16.07,0.16,0.08,0.1.08,0.14a0.22,0.22,0,0,1,.14-0.07,0.38,0.38,0,0,1,.08.29,0.18,0.18,0,0,1,0-.08,0.51,0.51,0,0,0,0-.16,1.83,1.83,0,0,1,0-.21V24.14a1.69,1.69,0,0,1,0-.51,6.38,6.38,0,0,1,.07-0.78,0.49,0.49,0,0,1,.07-0.31c0.09-.12.5-0.6,0.5-0.6a0.44,0.44,0,0,1,.12-0.1,1.37,1.37,0,0,0,0-1.22,1.93,1.93,0,0,0-.34-0.47,1.43,1.43,0,0,0-.28-0.31H39.35A1.25,1.25,0,0,0,39,20a1.46,1.46,0,0,1-.46.17,1.06,1.06,0,0,0-.57.36l-0.19.06a0.34,0.34,0,0,0-.12.2,2.48,2.48,0,0,0-.18.31v0.5a2.59,2.59,0,0,0-.54.83,0.07,0.07,0,0,1-.08,0,4.49,4.49,0,0,0-.25.48l0.09-.06a2.88,2.88,0,0,1,.22-0.36h0a0.06,0.06,0,0,1,.08,0c0.16,0,0,.19,0,0.19a7,7,0,0,0-.38.67,0.36,0.36,0,0,1-.14.18,0.53,0.53,0,0,1-.1.27,0.19,0.19,0,0,0-.1.12c0,0.14-.07.14-0.07,0.14a0.82,0.82,0,0,0-.09.19,0.4,0.4,0,0,1-.17.24c-0.11.28,0,.15-0.11,0.17s0-.15,0-0.15c0.06-.18,0-0.24-0.07-0.11s-0.16,0-.16,0a1.92,1.92,0,0,1,0-.3,0.58,0.58,0,0,1,.07-0.43c0.09-.09.17,0.1,0.17,0.1a6.09,6.09,0,0,0,0-.73A0.53,0.53,0,0,1,36,22.67a0.36,0.36,0,0,0,0-.42A0.86,0.86,0,0,1,35.81,22a0.51,0.51,0,0,0-.23-0.15A2.78,2.78,0,0,0,35,21.63a0.22,0.22,0,0,0-.25.11,0.55,0.55,0,0,0-.21,0,0.28,0.28,0,0,1-.22.22,0.4,0.4,0,0,1-.24.26c-0.21.09,0,.37,0,0.37a0.63,0.63,0,0,0,.3.31,0.92,0.92,0,0,0,.15.38c0.06,0.3,0,2.42,0,2.42a3.93,3.93,0,0,1-.07.81,0.2,0.2,0,0,1-.1.22,0.54,0.54,0,0,0-.16.27,1.78,1.78,0,0,0,0,.24,1.38,1.38,0,0,0-.32.37c-0.08.22-.32,0.17-0.2,0.22s0.13,0.1,0,.2-0.13,0-.13,0a2.25,2.25,0,0,1,0,.26,1.86,1.86,0,0,1-.38.56,0.6,0.6,0,0,0-.2.32c-0.15.31-.15,0-0.15,0a4.93,4.93,0,0,1-.14-1,0.69,0.69,0,0,1,0-.36c0.14-.38,0-0.38,0-0.38a20.6,20.6,0,0,0,0-2.54,3.58,3.58,0,0,0-.1-0.64,0.56,0.56,0,0,0-.09-0.39,1.92,1.92,0,0,0-.19-0.44A2.34,2.34,0,0,1,31.84,23a0.21,0.21,0,0,1,0-.18,1,1,0,0,1-.22-0.18,0.45,0.45,0,0,0-.06-0.16,2.17,2.17,0,0,0,0-.28,0.46,0.46,0,0,1,.16-0.32A0.46,0.46,0,0,0,32,21.48a0.23,0.23,0,0,1,.2,0V21.39a0.5,0.5,0,0,1,.23-0.1,1,1,0,0,0,.17-0.23L32.79,21a0.34,0.34,0,0,0,.09-0.27,0.17,0.17,0,0,1,.15,0,0.45,0.45,0,0,0,.4-0.13h0.1a0.74,0.74,0,0,0,.36-0.27,1.12,1.12,0,0,0,.38-0.12l0.23-.09A0.32,0.32,0,0,1,34.78,20h0.06a0.13,0.13,0,0,0,.09-0.16c0.14,0.07.14,0,.14,0a1.22,1.22,0,0,1,.44-0.26,0.2,0.2,0,0,0,.2-0.09,1.35,1.35,0,0,0,.67-0.39,0.67,0.67,0,0,0,.54-0.3,0.5,0.5,0,0,0,.44-0.16A0.73,0.73,0,0,0,38,18.22a0.45,0.45,0,0,0,.2-0.32,1.1,1.1,0,0,1,.1-0.42A0.49,0.49,0,0,0,38,17.15C37.92,17.09,38,17,38,17a1,1,0,0,0,.35-0.11,0.36,0.36,0,0,0,.21-0.14,0.62,0.62,0,0,0,.2-0.14,0.56,0.56,0,0,1,.22,0l0.25-.15a4.72,4.72,0,0,1,.81-0.25A5.74,5.74,0,0,0,40.75,16,0.29,0.29,0,0,0,41,15.9a0.22,0.22,0,0,1,.18,0h0.19a0.74,0.74,0,0,0,0-.17,0.09,0.09,0,0,1,.07-0.11H41.5V15.46h0.1a0.44,0.44,0,0,1,.09-0.11c0-.11.2,0,0.2,0A0.24,0.24,0,0,1,42,15.1a0.11,0.11,0,0,1,.11.11,0.55,0.55,0,0,0,.11-0.12A0.22,0.22,0,0,0,42.4,15l0.15-.2a0.52,0.52,0,0,0,.25,0,0.11,0.11,0,0,1,.08-0.14h0c0.52-.24.48-0.29,0.43-0.41a0.08,0.08,0,0,1,0-.11h0.05a0.32,0.32,0,0,1,.28-0.17,0.23,0.23,0,0,0,.09-0.13,0.21,0.21,0,0,0,.21-0.2,0.29,0.29,0,0,1,.23-0.26,1.09,1.09,0,0,0,.18-0.25,0.44,0.44,0,0,0,.22-0.25l0.36-.5A0.79,0.79,0,0,0,45,11.71ZM32.3,18.48a5.66,5.66,0,0,1-1.19,1.33,0.57,0.57,0,0,1-.33.27l-0.49.3H29.93c-0.16.1-.16,0-0.16,0a0.7,0.7,0,0,1-.28-0.19A0.29,0.29,0,0,0,29.41,20a0.37,0.37,0,0,1,0-.29h0.16a0.32,0.32,0,0,1,.11-0.17,0.22,0.22,0,0,0,0-.29,1.63,1.63,0,0,1,.1-0.85,0.72,0.72,0,0,1,.14-0.4A1,1,0,0,0,30,17.68a7.2,7.2,0,0,0,.13-0.94h0a0.34,0.34,0,0,1,.19-0.11l0.15-.18H30.6a0.18,0.18,0,0,0,.11-0.1h0.2a0.18,0.18,0,0,0,.1-0.11h0.21A1.08,1.08,0,0,0,31.47,16a0.38,0.38,0,0,0,.21,0,3,3,0,0,1,.45-0.16c0.23-.11.15,0.1,0.15,0.21s0.07,0.36.07,0.49v1.28a1.35,1.35,0,0,0,.15.52A0.29,0.29,0,0,1,32.3,18.48Zm10.63-5.94a1.45,1.45,0,0,0,0,.24,1.09,1.09,0,0,0-.31.44,0.18,0.18,0,0,1-.09.24h0a3.07,3.07,0,0,0-.52.33s-0.18.11-.13,0.19a0.1,0.1,0,0,1,0,.13h0s-0.14.11,0,.19,0.12,0.16,0,.13-0.16-.12-0.23,0a0.25,0.25,0,0,1-.22.11,0.11,0.11,0,0,0-.14-0.06h0a0.29,0.29,0,0,0-.18.14,0.68,0.68,0,0,0-.44.24,9.88,9.88,0,0,1-1.18.5,2,2,0,0,0-.55.37,0.82,0.82,0,0,0-.22.07,0.67,0.67,0,0,0-.34.17,2,2,0,0,0-.4.24l-0.32.11a0.37,0.37,0,0,1,0,.12,0.12,0.12,0,0,1-.11.13h0a0.22,0.22,0,0,1-.16-0.11,0.08,0.08,0,0,1,0-.11,0.13,0.13,0,0,0,.11-0.09,1.2,1.2,0,0,1,0-.25,0.43,0.43,0,0,1,.07-0.1l-0.1-.06a0.07,0.07,0,0,1,0-.09h0.07a1.91,1.91,0,0,0,.09-0.26,1,1,0,0,0,0-.17,0.38,0.38,0,0,1,0-.24,0.15,0.15,0,0,1,.17.06,0.86,0.86,0,0,1,.06.14,0.65,0.65,0,0,1,0,.22,0.09,0.09,0,0,0-.07.06,0.47,0.47,0,0,0,0,.16,0.16,0.16,0,0,0,.11.07,0.44,0.44,0,0,0,0-.14,0.16,0.16,0,0,1,.06-0.07,1.36,1.36,0,0,0,.09-0.3,0.45,0.45,0,0,1,0-.19s0.12-.12,0-0.19a0.29,0.29,0,0,1-.16-0.17c0-.07,0,0,0.09,0s0-.14,0-0.14h-0.1s0,0.16-.09.12-0.07-.08,0-0.13a0.89,0.89,0,0,0,.17-0.15,3.79,3.79,0,0,0-.06-0.56,0.89,0.89,0,0,0,0-.4,0.33,0.33,0,0,1-.09-0.15,0.4,0.4,0,0,1,0-.33,0.08,0.08,0,0,1,.1,0h0A0.4,0.4,0,0,0,38,12.81c0-.11.11,0,0.14,0.06s0-.46,0-0.46V12.35a0.34,0.34,0,0,0,.25,0,0.17,0.17,0,0,1,.15-0.14,1.22,1.22,0,0,1,.18.16,1.43,1.43,0,0,0,.76,0c0.07-.07.39-0.12,0.62-0.26a1.09,1.09,0,0,1,.62-0.2A0.5,0.5,0,0,1,41,11.85a1,1,0,0,1,.27-0.14h0.16a0.52,0.52,0,0,1,.43-0.06,1.29,1.29,0,0,1,.62,0,0.92,0.92,0,0,1,.43.51A0.48,0.48,0,0,1,42.93,12.54Z" transform="translate(0 -0.36)"/><path class="cls-1" d="M39.44,24.61h0Z" transform="translate(0 -0.36)"/><path class="cls-1" d="M42.53,32.22a0.76,0.76,0,0,0-.44-0.36,3.76,3.76,0,0,1-.72-0.46,5.5,5.5,0,0,0-.15-0.66,0.62,0.62,0,0,1,0-.4,2.13,2.13,0,0,0,.11-0.86,1.18,1.18,0,0,0-.65-0.86,2.33,2.33,0,0,0-.39-0.33,5.43,5.43,0,0,1-.52-0.38,1.24,1.24,0,0,1-.22-0.58,0.2,0.2,0,0,1-.06-0.18,0.57,0.57,0,0,0,.08-0.27V26.39a1.08,1.08,0,0,1,0-.16,1,1,0,0,0,0-.42V25.39a0.24,0.24,0,0,0-.19-0.25,0.36,0.36,0,0,1,0-.19c0-.07.09,0,0.06-0.13s-0.1-.09-0.11,0,0.08,0.58.08,0.67a1.8,1.8,0,0,0,0,.63,0.52,0.52,0,0,1,.1.22s-0.1,0-.09.27a3.4,3.4,0,0,0,0,.46,0.26,0.26,0,0,1,.08.15,0.47,0.47,0,0,0-.1.32,8.11,8.11,0,0,1,0,.83,0.31,0.31,0,0,0,0,.22,3.11,3.11,0,0,0,0,.36,1.15,1.15,0,0,1,0,.6,1.34,1.34,0,0,1,.09.25,4.14,4.14,0,0,1,.08.42l0.12,0.09a1,1,0,0,0,.29.53h0.51a1.23,1.23,0,0,1,.62.61,3.12,3.12,0,0,1,.25.88,4.46,4.46,0,0,1-.71.6,9,9,0,0,1-1.46.84,0.5,0.5,0,0,0-.42.19,1.1,1.1,0,0,0-.41.23,7.54,7.54,0,0,0-1.45.58s0,0.11.06,0a0.44,0.44,0,0,1,.31,0,0.48,0.48,0,0,1,.17-0.09,0.65,0.65,0,0,0,.21-0.06,1.84,1.84,0,0,0,.7-0.18l0.36-.08v0.08L39,34.31a1.24,1.24,0,0,0,.44-0.06,0.86,0.86,0,0,1,.4-0.08h0.35l0.31-.07,0.15-.1h0.2a1.55,1.55,0,0,1,.38-0.27h0.25a0.68,0.68,0,0,1,.23-0.11,0.82,0.82,0,0,1,.26.13,0.21,0.21,0,0,1,.25.15,1,1,0,0,1,.3.07c0.09,0,.06,0,0.1-0.06l0.17-.14c0.08-.07.17-0.34,0.26-0.42A0.27,0.27,0,0,0,43,33,1.45,1.45,0,0,0,42.53,32.22Z" transform="translate(0 -0.36)"/><path class="cls-1" d="M35.39,17.7h0l-0.08.07A0.11,0.11,0,0,0,35.39,17.7Z" transform="translate(0 -0.36)"/><path class="cls-1" d="M35.09,17.7c-0.08,0,0,.12-0.08.12h0a0.38,0.38,0,0,1,.28-0.08H35.2A0.18,0.18,0,0,0,35.09,17.7Z" transform="translate(0 -0.36)"/><path class="cls-1" d="M34.81,17.8H35A0.15,0.15,0,0,0,34.81,17.8Z" transform="translate(0 -0.36)"/><polygon class="cls-1" points="49.41 12.05 49.41 12.05 49.4 12.05 49.41 12.05"/><polygon class="cls-1" points="48.45 4.36 48.45 4.36 48.44 4.36 48.45 4.36"/><path class="cls-1" d="M48,0.36a3.79,3.79,0,1,0,3.79,3.79A3.79,3.79,0,0,0,48,.36h0Zm0,7.57a3.78,3.78,0,1,1,3.78-3.78h0A3.78,3.78,0,0,1,48,7.93Z" transform="translate(0 -0.36)"/><path class="cls-1" d="M48.88,4.53a1.38,1.38,0,0,0-.32-0.2A1.42,1.42,0,0,0,49.42,4a1,1,0,0,0,.28-0.73,1.15,1.15,0,0,0-.17-0.61,0.9,0.9,0,0,0-.45-0.39,2.38,2.38,0,0,0-.82-0.11h-1.8V6.19H47V4.39h0.92a0.8,0.8,0,0,1,.25.11,1.21,1.21,0,0,1,.27.27q0.15,0.19.39,0.56l0.54,0.84H50l-0.71-1.1A2.8,2.8,0,0,0,48.88,4.53ZM48.15,3.9H47V2.56h1.28a1,1,0,0,1,.66.19,0.6,0.6,0,0,1,.21.47,0.66,0.66,0,0,1-.11.36,0.61,0.61,0,0,1-.32.24A1.73,1.73,0,0,1,48.15,3.9Z" transform="translate(0 -0.36)"/></svg>