<?xml version="1.0" encoding="utf-8"?>
<!-- Generator: Adobe Illustrator 19.2.0, SVG Export Plug-In . SVG Version: 6.00 Build 0)  -->
<svg version="1.1" id="图层_1" xmlns="http://www.w3.org/2000/svg" xmlns:xlink="http://www.w3.org/1999/xlink" x="0px" y="0px"
	 viewBox="0 0 33.7 35.2" style="enable-background:new 0 0 33.7 35.2;" xml:space="preserve">
<style type="text/css">
	.st0{fill:#12A8E7;}
	.st1{fill:#FFFFFF;}
	.st2{fill:#FFFFFF;stroke:#12A8E7;stroke-width:0.5;stroke-miterlimit:10;}
</style>
<title>logo</title>
<rect y="28.7" class="st0" width="29.2" height="6.5"/>
<path class="st1" d="M3.4,33.8v-0.6c-1,0.3-2-0.4-2.3-1.3c0-0.1,0-0.1,0-0.2h2.3V31H1.1c0.3-1,1.3-1.6,2.3-1.4l0,0V29H3
	c-1.3-0.1-2.4,0.9-2.5,2.2c0,0.1,0,0.1,0,0.2c0,1.4,1.1,2.5,2.5,2.4C3.1,33.8,3.3,33.8,3.4,33.8"/>
<path class="st1" d="M6.8,32.8c-0.2,0.3-0.5,0.4-0.8,0.5c-0.6,0-1.1-0.5-1.1-1.1c0,0,0-0.1,0-0.1c0-0.6,0.4-1,1-1h0
	c0.5,0,1,0.3,1.1,0.8v1.9h0.6v-2c-0.1-0.8-0.8-1.4-1.6-1.4h0c-0.9,0-1.7,0.7-1.7,1.5c0,0.1,0,0.1,0,0.2c0,0.9,0.7,1.7,1.6,1.7
	c0,0,0,0,0,0H6c0.3,0,0.6-0.1,0.9-0.3L6.8,32.8L6.8,32.8z"/>
<path class="st1" d="M11,30.6H9.5c-0.5,0-1,0.3-1,0.8c0,0,0,0,0,0c0,0.9,1.1,0.9,1.8,1.2c0.3,0.1,0.5,0.6-0.2,0.6H8.4v0.5h1.7
	c0.5,0.1,0.9-0.3,1-0.8c0,0,0,0,0-0.1c0,0,0,0,0,0c0-0.7-0.8-0.9-1.5-1.1c-0.7-0.2-0.6-0.7-0.2-0.7H11L11,30.6L11,30.6z"/>
<path class="st1" d="M12,30.6h0.6v2c0,0.4,0.4,0.7,0.8,0.7s0.7-0.4,0.7-0.8l0,0l0,0v-1.9h0.6v2c0,0.6-0.4,1.2-1,1.3v1.3h-0.7v-1.4
	c-0.6-0.1-1.1-0.7-1-1.3L12,30.6"/>
<path class="st1" d="M16.8,29c-0.6,0-1.1,0.5-1.1,1.1c0,0,0,0,0,0c0,0,0,0,0,0v3.6h0.6v-2.7h1v-0.5h-1v-0.4c0-0.3,0.2-0.5,0.5-0.5
	c0,0,0,0,0,0h0.5V29L16.8,29L16.8,29z"/>
<path class="st1" d="M20.4,32.8c-0.2,0.3-0.5,0.4-0.8,0.5c-0.6,0-1.1-0.5-1.1-1.1c0,0,0-0.1,0-0.1c0-0.6,0.4-1,1-1h0.1
	c0.5,0,1,0.3,1.1,0.8v1.9h0.7v-2c-0.1-0.8-0.8-1.4-1.6-1.4h-0.1c-0.9,0-1.7,0.6-1.7,1.5c0,0,0,0.1,0,0.1c0,0.9,0.7,1.7,1.6,1.7
	c0,0,0,0,0,0h0.1c0.3,0,0.6-0.1,0.9-0.3L20.4,32.8L20.4,32.8z"/>
<path class="st1" d="M24.4,30.6h-0.7c-0.9,0.1-1.5,0.9-1.4,1.8c0.1,0.7,0.7,1.3,1.4,1.4h0.7v-0.5h-0.7c-0.5-0.1-0.9-0.5-0.9-1.1
	c0,0,0,0,0,0c0-0.6,0.4-1,1-1h0.6L24.4,30.6z"/>
<path class="st1" d="M25.9,32.3l0.3,0.5l2.2-1.2c-0.3-0.6-0.8-1-1.5-1c-0.9-0.1-1.7,0.7-1.8,1.6c0,0.1,0,0.2,0,0.2
	c0,0.9,0.8,1.6,1.7,1.6c0.9,0,1.6-0.6,1.7-1.5l-0.6-0.1c-0.1,0.6-0.6,1-1.2,1c-0.6-0.1-1-0.6-1-1.2c0.1-0.5,0.5-0.9,1-1
	c0.3,0,0.6,0.1,0.8,0.3L25.9,32.3z"/>
<path class="st0" d="M12.6,14.7L12.6,14.7c-0.1-0.1-0.1-0.2-0.1-0.2c0,0,0,0,0,0c0.1-0.1,0.1,0,0-0.1c-0.2-0.1-0.4-0.1-0.6-0.2h-0.1
	l-0.2-0.1l-0.1,0c0,0-0.1-0.1-0.1-0.1c0,0-0.1,0-0.1,0c0,0-0.1,0-0.1-0.1l-0.1,0.1h-0.8c-0.1,0-0.2,0-0.3,0H9.4c-0.3,0-0.7,0-0.7,0
	c0-0.1,0-0.2,0-0.2c0-0.1,0-0.1,0-0.2v-0.2c0-0.1,0-0.1,0.1-0.2c0,0,0-0.1,0-0.1l0,0l0,0V13c0-0.1,0-0.1,0.1-0.1c0,0,0-0.1,0-0.1
	c0,0,0.1-0.1,0.1-0.2c0-0.1,0,0,0-0.1v-0.5c0,0,0-0.1,0-0.1c0-0.1,0-0.2,0-0.2v-0.4c0-0.1,0-0.1,0-0.2c0-0.1-0.2-0.1-0.3-0.1L8.5,11
	c-0.1,0-0.1,0.1-0.2,0.1L8,11.3l-0.3,0.2H7.6c0,0,0,0.1,0,0.1l-0.1,0.1c-0.1,0-0.2,0.1-0.2,0.2l0,0c0,0-0.1,0-0.1,0c0,0,0,0,0,0
	c0-0.1,0-0.1,0-0.2c0-0.1,0-0.1,0-0.2c0.1,0,0.1-0.1,0.1-0.2c0-0.1,0.1-0.2,0.2-0.3c0-0.1,0.1-0.2,0.1-0.3c0-0.2,0.1-0.2,0.1-0.2
	c0-0.1,0-0.2,0.1-0.3c0-0.2,0.1-0.2,0.1-0.2c0.1-0.2,0.1-0.4,0.1-0.5c0-0.1,0-0.1,0-0.2c0-0.1,0-0.3,0-0.4c0-0.1-0.1-0.2-0.2-0.3
	c0,0,0,0-0.1,0c0,0,0-0.1-0.1-0.1c0,0,0,0,0,0c-0.1,0-0.1,0-0.1,0H7.2c0,0.1-0.1,0.1-0.1,0.1C7,8.7,7,8.7,7,8.7L6.9,8.8
	c0,0.1,0,0.1,0,0.1C6.8,8.9,6.8,9,6.7,9c0,0,0,0.1,0,0.1c-0.1,0.1,0,0.1,0,0.1c0,0,0,0.1,0,0.1c0,0.1,0,0.2-0.1,0.3L6.6,9.7v0.2
	L6.4,9.9c0,0,0,0.1,0,0.1c-0.1,0.1,0,0.1,0,0.1c0,0,0,0.1,0,0.1c0,0,0,0.1,0,0.1c-0.1,0.1-0.1,0.2-0.2,0.3c0,0.1,0,0.2-0.1,0.2
	c0,0,0,0.1,0,0.1l0,0c0,0,0,0,0,0c0,0.1,0,0.1-0.1,0.1c0,0,0,0.1,0,0.1l0,0c0,0.1,0,0.2-0.1,0.3l0,0c0,0.1,0,0,0,0.1v0.1l0,0l0,0
	v0.1c0,0.1-0.3,0.5-0.3,0.5v0.1H5.2v0.1H5.1c0,0,0,0.1,0,0.1c0,0-0.1,0-0.1,0.1c-0.1,0,0,0,0,0.1S5,13,5,13v0.1H4.9c0,0,0,0.1,0,0.1
	l-0.1,0.1H4.7c0,0,0,0.1,0,0.1c0,0,0,0.1,0,0.1H4.6v0.1v0.1H4.5c0,0,0,0.1,0,0.1c0,0.1-0.1,0.1-0.1,0.1c0,0.1,0,0.1,0,0.2H4.3
	c0,0,0,0.1,0,0.1c0,0,0,0,0,0.1c0,0-0.1,0-0.1,0.1c0,0.1,0,0.1,0,0.2c-0.1,0.1-0.1,0.2-0.2,0.3c0,0-0.1,0.1-0.1,0.1c0,0,0,0.1,0,0.1
	c0,0-0.1,0.1-0.1,0.1c0,0.1,0,0.1,0,0.2c0,0-0.1,0.1-0.1,0.1c0,0.1-0.1,0.2-0.2,0.2c-0.1,0.1-0.4,0.6-0.4,0.6H2.9c0-0.3,0-0.7,0.1-1
	c0-0.1,0-0.1,0.1-0.2c0.1-0.2,0.1-0.3,0.2-0.5c0.1-0.4,0.2-0.9,0.3-1.3c0-0.1,0-0.2,0-0.2c0.1-0.1,0-0.1,0-0.1c0,0,0-0.1,0-0.1
	c0,0,0-0.1,0-0.1c0,0,0-0.1,0-0.1v-0.1c0,0,0-0.1,0-0.1c0.1,0,0.1,0,0.1,0c0,0,0,0,0-0.1l0,0l0,0c0,0,0-0.1,0-0.1c0-0.1,0,0,0-0.1
	c0-0.1,0-0.1,0-0.2l0.1-0.1c0,0,0-0.1,0-0.1c0,0,0,0,0-0.1c0-0.1,0-0.2,0-0.3c0,0,0-0.1,0-0.1V11c0,0,0-0.1,0-0.1c0-0.1,0-0.2,0-0.3
	c0-0.1,0-0.1,0-0.2c0-0.2,0-0.2,0-0.2s-0.1,0.4-0.1,0.4c0,0,0,0.1-0.1,0.1c0,0,0,0.1-0.1,0.1V11c0,0,0,0.1,0,0.1l-0.1,0.1v0.1
	c0,0,0,0,0,0.1c0,0-0.1,0.2-0.1,0.3c0,0.1,0,0.1,0,0.2c0,0,0,0.1-0.1,0.1c0,0,0,0.1,0,0.1c0,0,0,0.1,0,0.1c0,0,0,0.1,0,0.1l0,0
	c0,0.1,0,0.1-0.1,0.1H2.8c0,0-0.1,0-0.1,0c0,0-0.1,0-0.1,0H2.5c0,0-0.1,0-0.1,0.1c0,0,0,0-0.1,0l-0.1,0.1c0,0-0.2,0-0.2,0l0,0
	c0,0.1,0,0.1-0.1,0.1H1.8c0,0-0.1,0.1-0.2,0.1H1.6c0,0,0,0.1,0,0.1H1.4c0,0,0,0.1,0,0.1H1.2c-0.1,0-0.1,0.1-0.1,0.1H1.1v0H0.9
	c-0.1,0-0.1,0-0.1,0.1c0,0.1-0.1,0.1-0.1,0.2H0.6c-0.1,0-0.3,0.1-0.4,0.1v0.1c0,0.1,0,0.3,0.1,0.4l0,0c0,0,0,0.1,0.1,0.1
	c0,0,0.1,0,0.1,0.1c0.1,0.1,0.4,0.1,0.5,0C1,14,1.2,13.9,1.4,13.8c0.1,0,0.1,0,0.2,0h0.2c0,0,0.1-0.1,0.1-0.1c0,0,0.1,0,0.1,0
	c0.2-0.1,0.3-0.2,0.5-0.3c0.3-0.1,0.2,0.3,0.2,0.3l-0.2,1H2.4c0,0.1,0,0.2,0,0.3c0,0.1,0,0.2,0,0.3c-0.1,0,0,0.1,0,0.1l0,0
	c0,0.1,0,0.1,0,0.2c0,0,0,0.1,0,0.1c0,0.1,0,0.2,0,0.3H2.2c0,0.1,0,0.3-0.1,0.4H2v0.3c0,0,0,0.1-0.1,0.1c0,0,0,0.1-0.1,0.1
	c0,0.1,0,0.1,0,0.2H1.8c-0.1,0-0.1,0.1-0.1,0.1c0,0.1-0.1,0.2-0.1,0.3c0,0.1,0,0.1,0,0.1c-0.1,0.1-0.1,0.2-0.2,0.3
	c-0.2,0.3-0.2,0.3-0.2,0.3H1.1v0.1c-0.1,0.1-0.2,0.3-0.2,0.5c0,0.4,0.2,0.4,0.2,0.4c0.1-0.1,0.2-0.2,0.2-0.3c0,0,0.1,0,0.1,0
	c0.1,0,0-0.1,0-0.1l0.3-0.3c0.1-0.1,0.2-0.2,0.2-0.3c0.1-0.1,0.1-0.2,0.2-0.3c0.2-0.3,0.2,0,0.2,0c0,0.1,0,0.2,0,0.3
	c0,0.4,0.1,0.7,0.3,1c0.1,0.1,0.1,0.1,0.1,0.1c0,0.1,0.1,0.2,0.2,0.3c0,0.1,0.1,0.1,0.1,0.1c0,0,0,0.1,0.1,0.2c0,0,0.1,0,0.1,0
	c0.3,0.3,0.4,0.2,0.4,0.2c0.1-0.1,0.1-0.3,0-0.5c-0.1-0.2,0-0.3,0-0.3c0-0.1,0-0.1,0-0.2c-0.2,0-0.2-0.4-0.2-0.4
	c0-0.1,0-0.2-0.1-0.3c0-0.1-0.1-0.3-0.1-0.4c0-0.1,0-0.1-0.1-0.2c0-0.1,0-0.3,0-0.4c0-0.1,0-0.1,0-0.2c0-0.5,0.1-0.5,0.1-0.5
	c0-0.1,0-0.1,0-0.2h0.1c0.1-0.4,0.2-0.3,0.2-0.3c0-0.1,0-0.2,0-0.2c0-0.1,0.1-0.1,0.1-0.1c0-0.3,0.1-0.2,0.1-0.2c0-0.1,0-0.2,0-0.2
	h0.1c0-0.2,0.1-0.1,0.1-0.1l0.1-0.1c0-0.2,0.1-0.2,0.1-0.2c0-0.1,0-0.1,0-0.2c0.1-0.1,0.4-0.6,0.4-0.6c0,0,0.1-0.1,0.1-0.1
	C4.7,14.4,5,13.9,5,13.9c0-0.2,0.1-0.3,0.2-0.4c0-0.1,0-0.1,0-0.2c0,0,0-0.1,0-0.1c-0.1,0,0-0.2,0-0.2c0.1-0.1,0.2-0.3,0.3-0.4
	L5.8,12c0.1-0.2,0.2-0.4,0.3-0.6c0-0.2,0-0.3,0.1-0.5v-0.1l0.1-0.1c0.1-0.1,0.1-0.2,0.1-0.3c-0.1-0.1,0-0.1,0-0.1c0-0.1,0.2,0,0.1,0
	s0.1-0.2,0.1-0.2c0-0.1,0-0.2,0.1-0.2C6.8,10,6.8,9.9,6.8,9.8C6.9,9.4,7,9.7,7,9.7c0,0.3-0.1,0.7-0.2,1c0,0.3-0.4,1.5-0.4,1.5
	C6.2,13.1,6,14.1,6,14.1c-0.3,0.2-0.5,0.5-0.5,0.8c-0.2,0-0.1,0.2-0.1,0.2c0.1,0.1,0.1,0.2,0.1,0.3c0,0.2,0.1,0.3,0.3,0.4
	c0,0.3,0,0.6-0.1,0.9c0,0.1,0,0.3,0,0.4c-0.1,0.4,0,0.5,0,0.5c0.2,0.3,0,0.3,0,0.3c-0.1,0.2-0.1,0.5,0.1,0.7
	c0.3,0.2,0.4,0.1,0.4,0.1l0.1,0.1l0.1-0.1c0.2-0.1,0.2,0,0.2,0c0,0.1-0.1,0.2-0.1,0.3c0,0.2-0.1,0.3-0.3,0.4C6.1,19.6,6,19.5,6,19.5
	c0,0.1-0.1,0.2-0.2,0.2c0,0.2-0.1,0.2-0.1,0.2c0,0.1-0.1,0.1-0.1,0.2c0,0.2,0,0.4,0,0.5l0,0c0.1,0,0.1,0.1,0.1,0.2
	c0.2,0.1,0.5,0.1,0.6,0c0.1-0.1,0.2-0.1,0.3-0.1c0.1,0,0.2,0,0.3-0.1c0.3,0.1,0.3-0.1,0.3-0.1c0.3,0,0.3-0.1,0.3-0.1
	c0.3,0,0.3,0.1,0.3,0.1c-0.1,0.5-0.5,0.9-0.9,1.2c0,0.2-0.1,0.2-0.1,0.2c-0.1,0.1-0.2,0.2-0.3,0.2c0,0-0.1,0.1-0.2,0.1l0,0
	c0,0-0.1,0.1-0.1,0.1c0,0,0,0,0,0c-0.1,0-0.1,0.1-0.1,0.2l-0.1,0.1l-0.1,0.1c-0.6,0.6-0.6,0.3-0.6,0.4s0,0,0,0.1c0,0-0.1,0.1-0.1,0
	c0,0-0.1,0.1-0.1,0.1H4.8l-0.2,0.2c-0.1,0-0.2,0.1-0.2,0.1c-0.1,0-0.1,0.1-0.1,0.1c-0.2,0.1-0.4,0.3-0.5,0.5
	c-0.2,0.2-0.2,0.4-0.2,0.6c0.1,0.1,0.3,0.1,0.5,0c0.1-0.1,0.3-0.2,0.4-0.2c0.2-0.1,0.4-0.1,0.6-0.1c0.3-0.1,0.6-0.1,0.9-0.2
	c0.1,0,0.3,0,0.4-0.1c0.1,0,0.2,0,0.3,0c0.1,0,0.2-0.1,0.2-0.1L7.2,24L7.4,24c0.2-0.1,0.4-0.1,0.5-0.2c0,0,0.1-0.1,0.2-0.1
	c0-0.1,0.1-0.1,0.2-0.1c0.1,0,0.2-0.1,0.3-0.1l0.3-0.1c0.1,0,0.1-0.1,0.1-0.1c0,0,0.1,0,0.1,0c0.1,0,0.1-0.1,0.1-0.1
	c0,0,0.1-0.1,0.1-0.1c0.2-0.2,0.2-0.1,0.2-0.1c0.1,0.3,0,0.3,0,0.3c0,0.1,0,0.3,0,0.4c0,0.1-0.1,0.3-0.1,0.4
	c-0.1,0.1-0.1,0.2-0.1,0.3l0,0c0,0,0,0.1,0,0.1l0,0c0.1,0.1,0.3,0.1,0.4,0c0,0,0,0,0,0c0.1,0,0.2,0,0.3-0.1c0.3-0.1,0.5-0.4,0.6-0.6
	c0.1-0.1,0.1-0.3,0.3-0.3c0.3-0.5,0-0.6,0-0.6c-0.1-0.2-0.3-0.4-0.5-0.5c0,0-0.1-0.1-0.1-0.1h-0.2c-0.2,0-0.2-0.1-0.3-0.1
	c-0.1,0-0.1,0-0.1,0.1c0,0-0.1,0-0.1,0c-0.1,0-0.1,0.1-0.1,0.2H9.4c0,0,0,0,0,0.1c-0.1,0-0.1,0-0.1,0.1c0,0,0,0.1-0.1,0.1
	c-0.1,0.1-0.2,0.1-0.3,0.2l-0.3,0.2c-0.1,0-0.1,0-0.2,0.1c-0.1,0-0.1,0-0.2,0.1c-0.1,0-0.1,0-0.2,0c-0.1,0.1-0.3,0.2-0.5,0.1
	c0,0,0,0.1-0.1,0.1c0,0,0,0,0,0H7.3c-0.1,0-0.1,0.1-0.2,0.1H6.8H6.4c0,0,0,0,0,0.1c-0.2,0-0.2,0-0.2,0H5.8c-0.3,0.1-0.3,0.2-0.3,0.2
	c-0.1,0-0.2,0-0.4,0c0-0.1-0.1,0-0.1,0c-0.1,0-0.2,0-0.3,0c0-0.1,0.1-0.1,0.2-0.2l0.2-0.2c0.1,0,0.1-0.1,0.2-0.2l0.1-0.1v-0.1l0,0
	c0.1-0.1,0.2-0.2,0.2-0.3c0,0,0.1-0.1,0.1-0.1c0,0,0-0.1,0-0.1c0,0,0.1,0,0.1,0L6,22.6v-0.1c0.1-0.1,0.2-0.1,0.3-0.2h0.3
	c0.1-0.1,0.1-0.1,0.2-0.1L6.9,22L7,21.9c0,0,0,0,0-0.1l0.1-0.1h0.1l0-0.1l0.2-0.1v-0.1c0.1-0.1,0.3-0.2,0.4-0.4
	C7.9,21,7.9,21,8,20.9c0.1-0.1,0.2-0.2,0.2-0.3c0-0.1,0.1-0.1,0.1-0.1c0.1-0.1,0.2-0.2,0.3-0.4c-0.1-0.2-0.4-0.3-0.6-0.4
	c-0.1,0-0.2,0-0.4,0c-0.1,0-0.1,0-0.2,0H7.2v0.1H7.1c0,0.1-0.1,0.1-0.1,0s-0.1,0-0.1,0l0,0c0,0-0.1,0-0.1,0c0,0,0,0,0,0
	c0,0,0-0.1,0-0.1c0,0,0,0,0,0c0,0,0.1,0,0.1,0c0,0,0-0.1,0-0.1c0,0,0,0,0.1-0.1c0,0.1,0.1,0,0.1,0l0,0c0,0,0-0.1,0-0.1l0.1-0.1
	c0.1,0,0.2-0.1,0.3-0.2c0,0,0-0.1,0.1-0.1c0,0,0,0,0,0c0-0.1,0.1-0.1,0.1-0.2l0,0c0,0,0,0,0.1,0c0,0,0-0.1,0.1-0.1c0,0,0,0,0,0
	c0,0,0.1-0.1,0.1-0.1c0-0.1,0-0.1,0.1-0.1c0,0,0.1-0.1,0.1-0.1c0.1,0,0.1-0.1,0.1-0.1c0.1-0.1,0.1-0.1,0.2-0.2
	c0.1-0.1,0.1-0.2,0.1-0.2c-0.1-0.1-0.1-0.1-0.1-0.2c-0.1-0.1-0.2-0.2-0.2-0.2c0,0-0.1,0-0.1,0c0-0.1-0.1-0.1-0.2,0H7.7l0,0
	c0,0-0.1,0,0,0.1H7c-0.1,0-0.1,0-0.1,0.1H6.8c-0.2,0-0.2-0.1-0.2-0.1c0-0.1,0.1-0.1,0.1-0.1c0-0.1,0.1-0.2,0.2-0.2l0,0
	c0-0.1,0-0.1,0.1-0.1c0,0,0,0,0,0c0,0,0.1-0.1,0.1-0.1c0.1,0,0.1-0.1,0.2-0.2c0,0,0-0.1,0-0.1c0.1,0,0.1-0.1,0.2-0.1
	c0.1-0.1,0.1-0.1,0.1-0.2c0,0,0-0.1,0-0.1v-0.2C7.7,16,7.7,16,7.8,16c0.1,0,0.1-0.1,0.1-0.1c0,0,0-0.1,0-0.1c0,0,0-0.1,0-0.1
	C8,15.6,8,15.5,8,15.4c0-0.1,0-0.2,0-0.2c0-0.1,0-0.1-0.1-0.1h0c0-0.1-0.1-0.1-0.1-0.1l-0.2-0.2l-0.2-0.1c-0.1-0.1-0.2-0.1-0.3-0.2
	v-0.2c0-0.1,0.2,0,0.2,0h0.5c0.1,0,0.1,0,0.2,0.1h0.4v0.7c0,0.5,0.1,0.5,0.1,0.5c0,0.1,0,0.1,0,0.2c0,0.1,0.1,0.3,0.2,0.3
	c0,0,0.1,0,0.1,0c0.1,0.1,0.2,0.1,0.3,0.1c0.2,0.1,0.5,0,0.7-0.1h0.3c0.3-0.1,0.7-0.2,1-0.4c0.1,0,0.2-0.1,0.3-0.2
	c0.2,0,0.2-0.1,0.2-0.1c0.1,0,0.1,0,0.2,0c0.1-0.1,0.2-0.1,0.3-0.2c0.1,0,0.1,0,0.2-0.1c0.1-0.1,0.1-0.1,0.1-0.1
	c0.1-0.1,0.1-0.1,0.2-0.1C12.4,15,12.5,14.9,12.6,14.7C12.7,14.8,12.7,14.7,12.6,14.7C12.6,14.7,12.6,14.7,12.6,14.7z M7,16
	c0,0.1-0.1,0.2-0.1,0.3c-0.1,0-0.1,0.1-0.2,0.2c0,0.1-0.1,0.2-0.1,0c0.1-0.1,0.1-0.2,0.2-0.3c0-0.1,0.1-0.2,0.1-0.3
	c0-0.1,0.1-0.1,0.1,0C7.1,15.9,7.1,16,7,16L7,16z M8.6,12c0,0-0.1,0.6-0.1,0.8c0,0,0,0,0.1,0.1c0,0-0.1,0.1-0.1,0.1
	c0,0.1,0,0.4,0,0.4c0,0,0,0.1,0,0.1c0,0.1-0.1,0.3-0.1,0.4C8.4,14,8.4,14,8.3,14h-1c-0.1,0-0.1-0.1-0.1-0.2l0,0c0,0,0.1-0.7,0.1-0.8
	c0.1-0.1,0.1-0.2,0.2-0.3c0.3-0.3,0.5-0.6,0.8-0.9c0-0.1,0.1-0.2,0.1-0.2c0,0,0,0,0.1,0C8.7,11.8,8.7,11.9,8.6,12L8.6,12z
	 M11.3,14.9c-0.1,0.1-0.2,0.2-0.3,0.2c-0.1,0.1-0.2,0.1-0.2,0.1c-0.1,0.1-0.1,0.1-0.2,0.1c-0.1,0-0.2,0-0.2,0.1
	c-0.1,0-0.2,0.1-0.3,0.1c0,0-0.3,0-0.6,0.1c-0.2,0-0.3,0-0.5-0.1c0,0-0.2,0-0.2-0.5v-0.5c0,0-0.1-0.1,0-0.1l0,0c0.2,0,0.4,0,0.6,0.1
	c0,0,0.6,0,0.8,0.1h0.3c0.1,0,0.2,0,0.2,0c0,0.1,0.1,0.1,0.2,0.1c0.1,0,0.1,0.1,0.2,0.1C11.3,14.7,11.3,14.8,11.3,14.9
	C11.4,14.8,11.4,14.9,11.3,14.9L11.3,14.9z"/>
<path class="st0" d="M0.4,9.7c0,0,0,0.1,0,0.1c0,0,0.1,0.1,0.1,0.1C0.5,10,0.6,10,0.6,10c0,0,0.1,0,0.1,0.1h0.1L1,10.2l0,0
	c0.1,0,0.1,0,0.2,0v0.1h0.3c0,0,0.1,0,0.1,0c0,0,0.1,0,0.1,0.1h0.2c0,0,0.1-0.1,0.1-0.1h0.1l0.1-0.1h0.1L2.4,10
	C2.7,10,2.9,9.9,3.1,9.8c0.1,0,0.1,0,0.2,0c0,0,0.1,0,0.1-0.1c0,0,0.1,0,0.1,0l0,0c0,0,0,0,0.1-0.1c0,0,0.1-0.1,0.1-0.1h0.1v0
	c0,0,0,0,0-0.1l0.1-0.1c0,0,0,0,0.1-0.1c0.1,0,0.1,0,0.2,0c0.1-0.1,0.2-0.1,0.3-0.1c0,0,0.1,0,0.1,0s0-0.1,0-0.1l0,0h0.2
	c0,0,0-0.1,0.1-0.1l0.1-0.1c0,0,0.1,0,0.1,0c0,0,0.1-0.1,0.1-0.1l0.2-0.1h0.2c0.1,0,0.1-0.1,0.2-0.2c0,0,0,0,0-0.1h0.1
	c0,0,0-0.1,0-0.1h0.2c0,0,0.1,0,0.1-0.1h0.1C6.1,8.2,6.2,8.1,6.2,8c0.1,0,0.1,0,0.2,0C6.5,8,6.5,8,6.6,8c0,0,0,0,0-0.1l0,0
	c0,0,0-0.1,0-0.1c0,0,0.1,0,0.1,0c0,0,0,0,0,0.1c0,0,0.2-0.2,0.3-0.2l0.3-0.2c0,0,0,0,0.1,0c0.1,0,0.1-0.1,0.2-0.1h0.6h0.3
	c0,0,0.1,0,0.1,0l0,0c0,0,0.1-0.1,0.2-0.1s0,0,0.1,0s0-0.1,0-0.1s0,0,0.1,0c0,0,0.1,0,0.1,0C8.9,7,9,7,9.1,6.9h0.1
	c0.1-0.1,0.3-0.2,0.4-0.3c0.1-0.1,0.3-0.1,0.4-0.1c0.1,0,0.2-0.1,0.2-0.2c0,0,0-0.1,0.1-0.1c0,0,0.1-0.1,0.1-0.1c0,0,0-0.1,0-0.1
	c0-0.1-0.1-0.1-0.1-0.2c0,0,0-0.1,0-0.1c0,0-0.1,0-0.1,0c-0.1-0.1,0-0.1-0.1-0.1c-0.1,0-0.2,0-0.3,0.1H9.5L9.3,5.7
	c0,0-0.3,0.2-0.4,0.2C8.8,6,8.6,6.1,8.4,6.3c-0.1,0-0.2,0-0.3,0.1C8,6.4,7.9,6.5,7.8,6.7c-0.1,0-0.2,0-0.3,0.1
	C7.4,6.9,7.2,6.9,7.1,7C7,7,6.9,7.1,6.9,7.1L6.7,7.3c-0.1,0-0.2,0.1-0.3,0.2L6.3,7.5c-0.1,0-0.2,0-0.2,0.1c0,0-0.5,0.3-0.6,0.3
	c0,0-0.1,0-0.1,0V8H5.3L5.2,8.1H5.2c0,0,0,0,0,0.1C5.1,8.2,5,8.2,4.9,8.3c0,0,0,0-0.1,0L4.7,8.4H4.6c0,0,0,0.1,0,0.1
	c0,0-0.1,0.1-0.1,0.1C4.2,8.5,4.1,8.6,4,8.7H3.9L3.8,8.8H3.4L3.1,8.9H2.9v0H2.9c0,0,0,0,0,0.1C2.7,9.1,2.5,9.2,2.3,9.2
	c-0.1,0-0.1,0-0.2,0H1.9H1.8H1.7c0,0,0,0.1-0.1,0.1c-0.1,0-0.2,0-0.3,0c-0.1,0-0.2,0-0.4,0c-0.1,0-0.2,0-0.3-0.1L0.5,9.1
	C0.4,9.1,0.3,9,0.3,8.9c0,0.1,0,0.2,0,0.3c0,0,0,0.1,0,0.1c0,0,0,0.1,0,0.1c0,0-0.1,0.1-0.1,0.1C0.3,9.7,0.3,9.7,0.4,9.7z"/>
<path class="st0" d="M7.8,4.6L8,4.5l0.3-0.1c0.1,0,0.2,0,0.2-0.1c0,0,0.1,0,0.1,0V4.3h0.1c0.3-0.2,0.7-0.3,1-0.6
	c0,0,0.3-0.2,0.4-0.3c0.2-0.2,0.4-0.5,0.5-0.8c0,0,0-0.1,0-0.1l0,0V2.5c0,0,0.1-0.1,0.1-0.1V2.2V2.1c0-0.1,0-0.3,0-0.4l-0.1-0.2
	c0-0.1,0-0.1-0.1-0.1V1.3c0,0,0,0.1,0,0.1c-0.1,0.1-0.1,0.1-0.1,0.2v0.1c0,0.1,0,0.2,0,0.4c0,0,0,0.1,0,0.1c0,0.1-0.1,0.2-0.1,0.3
	c-0.1,0.1-0.2,0.3-0.4,0.4L9.6,3.2v0.1C9.4,3.3,9.4,3.3,9.3,3.4c-0.1,0-0.1,0.1-0.2,0.1c0,0-0.1,0-0.1,0.1c0,0,0,0,0,0.1
	c0,0.1,0.1,0,0,0.1L8.9,3.8H8.8c0,0,0,0,0-0.1l0,0c0,0,0,0,0,0.1c0,0-0.1,0-0.1,0c0,0-0.1,0.1-0.1,0.1H8.4C8.3,4,8.2,4,8.2,4
	c0,0-0.1,0.1-0.1,0.1c0,0-0.1,0.1,0,0.1c0,0,0,0.1,0,0.1c0,0-0.1,0-0.1,0c0,0.1-0.1,0.1-0.1,0.1c0,0-0.1,0,0,0.1L7.8,4.6z"/>
<path class="st0" d="M3.2,4.2C3.2,4.2,3.1,4.3,3.2,4.2L3.2,4.2C3.1,4.3,3.1,4.3,3.1,4.4c0,0.1,0.2,0.3,0.2,0.4c0,0,0,0.1,0.1,0.1
	c0,0,0,0.1,0.1,0.1c0.1,0.1,0.3,0.2,0.5,0.2C4,5.2,4.1,5.3,4.2,5.3c0.1,0,0.2-0.1,0.3-0.2h0.1L4.7,5c0.1-0.1,0.1-0.2,0.2-0.3
	c0-0.1,0-0.1,0-0.2c0,0,0-0.1,0-0.1c0,0,0.1-0.1,0.1-0.1c0.1,0,0.1-0.1,0.2-0.2c0,0,0-0.1,0-0.1c0,0.1-0.1,0.1-0.1,0.1
	c0,0,0,0-0.1,0c0,0.1-0.1,0.1-0.1,0.2c0,0-0.1,0-0.1,0.1c0,0-0.1,0.1-0.1,0.1c-0.1,0-0.2,0.1-0.2,0.1H4.2c0,0-0.1,0-0.1,0
	c0-0.1-0.1-0.1-0.2-0.1c0-0.1-0.1-0.1-0.2-0.1C3.7,4.3,3.6,4.2,3.6,4.1C3.4,3.9,3.4,3.5,3.3,3.4C3.2,3.3,3.2,3.2,3.2,3.2v0.1
	C3.1,3.4,3.1,3.6,3.1,3.8c0,0.1,0,0.1,0,0.2C3.1,4.1,3.1,4.1,3.2,4.2C3.1,4.1,3.1,4.1,3.2,4.2C3.2,4.2,3.2,4.2,3.2,4.2z"/>
<path class="st0" d="M0.3,9L0.3,9C0.3,9,0.3,9,0.3,9L0.3,9L0.3,9z"/>
<path class="st0" d="M25.4,16.1L25.4,16.1L25.4,16.1z"/>
<path class="st0" d="M8.8,13.2L8.8,13.2z"/>
<path class="st0" d="M27.2,20.6c-0.2-0.1-0.3-0.2-0.5-0.3c0-0.1-0.1-0.3-0.1-0.4c0-0.1,0-0.2,0-0.3c0.1-0.2,0.1-0.4,0.1-0.5
	c0-0.2-0.2-0.5-0.4-0.6c-0.1-0.1-0.2-0.1-0.3-0.2c-0.1-0.1-0.2-0.1-0.3-0.2c-0.1-0.1-0.2-0.3-0.2-0.4c0,0,0-0.1,0-0.1
	c0-0.1,0-0.1,0-0.2v-0.3c0,0,0-0.1,0-0.1c0-0.1,0-0.2,0-0.3c0,0,0-0.2,0-0.3c0-0.1,0-0.1-0.1-0.2c0,0,0-0.1,0-0.1c0,0,0.1,0,0-0.1
	s-0.1-0.1-0.1,0s0,0.4,0,0.4c0,0.1,0,0.3,0,0.4c0.1,0,0.1,0.1,0.2,0.2c0,0-0.1,0-0.1,0.2c0,0.1,0,0.2,0,0.3c0,0,0,0.1,0,0.1
	c0,0.1-0.1,0.1-0.1,0.2c0,0.2,0,0.4,0,0.5c0,0,0,0.1,0,0.1c0,0.1,0,0.2,0,0.2c0,0.1,0,0.3,0,0.4c0,0.1,0,0.1,0.1,0.2
	c0,0.1,0,0.2,0,0.3l0.1,0.1c0,0.1,0.1,0.2,0.2,0.3h0.3c0.2,0.1,0.3,0.2,0.4,0.4c0.1,0.2,0.1,0.4,0.2,0.6c-0.1,0.1-0.3,0.3-0.5,0.4
	c-0.3,0.2-0.6,0.4-0.9,0.5c-0.1,0-0.2,0-0.3,0.1c-0.1,0-0.2,0.1-0.3,0.1c-0.3,0.1-0.6,0.2-0.9,0.4c0,0,0,0.1,0,0c0.1,0,0.1,0,0.2,0
	l0.1-0.1h0.1c0.2,0,0.3-0.1,0.5-0.1l0.2,0c0,0,0,0.1,0,0l0.2-0.1c0.1,0,0.2,0,0.3,0c0.1-0.1,0.2-0.2,0.3-0.2H26h0.2l0.1-0.1h0.1
	c0.1-0.1,0.2-0.1,0.3-0.2h0.2c0,0,0.1-0.1,0.2-0.1c0.1,0,0.1,0,0.2,0.1c0.1,0,0.1,0,0.2,0.1c0.1,0,0.1,0,0.2,0c0.1,0,0,0,0.1,0
	l0.1-0.1c0,0,0.1-0.2,0.2-0.3c0-0.1,0-0.1,0-0.2c0-0.2-0.1-0.4-0.3-0.6C27.5,20.7,27.4,20.7,27.2,20.6z"/>
<path class="st0" d="M24.3,10.4c0,0,0-0.1,0-0.1l0,0C24.3,10.3,24.3,10.4,24.3,10.4C24.3,10.4,24.3,10.4,24.3,10.4v0.2c0,0,0,0,0,0
	C24.3,10.5,24.3,10.4,24.3,10.4z"/>
<path class="st0" d="M29.1,7.6c-0.1-0.2-0.4-0.4-0.7-0.4c-0.1,0-0.1,0-0.2-0.1C28.1,7,28,7,27.8,7h-2.3c0,0.1-0.1,0.1-0.1,0.1
	c-0.1,0-0.1,0-0.2-0.1h-0.1h-0.2h-0.1h-0.1c-0.1,0.1-0.2,0.1-0.3,0.1c0,0,0,0.1,0,0.1h-0.1c0,0-0.1,0-0.2,0c0,0-0.1,0.1-0.1,0.1
	c0,0-0.1,0-0.1-0.1c-0.1,0-0.1,0-0.1,0.1l-0.2,0.1l-0.3,0.1c0,0,0,0.1-0.1,0.1c0,0,0,0,0,0c-0.1,0-0.2,0.1-0.3,0.2h-0.1l0,0
	c0,0-0.1,0-0.1-0.1c0,0,0,0,0,0c-0.1-0.1-0.1-0.2,0-0.3L22.9,7c0-0.2-0.1-0.2-0.1-0.2c0-0.1,0-0.2,0-0.4c0,0,0-0.1-0.1-0.1
	c-0.1-0.2-0.2-0.3-0.3-0.5c-0.1-0.1,0-0.1,0-0.1c0.1,0,0.1,0,0.1-0.1c0.1,0,0.1,0,0.2-0.1c0,0,0.1,0,0.2,0l0.3-0.1
	c0.1,0,0.1,0,0.2,0l0.5-0.1c0.2,0,0.4,0,0.7,0c0.2-0.1,0-0.1,0-0.1s-0.1-0.2,0-0.2s0,0-0.1,0l-0.5-0.2c-0.2-0.2-0.4-0.4-0.6-0.6
	c-0.2-0.1-0.4-0.2-0.6-0.3l-0.6,0c-0.6,0-1.2-0.1-1.8-0.4v0c0-0.2-0.1-0.3-0.3-0.4s-0.3,0.1-0.4,0.3c0,0,0,0.1,0,0.1
	c0,0,0,0.1,0,0.1L19.5,4v0.1c0,0,0,0,0,0.1l0,0c0,0,0,0.1,0,0.1c0,0,0,0.1,0,0.1c0,0,0.1,0.2,0.1,0.2c0,0,0,0.1,0,0.1h0.1v0.1
	c0,0,0.1,0.1,0.2,0.1l0.4,0.5c0.1,0,0.2,0,0.4,0c0.1,0,0.1,0.3,0.1,0.3c0,0.2,0,0.4-0.1,0.6c0,0.2-0.1,0.8-0.1,0.8
	c0,0.1,0,0.1,0,0.2v0.4c0,0,0,0.1,0,0.1c0,0.1,0,0.1,0,0.2c0,0.1,0,0.1,0,0.2c0,0.1,0,0.2-0.1,0.2c-0.2,0.1-0.5,0.3-0.7,0.4
	c-0.1,0-0.2,0-0.3,0.1l-0.1,0.3l-0.5,0.2c-0.1,0-0.1,0-0.2,0c-0.2-0.2-0.3-0.3-0.5-0.4c-0.1-0.1-0.2-0.2-0.3-0.2l0,0
	c-0.1,0-0.1,0.1-0.1,0.1c0,0,0,0,0,0c0,0.1,0,0.1-0.1,0.2c0,0.1,0,0.1,0,0.2c0,0.1,0,0.3-0.1,0.4c-0.1,0-0.1,0-0.2,0.1
	c0,0-0.1,0-0.1,0c-0.1,0-0.2,0-0.3,0c-0.1,0-0.3,0.1-0.4,0.1h-0.6h-0.3c0-0.1,0-0.2-0.1-0.3h-0.1c0-0.1-0.1-0.1-0.1-0.1
	c0,0,0,0,0-0.1c0,0-0.1,0-0.1,0L15,9.2h-0.1v0.1l-0.1,0.1v0.2l-0.1,0.2c0,0.1-0.1,0.1-0.1,0.2c0,0,0,0.1,0,0.1c0,0-0.1,0.1-0.1,0.1
	c0,0.1,0,0.2,0,0.3l-0.1,0.1v0.2c0,0,0,0.1-0.1,0.1c0,0.1,0,0.1,0,0.2v0.2c0,0.1,0,0.1,0,0.2v0.1c0,0,0,0,0,0.1c0,0.1,0,0.2,0,0.2
	c0,0.1,0,0.2,0.1,0.3c0.1,0.1,0.1,0.1,0.1,0.2c0,0.1,0.1,0.1,0.1,0.2c0,0,0.1,0,0.1,0.1l0.2,0.1c0.1,0,0.2,0,0.3,0
	c0.1,0,0.1,0,0.1,0.1h0.2h0.3c0,0,0.1-0.1,0.1-0.1l0.1-0.1c0,0,0.1,0,0.1,0c0-0.2,0.1-0.3,0.1-0.5c-0.1-0.1-0.1-0.2-0.2-0.3
	c0-0.1,0-0.1,0-0.2c0-0.1,0-0.2,0-0.3c0-0.1,0-0.1,0-0.2c0,0,0-0.1,0-0.1c0.2,0,0.4,0,0.6,0c0.1,0,0.1,0,0.2,0c0.1,0,0.2,0,0.3,0
	c0.1,0,0.1,0,0.2,0.1l0.1,0c0.1,0.1,0.2,0.3,0.2,0.5c0,0.1,0.1,0.2,0.2,0.3c0,0.1,0,0.2,0,0.3c0,0.1,0.1,0.3,0.1,0.5
	c0.1,0.1,0.1,0.3,0.1,0.4c0,0.2,0.1,0.4,0.2,0.5c0,0.1,0.1,0.3,0.2,0.4c0.1,0,0.2,0,0.3-0.1c0.1,0,0.2,0,0.3,0c0,0,0.1-0.1,0.2-0.1
	c0.2,0,0.3-0.1,0.5-0.2c0.1-0.1,0.1-0.1,0.2-0.1c0.2-0.1,0.4-0.2,0.5-0.4c0.2-0.2,0.3-0.3,0.5-0.5c0.1-0.2,0.2-0.1,0.2-0.1
	c0.1,0,0.2,0,0.2,0l0.2,0.2l0,0c0,0,0.1,0,0.2,0c0,0,0.1-0.1,0.1-0.1c0,0,0-0.1,0.1-0.1c0,0,0,0,0,0c0,0,0.1-0.1,0-0.1
	c-0.1,0,0-0.1,0-0.1c0.1,0,0.1-0.1,0.1-0.2c0.1,0,0.1,0,0.2,0c0,0,0.1-0.1,0.1-0.1l0.1-0.1l0,0c-0.1,0.1-0.1,0-0.1,0
	c0-0.1,0-0.1,0-0.2c0-0.1,0-0.2,0-0.3c0,0,0-0.1,0-0.1c0,0,0-0.1,0-0.1c0-0.1,0-0.1,0-0.2c0-0.1,0-0.2,0-0.3c0,0,0-0.1,0.1-0.1
	c0.1,0,0.1-0.1,0.1-0.2c0,0,0,0,0.1,0c0-0.1,0-0.1,0.1-0.2c0,0,0-0.1,0-0.1l0.6-0.7l0,0c0.1,0,0,0,0.1-0.1c0,0.1,0,0.2,0,0.4
	c0,0.1,0,0.2,0,0.3c0,0.1,0,0.3,0,0.4V11c0,0,0,0.1,0,0.1c0,0-0.1,0-0.1,0c-0.2,0-0.2,0.1-0.2,0.1h0.1c0.1,0-0.1,0.1-0.1,0.1
	c-0.1,0-0.1,0-0.1,0.1c0,0,0,0,0,0.1l0,0c0.1,0,0.1,0,0.2,0c0.1,0,0,0.1,0,0.1c-0.1,0.1-0.1,0.2-0.2,0.3c-0.1,0.1-0.1,0.1-0.1,0.2
	h-0.1c0,0-0.1,0-0.1,0.1c0,0.1-0.1,0-0.1,0s0.1,0.1,0,0.1h-0.1c0,0,0,0.1,0,0.1c0,0,0,0-0.1,0h-0.1c0,0,0,0-0.1,0
	c-0.1,0-0.1,0-0.2,0.1c0,0.1-0.1,0.1-0.2,0.2c0,0,0-0.1,0-0.1c-0.1,0-0.1,0.1-0.1,0.1v0.1h-0.1c-0.1,0-0.1,0.1-0.1,0.1
	c0,0.1-0.1,0.1-0.1,0.2c0,0-0.1,0-0.1,0c0,0,0,0.1,0,0.1c0,0-0.1,0-0.1,0.1c0,0,0,0,0,0h-0.2c0,0.1-0.1,0.1-0.1,0.1c0,0,0,0.1,0,0.1
	h-0.2c-0.1,0.1-0.2,0.2-0.3,0.3l-0.3,0.2c-0.1,0.1-0.1,0.1-0.2,0.2c0,0.1-0.1,0.1-0.1,0.1c0,0.1-0.1,0.2-0.1,0.2
	c-0.1,0.1-0.1,0.3-0.2,0.4c0,0.1,0,0.3-0.1,0.4c0,0.1,0,0.2,0,0.4c0,0.2,0.1,0.5,0.1,0.7l0,1.2c0,0.2,0.1,0.9,0.1,0.9
	c0.1,0.2,0.1,0.5,0.2,0.7c0,0.2,0,0.3,0,0.5c0,0,0,0.1,0,0.1c0,0,0,0,0,0.1c0,0,0,0,0,0c0,0,0,0,0,0c0,0,0,0,0,0v0.1
	c0,0.1,0,0.2,0,0.3c-0.1,0.1-0.2,0.2-0.3,0.3c-0.1,0-0.1,0-0.2,0.1c-0.1,0.1-0.3,0.2-0.4,0.3c-0.1,0.1-0.1,0-0.1-0.1v-1
	c0-0.2,0-0.3-0.1-0.5c0-0.1,0-0.2,0-0.3c0-0.1,0-0.1,0-0.2v-1.5c0-0.1,0-0.3-0.1-0.4c0-0.1,0-0.1,0-0.2v-0.3c0-0.1,0-0.1,0-0.2v-0.2
	c0-0.1,0-0.1,0-0.2l0,0c0,0,0-0.1,0-0.1l0-0.1c0-0.1,0-0.2,0-0.3c0-0.1-0.1-0.3-0.1-0.4c0-0.1-0.1-0.1-0.2-0.2
	c-0.1-0.1-0.1-0.2-0.3-0.2c0,0,0-0.1,0-0.1l0,0c0,0,0-0.1,0-0.2c0,0,0,0,0,0c-0.1,0-0.2,0-0.2,0.1c0,0-0.1,0-0.1,0c0,0,0,0.1,0,0.1
	c-0.1,0-0.2,0-0.2,0H17c-0.1,0.1-0.3,0.2-0.4,0.3c-0.1,0-0.1,0.1-0.1,0.2c0,0,0,0.1,0.1,0.1c0,0,0,0.1,0,0.1c0,0,0,0.1,0.1,0.1
	c0.1,0.1,0.1,0.1,0.2,0.2c0.1,0,0.1,0.1,0.2,0.1l0.1,0.2c0.1,0,0.1,0,0.2,0l0.1,0.2h0.1c0,0,0.1,0.1,0.1,0.1c0,0,0,0.1,0.1,0.1h0.1
	c0,0,0.1,0.1,0.1,0.2c0,0.1,0.1,0.1,0.1,0.1c0.1,0.1,0.2,0.3,0.2,0.4c0,0.1,0,0.1,0.1,0.2c0,0.1,0,0.1,0.1,0.2c0,0,0,0.1,0,0.1
	c0,0.1,0,0.2,0,0.3c0,0.1,0,0.1,0,0.2c0,0.1,0,0.3,0,0.4c0,0.1,0,0.1,0,0.2c0,0,0,0.1,0,0.1c0,0.1,0,0.1,0,0.2c0,0,0,0.1,0.1,0.1
	c0,0,0,0.1,0,0.1c0,0.1,0,0.1,0,0.2c0,0,0,0.3,0,0.3c0,0.3,0,0.5-0.1,0.8c0,0.1-0.1,0.3-0.1,0.4c0,0.1,0,0.1,0,0.2
	c0,0.1,0,0.2-0.1,0.4c0,0.1,0,0.1,0,0.2l-0.1,0.1c0,0,0,0.1,0,0.1c0,0.1,0,0.1-0.1,0.1c0,0.1,0,0.1,0,0.2v0.2c0,0,0,0.1,0,0.1
	c0,0,0,0.1,0,0.1l0.1,0.1c0.1,0.2,0.2,0.3,0.4,0.3c0.3-0.1,0.5-0.2,0.6-0.5c0,0,0.1-0.1,0.1-0.1l0,0c0,0,0-0.1,0-0.1
	c0,0,0-0.1,0-0.1h0.1l0.1-0.1c0,0,0-0.1,0-0.1c0.1-0.1,0.2-0.2,0.3-0.2c0,0,0-0.1,0-0.1c0.1,0,0.1,0,0.2,0v-0.1v-0.2l0.2-0.1
	c0,0,0.1,0.1,0.1,0.1l-0.1,0.1c0,0.1,0.1,0.1,0.2,0.1l0,0h0.1c0,0,0,0.1,0,0.1c0.1,0.1,0.2,0.1,0.3,0.2l0,0l0,0l0.1,0.1l0.1-0.1
	c0.1,0,0.1,0,0.1-0.1c0,0,0-0.1,0-0.1c0,0,0.1-0.1,0.1-0.1c0-0.1,0-0.2,0-0.3c0-0.1,0-0.1,0-0.2v-0.1l0,0c0,0,0-0.1,0-0.1l0,0l0,0
	c0-0.1,0-0.1,0-0.2l0,0c0,0,0-0.1,0-0.1v-0.4c0,0,0-0.1,0-0.1v-0.2c0-0.1,0-0.1,0.1-0.2c0-0.1,0-0.1,0-0.2h0.1c0,0,0,0,0-0.1h0.1
	c0,0,0-0.1,0-0.1c0-0.1,0-0.2,0-0.2c0.1,0,0.2,0,0.2,0c0,0,0-0.1,0-0.1c0,0,0-0.1,0-0.1h0.1c0,0,0-0.1,0-0.1c0,0,0-0.1,0-0.1v-0.1
	h0.1v-0.1c0,0,0,0,0,0l0,0l0,0l0.1-0.1v-0.2h0.1c0,0,0.1-0.1,0.1-0.1h0V18c0,0,0.1,0,0.1,0c0,0.1,0,0.1,0,0.2c0,0.1,0,0.1,0,0.2v0.1
	v0.2c0,0,0,0.1,0,0.1v0.1c0,0.1,0,0.1,0,0.2c0,0.1,0,0.2,0,0.2c0,0,0,0.1,0.1,0.1c0,0.1,0,0.2,0,0.3c0,0.1,0,0.1,0,0.2v0.2
	c0,0.1,0,0.2,0,0.3c0,0,0,0.1,0,0.1c0,0,0,0.1,0,0.1c0,0.1,0,0.1,0,0.2c0,0,0,0.1,0,0.1c0,0.1,0,0.2-0.1,0.4c0,0.1,0,0.2,0,0.3
	c0,0.1,0,0.1,0,0.2c0,0,0,0.8,0,0.8c0,0.1,0,0.2,0,0.3c0,0-0.1,0.1-0.1,0.1c0,0,0,0,0,0.1c0,0,0,0,0.1,0.1l0,0c0,0,0,0.1,0,0.1
	c0,0,0,0,0,0c0,0.1,0,0.2,0,0.2c0,0,0,0.1,0,0.1c0,0.1,0,0.3,0,0.4c0,0,0,0.1,0,0.1c0,0,0,0,0,0.1l0.1,0.1c0,0,0.1,0.1,0.1,0.1
	c0,0,0,0,0,0h0.1l0,0h0.1c0-0.1,0-0.1,0-0.2c0,0,0.1,0.1,0.1,0s0-0.1,0.1-0.1s0,0.1,0.1,0.1c0,0,0.1,0,0.1,0v-0.3c0,0,0-0.1,0-0.1
	c0-0.1,0-0.1-0.1-0.2c0-0.1,0-0.1-0.1-0.2v-0.1c0-0.1,0-0.1,0-0.2c0-0.1,0-0.1,0.1-0.1v-0.3h0.1l0.1-0.2c0,0,0-0.1,0-0.1
	c0-0.1,0.1-0.1,0.1-0.1c0,0,0-0.1,0-0.1c0,0,0-0.1,0.1-0.1c0,0,0.1-0.1,0-0.1c0,0,0-0.1,0-0.1c0-0.1,0-0.1,0-0.2
	c0-0.1-0.1-0.2-0.1-0.3v-0.2c0-0.1-0.1-0.1-0.1-0.1c0,0-0.1,0-0.1,0c0-0.1,0-0.1,0-0.1h0.1c0-0.1,0-0.1,0-0.2V20c0,0,0-0.1,0-0.1
	v-0.4c0,0,0,0,0-0.1c0,0,0,0,0,0.1c0,0,0,0,0,0.1l0,0c0,0,0,0,0,0.1c0,0,0,0.1,0,0.1c0,0,0,0-0.1,0c0,0,0-0.1,0-0.1v-0.1
	c0,0,0-0.1,0-0.1l0,0c0,0,0-0.1,0-0.1c0,0-0.1-0.1-0.1-0.1c0,0,0,0,0,0h0.1c0,0,0,0,0.1,0c0,0,0,0,0-0.1c0,0,0,0-0.1,0H23
	c0,0,0-0.1,0-0.1c0-0.1,0-0.1,0-0.2h0c0,0,0-0.1,0-0.1l0.1-0.1h0.1c0,0.1,0,0.2,0,0.2c0,0,0,0.1,0,0.1h0v-0.2c0,0,0-0.1,0-0.1
	c0,0,0-0.1,0-0.1c0,0,0,0,0-0.1c0,0,0-0.1,0-0.1c0-0.1,0-0.1,0-0.2c0,0,0,0-0.1-0.1v0.1c0,0,0,0,0,0c0,0,0,0.1,0,0.1
	c0,0-0.1,0-0.1,0c0-0.1,0-0.1,0-0.2c0,0,0-0.1,0-0.1v-0.2c0-0.1,0-0.1,0-0.2c0,0,0,0-0.1,0s0-0.1,0-0.1h0c0,0,0-0.1,0-0.1H23v0.1
	c0,0,0,0.1,0,0.1l0,0c0,0,0-0.3,0-0.3c0-0.1,0-0.1,0-0.2c0,0,0,0,0,0.1c0,0,0,0.1,0,0.1l0,0c0,0,0,0,0,0c0,0.1-0.1,0-0.1,0
	c0,0,0-0.1,0-0.1c0,0,0,0,0.1,0s0-0.1,0-0.1c0-0.1,0-0.1,0-0.2c0,0,0.1,0,0.1-0.1c0-0.1,0.1,0,0.1,0s0.3-0.5,0.3-0.5v-0.1
	c0,0,0,0,0-0.1c0,0,0-0.1,0-0.1c0,0,0-0.1,0-0.1c-0.1-0.1-0.1-0.3,0-0.3c0,0,0,0,0,0c0,0,0.1,0,0.1-0.1c0.2-0.3,0.5-0.7,0.7-1
	c0.1-0.1,0.2-0.2,0.3-0.2c0.1,0,0.1,0.1,0.1,0.2c0,0.1,0.1,0.1,0.1,0.2c0,0.1,0.1,0.1,0.1,0.2c0,0.1,0.1,0.1,0.1,0.2
	c0,0,0.1,0,0.1,0.1s0,0.1,0.1,0.1s0,0.1,0,0.2v0.1c0,0.1,0.1,0.2,0.1,0.3s0,0.1,0,0.1s0,0.1,0,0.1c0,0,0.1,0,0.1,0
	c0,0.1,0.1,0.1,0,0.2c0,0,0,0,0,0c0,0,0-0.1,0-0.1c0,0,0-0.1,0-0.1c0-0.2,0-0.2,0-0.2c0-0.1,0-0.2,0-0.3c0-0.2,0-0.3,0-0.5
	c0-0.1,0-0.1,0-0.2l0.3-0.4l0.3-0.2c0.1-0.2,0.1-0.5,0-0.8c-0.1-0.1-0.1-0.2-0.2-0.3c0-0.1-0.1-0.1-0.2-0.2h-0.3
	c-0.1,0-0.2,0.1-0.3,0.1C25.1,13,25,13,24.9,13c-0.1,0-0.3,0.1-0.4,0.2h-0.1c0,0-0.1,0.1-0.1,0.1c0,0.1-0.1,0.1-0.1,0.2v0.3
	c-0.2,0.2-0.3,0.3-0.3,0.5c-0.1,0.1-0.1,0.2-0.2,0.3h0.1c0-0.1,0.1-0.2,0.1-0.2l0,0c0.1,0,0,0.1,0,0.1c-0.1,0.1-0.2,0.3-0.3,0.4
	c0,0,0,0.1-0.1,0.1c0,0.1,0,0.1-0.1,0.2c0,0-0.1,0-0.1,0.1c0,0.1,0,0.1,0,0.1c0,0,0,0.1-0.1,0.1c0,0.1-0.1,0.1-0.1,0.2
	c-0.1,0.2,0,0.1-0.1,0.1s0-0.1,0-0.1s0-0.2,0-0.1s-0.1,0-0.1,0c0-0.1,0-0.1,0-0.2c0-0.1,0-0.2,0-0.3c0.1-0.1,0.1,0.1,0.1,0.1
	c0-0.2,0-0.3,0-0.5c0-0.1,0-0.2,0.1-0.2c0.1-0.1,0.1-0.2,0-0.3c0,0-0.1-0.1-0.1-0.2c0,0-0.1-0.1-0.2-0.1C23,14,22.8,14,22.7,14
	c-0.1,0-0.1,0-0.2,0.1h-0.2c0,0.1-0.1,0.1-0.1,0.1c0,0.1-0.1,0.1-0.2,0.2c-0.1,0.1,0,0.2,0,0.2c0,0.1,0.1,0.2,0.2,0.2
	c0,0.1,0,0.2,0.1,0.3c0,0.2,0,1.6,0,1.6c0,0.2,0,0.3,0,0.5c0,0.1,0,0.1-0.1,0.1c0,0-0.1,0.1-0.1,0.2c0,0.1,0,0.1,0,0.2
	c-0.1,0.1-0.2,0.1-0.2,0.2c0,0.1-0.2,0.1-0.1,0.1s0.1,0.1,0,0.1s-0.1,0-0.1,0c0,0.1,0,0.1,0,0.2c-0.1,0.1-0.1,0.3-0.3,0.4
	c-0.1,0.1-0.1,0.1-0.1,0.2c-0.1,0.2-0.1,0-0.1,0c-0.1-0.2-0.1-0.4-0.1-0.6c0-0.1,0-0.2,0-0.2c0.1-0.3,0-0.3,0-0.3c0-0.5,0-1.1,0-1.6
	c0-0.1,0-0.3-0.1-0.4c0-0.1,0-0.2-0.1-0.3c-0.1-0.1-0.1-0.2-0.2-0.3c-0.1-0.1-0.2-0.2-0.3-0.3c0,0,0-0.1,0-0.1
	c-0.1,0-0.1-0.1-0.1-0.1c0,0,0-0.1,0-0.1c0-0.1,0-0.1,0-0.2c0-0.1,0-0.2,0.1-0.2c0.1,0,0.2-0.1,0.2-0.2c0,0,0.1,0,0.1,0v0
	c0,0,0.1-0.1,0.2-0.1c0,0,0.1-0.1,0.1-0.1l0.2-0.1c0,0,0.1-0.1,0.1-0.2c0,0,0.1,0,0.1,0c0.1,0,0.2,0,0.3-0.1h0.1
	c0.1,0,0.2-0.1,0.2-0.2c0.1,0,0.1,0,0.2-0.1l0.2-0.1c0-0.1,0.1-0.1,0.2-0.1l0,0c0,0,0.1-0.1,0.1-0.1c0,0,0,0,0,0c0.1,0,0.1,0,0.1,0
	c0.1-0.1,0.2-0.1,0.3-0.2c0.1,0,0.1,0,0.1-0.1c0.2,0,0.4-0.1,0.5-0.3c0.1,0,0.3-0.1,0.3-0.2c0.1,0,0.2,0,0.3-0.1
	c0.2,0,0.4-0.1,0.4-0.2c0.1,0,0.1-0.1,0.1-0.2c0-0.1,0-0.2,0.1-0.3c0-0.1-0.1-0.2-0.2-0.2c-0.1,0,0-0.1,0-0.1c0.1,0,0.2,0,0.2-0.1
	c0.1,0,0.1,0,0.1-0.1c0,0,0.1-0.1,0.1-0.1h0.1l0.2-0.1c0.2-0.1,0.3-0.1,0.5-0.2l0.4-0.1c0.1,0,0.1,0,0.2,0c0,0,0.1,0,0.1,0h0.1
	c0,0,0-0.1,0-0.1c0,0,0-0.1,0-0.1s0.1,0,0.1,0l0,0V10h0.1c0-0.1,0,0,0.1-0.1s0.1,0,0.1,0c0-0.1,0-0.1,0.1-0.2c0.1,0,0.1,0.1,0.1,0.1
	l0.1-0.1c0,0,0.1,0,0.1-0.1c0,0,0.1-0.1,0.1-0.1c0.1,0,0.1,0,0.2,0c0,0,0-0.1,0-0.1c0,0,0,0,0,0c0.3-0.2,0.3-0.2,0.3-0.3
	c0,0-0.1-0.1,0-0.1c0,0,0.1-0.1,0.1,0l0,0C28.1,9,28.2,9,28.3,9c0,0,0,0,0.1-0.1c0.1,0,0.1,0,0.1-0.1c0-0.1,0.1-0.2,0.2-0.2
	c0,0,0.1-0.1,0.1-0.2c0.1,0,0.1-0.1,0.1-0.2L29.1,8C29.2,7.9,29.2,7.7,29.1,7.6z M20.9,12c-0.2,0.3-0.5,0.6-0.8,0.9
	c0,0.1-0.1,0.1-0.2,0.2l-0.4,0.2h-0.2c-0.1,0.1-0.1,0-0.1,0c-0.1,0-0.1-0.1-0.2-0.1c0,0,0-0.1,0-0.1c0-0.1,0-0.1,0-0.2h0.1
	c0,0,0-0.1,0.1-0.1c0-0.1,0-0.1,0-0.2c0-0.2,0-0.4,0.1-0.5c0-0.1,0-0.2,0.1-0.3c0-0.1,0-0.2,0-0.2c0-0.2,0.1-0.4,0.1-0.6l0,0l0,0
	c0,0,0.1-0.1,0.1-0.1l0.1-0.1h0.1c0,0,0.1,0,0.1-0.1h0.1c0,0,0.1,0,0.1-0.1h0.1c0.1,0,0.1-0.1,0.2-0.1c0,0,0.1,0,0.1,0l0.3-0.1
	c0.2-0.1,0.1,0.1,0.1,0.1s0,0.2,0,0.3v0.8C20.8,11.7,20.9,11.8,20.9,12C20.9,11.9,20.9,12,20.9,12z M27.8,8.1c0,0.1,0,0.1,0,0.2
	c-0.1,0.1-0.2,0.2-0.2,0.3c0,0.1,0,0.1,0,0.2c0,0,0,0,0,0c-0.1,0.1-0.2,0.1-0.3,0.2c0,0-0.1,0.1-0.1,0.1c0,0,0,0.1,0,0.1
	c0,0,0,0,0,0l0,0c0,0-0.1,0.1,0,0.1c0.1,0,0.1,0.1,0,0.1s-0.1-0.1-0.2,0c0,0-0.1,0.1-0.1,0.1c0,0-0.1,0-0.1,0l0,0
	c-0.1,0-0.1,0-0.1,0.1c-0.1,0-0.2,0.1-0.3,0.2c-0.2,0.1-0.5,0.2-0.8,0.3c-0.1,0.1-0.3,0.1-0.4,0.2H25c-0.1,0-0.2,0.1-0.2,0.1
	c-0.1,0-0.2,0.1-0.3,0.2l-0.2,0.1c0,0,0,0.1,0,0.1c0,0,0,0.1-0.1,0.1l0,0c0,0-0.1,0-0.1-0.1c0,0,0-0.1,0-0.1c0,0,0.1,0,0.1-0.1
	c0-0.1,0-0.1,0-0.2c0,0,0,0,0-0.1h-0.1l0,0c0-0.1,0-0.1,0.1-0.2c0,0,0-0.1,0-0.1c0-0.1,0-0.1,0-0.2c0,0,0.1,0,0.1,0v0.1
	c0,0,0,0.1,0,0.1l0,0c0,0,0,0.1,0,0.1c0,0,0,0,0.1,0c0,0,0-0.1,0-0.1l0,0c0-0.1,0.1-0.1,0.1-0.2c0,0,0-0.1,0-0.1c0,0,0.1-0.1,0-0.1
	c0,0-0.1-0.1-0.1-0.1c0,0,0,0,0.1,0s0-0.1,0-0.1h-0.1c0,0,0,0.1-0.1,0.1s0-0.1,0-0.1l0.1-0.1c0-0.1,0-0.2,0-0.4c0-0.1,0-0.2,0-0.3
	c0,0,0-0.1-0.1-0.1c0-0.1,0-0.1,0-0.2c0,0,0.1,0,0.1,0l0,0c0,0,0-0.1,0-0.1c0-0.1,0.1,0,0.1,0s0-0.3,0-0.3l0,0c0.1,0,0.1,0,0.2,0
	c0,0,0.1-0.1,0.1-0.1L25,8c0.2,0,0.3,0,0.5,0c0,0,0.3-0.1,0.4-0.2c0.1-0.1,0.3-0.1,0.4-0.1c0.1,0,0.1,0,0.2,0c0.1,0,0.1-0.1,0.2-0.1
	h0.1c0.1,0,0.2,0,0.3,0c0.1,0,0.3,0,0.4,0c0.1,0.1,0.2,0.2,0.3,0.3C27.8,8,27.8,8.1,27.8,8.1z"/>
<path class="st0" d="M24.3,10.6L24.3,10.6L24.3,10.6z"/>
<path class="st0" d="M22.8,11.5C22.8,11.5,22.7,11.5,22.8,11.5c-0.1,0-0.1,0.1-0.1,0.1h-0.1c0,0,0.1,0,0.1,0
	C22.7,11.5,22.7,11.5,22.8,11.5L22.8,11.5C22.8,11.5,22.8,11.5,22.8,11.5z"/>
<path class="st0" d="M22.9,11.5L22.9,11.5L22.9,11.5L22.9,11.5z"/>
<path class="st0" d="M25.5,15.9L25.5,15.9z"/>
<path class="st0" d="M22.5,11.6L22.5,11.6C22.5,11.5,22.5,11.5,22.5,11.6L22.5,11.6L22.5,11.6z"/>
<circle class="st2" cx="30.9" cy="2.9" r="2.6"/>
<path class="st0" d="M29.9,4.2V1.5H31c0.2,0,0.4,0,0.5,0.1c0.1,0,0.2,0.1,0.3,0.3C31.9,2,32,2.1,32,2.3c0,0.2-0.1,0.3-0.2,0.5
	C31.6,2.9,31.4,3,31.2,3c0.1,0,0.1,0.1,0.2,0.1c0.1,0.1,0.2,0.2,0.3,0.4l0.5,0.7h-0.4l-0.3-0.5c-0.1-0.2-0.2-0.3-0.3-0.4
	C31.1,3.2,31,3.1,31,3.1c0,0-0.1-0.1-0.2-0.1h-0.6v1.2L29.9,4.2L29.9,4.2z M30.2,2.7H31c0.1,0,0.3,0,0.4-0.1c0.1,0,0.2-0.1,0.2-0.1
	c0-0.1,0.1-0.1,0.1-0.2c0-0.1-0.1-0.2-0.1-0.3c-0.1-0.1-0.3-0.1-0.4-0.1h-0.8L30.2,2.7L30.2,2.7L30.2,2.7z"/>
</svg>
