<svg id="图层_1" data-name="图层 1" xmlns="http://www.w3.org/2000/svg" viewBox="0 0 51.83 54.06"><defs><style>.cls-1,.cls-2{fill:#fff;}.cls-1{fill-rule:evenodd;}</style></defs><title>logo_w</title><path class="cls-1" d="M186.1,406.79v10h20.18V414.7a2,2,0,0,1-1.63-2c0-1.47,0-3.14,0-3.14h0.91v3.16a1.16,1.16,0,1,0,2.32-.15c0-.75,0-3,0-3h1v3.07a2,2,0,0,1-1.62,2.05c0,0.78,0,2.09,0,2.09h24v-10H186.1Zm5.32,0.49v0.9h0c-1.55-.16-3.19.42-3.57,2.13h3.57v1h-3.55c0.24,1.86,1.71,2.58,3.55,2.42v0.9c-2.77.25-4.6-1.43-4.6-3.66a3.66,3.66,0,0,1,3.92-3.7h0.68v0Zm5.5,7.34s0-2.43,0-3a1.56,1.56,0,0,0-1.64-1.24A1.61,1.61,0,0,0,193.6,412a1.69,1.69,0,0,0,1.69,1.89,1.74,1.74,0,0,0,1.26-.71v1.13a2.45,2.45,0,0,1-1.33.46,2.54,2.54,0,0,1-2.54-2.63,2.5,2.5,0,0,1,2.62-2.63,2.29,2.29,0,0,1,2.56,2.09c0,0.47,0,3.06,0,3.06h-1Zm4.94,0h-2.67l0-.85h2.56c1,0,.75-0.73.28-0.94-1.07-.47-2.77-0.49-2.82-1.94s1.53-1.34,1.53-1.34h2.36l0,0.89h-2.48c-0.65.07-.76,0.77,0.36,1.07s2.36,0.56,2.36,1.72A1.38,1.38,0,0,1,201.86,414.61Zm11.2-6.48h-0.79a0.84,0.84,0,0,0-.84.85v0.59h1.47v0.89h-1.48v4.14h-0.92s0-4.08,0-5.65a1.64,1.64,0,0,1,1.64-1.72h0.91v0.89Zm4.88,6.45s0-2.43,0-3a1.56,1.56,0,0,0-1.64-1.24,1.61,1.61,0,0,0-1.69,1.61,1.69,1.69,0,0,0,1.69,1.89,1.74,1.74,0,0,0,1.26-.71v1.13a2.43,2.43,0,0,1-1.33.46,2.54,2.54,0,0,1-2.54-2.63,2.5,2.5,0,0,1,2.62-2.63,2.29,2.29,0,0,1,2.56,2.09c0,0.47,0,3.06,0,3.06h-1Zm4.75-.87h1.06v0.89h-1a2.52,2.52,0,0,1,0-5h1l-0.05.89h-0.93a1.62,1.62,0,0,0-1.48,1.55A1.59,1.59,0,0,0,222.69,413.71Zm4.79,1a2.56,2.56,0,0,1-2.62-2.44,2.61,2.61,0,0,1,2.76-2.81,2.54,2.54,0,0,1,2.29,1.6L226.52,413l-0.4-.74,2.52-1.39a1.43,1.43,0,0,0-1.29-.47,1.69,1.69,0,0,0-1.53,1.83,1.69,1.69,0,0,0,3.37.08l0.93,0.12A2.59,2.59,0,0,1,227.49,414.72Z" transform="translate(-186.1 -362.73)"/><path class="cls-1" d="M197.22,383.78c0-.07.23-1.11,0.21-1.21a4.68,4.68,0,0,0,.36-0.48c0-.2,1.22-1.29,1.24-1.41s0.11-.28.26-0.23a0.54,0.54,0,0,1,.16.57s-0.1.95-.14,1.17a0.26,0.26,0,0,1,.1.13,0.49,0.49,0,0,0-.15.17c0,0.12-.05.61-0.05,0.65a1.3,1.3,0,0,1,0,.2c0,0.09-.09.47-0.09,0.59a0.21,0.21,0,0,1-.21.18h-0.82c-0.22,0-.59,0-0.7,0s-0.19-.11-0.14-0.31m2.55,0.76a3.83,3.83,0,0,1,1,.13s1,0.08,1.27.14c0,0,.4.06,0.49,0.06a0.34,0.34,0,0,0,.36.05,0.32,0.32,0,0,0,.28.14,1.18,1.18,0,0,0,.29.15,0.7,0.7,0,0,1,.21.19c0,0.05,0,.05-0.08.05a1,1,0,0,1-.47.29,0.56,0.56,0,0,1-.37.16,0.71,0.71,0,0,1-.31.18,0.31,0.31,0,0,0-.33.09,2.07,2.07,0,0,0-.5.15s-0.49.08-.89,0.11a1.3,1.3,0,0,1-.73-0.11s-0.29-.06-0.3-0.83c0,0,0-.68,0-0.76S199.6,384.53,199.77,384.53Zm-3.37,3.23a3.27,3.27,0,0,0,.27-0.54,2.25,2.25,0,0,0,.12-0.46c0-.1.11-0.11,0.18,0a0.37,0.37,0,0,1,0,.41,2.58,2.58,0,0,1-.18.39,1,1,0,0,0-.25.24C196.5,387.88,196.36,388,196.4,387.76Zm27.85-13a0.34,0.34,0,0,0,.25,0,0.17,0.17,0,0,1,.15-0.14,1.22,1.22,0,0,1,.18.16,1.43,1.43,0,0,0,.76,0c0.07-.07.39-0.12,0.62-0.26a1.09,1.09,0,0,1,.62-0.2,0.5,0.5,0,0,1,.29-0.06,1,1,0,0,1,.27-0.14l0.16,0s0-.06.43-0.06a1.29,1.29,0,0,1,.62,0,0.92,0.92,0,0,1,.43.51,0.48,0.48,0,0,1,0,.38,1.45,1.45,0,0,0,0,.24,1.09,1.09,0,0,0-.31.44s0.07,0.2-.1.24a3.07,3.07,0,0,0-.52.33s-0.18.11-.13,0.19a0.1,0.1,0,0,1-.09.14s-0.14.11,0,.19,0.12,0.16,0,.13-0.16-.12-0.23,0a0.25,0.25,0,0,1-.22.11,0.11,0.11,0,0,0-.15-0.06,0.29,0.29,0,0,0-.18.14,0.68,0.68,0,0,0-.44.24,9.88,9.88,0,0,1-1.18.5,2,2,0,0,0-.55.37,0.82,0.82,0,0,0-.22.07,0.67,0.67,0,0,0-.34.17,2,2,0,0,0-.4.24l-0.29.08-0.05,0a0.21,0.21,0,0,1,.1-0.13,1.08,1.08,0,0,0,0-.19,1.42,1.42,0,0,1,0-.18s-0.05-.06-0.06,0a0.43,0.43,0,0,1,0,.18,0.09,0.09,0,0,0,0,.08s0,0.14,0,.14l0,0.07a0.37,0.37,0,0,1,.05.13,0.12,0.12,0,0,1-.14.13,0.22,0.22,0,0,1-.16-0.11,0.08,0.08,0,0,1,0-.11,0.13,0.13,0,0,0,.11-0.09,1.2,1.2,0,0,1-.05-0.25c0-.07.07-0.05,0.07-0.1a0.47,0.47,0,0,0-.1-0.06,0.07,0.07,0,0,1,0-.09,0.09,0.09,0,0,0,.07-0.05s0.09-.22.09-0.26a1,1,0,0,0,0-.17,0.38,0.38,0,0,1,0-.24,0.15,0.15,0,0,1,.17.06,0.86,0.86,0,0,1,.06.14,0.65,0.65,0,0,1,0,.22,0.09,0.09,0,0,0-.07.06,0.47,0.47,0,0,0,0,.16s0.09,0.1.11,0.07a0.44,0.44,0,0,0,0-.14,0.16,0.16,0,0,1,.06-0.07,1.36,1.36,0,0,0,.09-0.3,0.45,0.45,0,0,1,0-.19s0.12-.12,0-0.19a0.29,0.29,0,0,1-.16-0.17c0-.07,0,0,0.09,0s0-.14,0-0.14-0.1,0-.1,0,0,0.16-.09.12-0.07-.08,0-0.13a0.89,0.89,0,0,0,.17-0.15,3.79,3.79,0,0,0-.06-0.56,0.89,0.89,0,0,0,0-.4,0.33,0.33,0,0,1-.09-0.15,0.4,0.4,0,0,1,.08-0.26,0.08,0.08,0,0,1,.11.07,0.4,0.4,0,0,0,.11-0.29c0-.11.11,0,0.14,0.06S224.21,374.79,224.25,374.79Zm-2.11,1.62s-0.79,1-.87,1.1a0.64,0.64,0,0,1-.08.21,0.58,0.58,0,0,0-.12.25,0.12,0.12,0,0,0-.09.06,0.4,0.4,0,0,1,0,.2,0.22,0.22,0,0,0-.1.16,2.36,2.36,0,0,0-.06.39,0.39,0.39,0,0,1,0,.29,0.2,0.2,0,0,0-.06.15,0.9,0.9,0,0,1,0,.23,5.13,5.13,0,0,1-.06.53,1.15,1.15,0,0,0-.08.28c0,0.06.06,0.16,0.19,0a2.08,2.08,0,0,1,.3,0c0.1,0,0-.08.08-0.12s0.12,0,.15,0,0.06,0.1.15,0,0-.1,0-0.17a0.26,0.26,0,0,1,.19-0.16c0.05,0,.3-0.12.16-0.14a0.56,0.56,0,0,0-.19,0s0-.11.3-0.09a0.15,0.15,0,0,0,.2-0.21l0-.56c0-.1,0-0.65,0-0.8a6.38,6.38,0,0,0,.08-0.67,0.53,0.53,0,0,0,0-.41,1.46,1.46,0,0,0,0-.54C222.21,376.39,222.25,376.36,222.14,376.42Zm-5.92,2.71s-0.06.72-.14,1c0,0,0,.25-0.06.35a0.72,0.72,0,0,0-.14.41,1.63,1.63,0,0,0-.1.85,0.22,0.22,0,0,1,0,.29,0.32,0.32,0,0,0-.11.17l-0.16,0a0.37,0.37,0,0,0,0,.29,0.29,0.29,0,0,1,.08.15,0.7,0.7,0,0,0,.28.19s0,0.1.16,0l0.36,0s0.33-.21.49-0.3a0.57,0.57,0,0,0,.33-0.27,5.66,5.66,0,0,0,1.19-1.33,0.29,0.29,0,0,0,.15-0.17,1.35,1.35,0,0,1-.15-0.52c0-.31,0-0.48,0-0.57s0-.58,0-0.71-0.07-.38-0.07-0.49,0.08-.32-0.15-0.21a3,3,0,0,0-.45.16,0.38,0.38,0,0,1-.21,0,1.08,1.08,0,0,1-.25.23H217a0.18,0.18,0,0,1-.1.11h-0.2a0.18,0.18,0,0,1-.11.1,0.62,0.62,0,0,0-.15,0l-0.15.18A0.34,0.34,0,0,0,216.22,379.12Zm1.25-11a8.68,8.68,0,0,0,2.83.57l0.87,0.19a7.76,7.76,0,0,0,.87.41,3,3,0,0,0,.91.91s0.65,0.26.79,0.3,0.22,0,.2.06-0.14.31,0.08,0.31c0,0,.25.12-0.08,0.2a5.4,5.4,0,0,0-1,.06l-0.81.15a0.27,0.27,0,0,1-.32,0l-0.39.08a0.23,0.23,0,0,1-.24,0,0.54,0.54,0,0,1-.31.1,0.27,0.27,0,0,1-.22.09s-0.1.09,0.05,0.2a5.88,5.88,0,0,1,.53.75,0.19,0.19,0,0,1,.1.19,3.08,3.08,0,0,1,0,.56s0.2,0,.13.29l-0.08.54a0.31,0.31,0,0,0,0,.4,0.09,0.09,0,0,0,.16.06,0.93,0.93,0,0,0,.16-0.05,1,1,0,0,1,.45-0.25s0.12,0,.12-0.09l0.4-.16A1.46,1.46,0,0,1,223,374a0.36,0.36,0,0,1,.21-0.1,0.16,0.16,0,0,0,.16.08,0.26,0.26,0,0,0,.21-0.11,0.24,0.24,0,0,0,.25-0.05s0.14,0,.15,0,0-.15,0-0.15a0.36,0.36,0,0,0,.44-0.12l0.15-.06a0.26,0.26,0,0,0,.15,0,1.45,1.45,0,0,1,.3-0.07l0.17-.07a0.64,0.64,0,0,0,.27.09,0.32,0.32,0,0,0,.21-0.18l0.36,0,1,0,0.85,0,1.23,0a4.46,4.46,0,0,1,.75.15,0.4,0.4,0,0,0,.29.16,1.47,1.47,0,0,1,1,.67,0.79,0.79,0,0,1-.06.65l-0.36.5a0.44,0.44,0,0,1-.22.25,1.09,1.09,0,0,1-.18.25s-0.15,0-.23.26a0.21,0.21,0,0,1-.22.15,0.23,0.23,0,0,1-.09.13,0.32,0.32,0,0,0-.28.17s-0.13,0-.08.12,0.09,0.17-.43.41c0,0-.13,0-0.11.14a0.52,0.52,0,0,1-.25.05s-0.07.11-.15,0.2a0.22,0.22,0,0,1-.18.1,0.55,0.55,0,0,1-.11.12s0-.14-0.11-0.11a0.24,0.24,0,0,0-.1.25s-0.18-.08-0.2,0-0.12,0-.09.11h-0.14s0,0.08,0,.12a0.09,0.09,0,0,0-.13.1,0.74,0.74,0,0,1,0,.17s-0.15,0-.19,0-0.17,0-.18.05-0.1.07-.25,0.09a5.75,5.75,0,0,1-.62.23,4.72,4.72,0,0,0-.81.25l-0.25.15a0.56,0.56,0,0,0-.22,0,0.62,0.62,0,0,1-.2.14,0.36,0.36,0,0,1-.21.14,1,1,0,0,1-.35.11s-0.13.08,0,.14a0.49,0.49,0,0,1,.25.33,1.1,1.1,0,0,0-.1.42,0.45,0.45,0,0,1-.2.32,0.73,0.73,0,0,1-.68.37,0.5,0.5,0,0,1-.44.16,0.67,0.67,0,0,1-.54.3,1.35,1.35,0,0,1-.67.39,0.2,0.2,0,0,1-.2.09,1.22,1.22,0,0,0-.44.26s0,0.07-.14,0a0.13,0.13,0,0,1-.15.16,0.32,0.32,0,0,0-.28.14l-0.23.09a1.12,1.12,0,0,1-.38.12,0.74,0.74,0,0,1-.36.27l-0.1,0a0.45,0.45,0,0,1-.4.12,0.17,0.17,0,0,0-.15,0s0,0.26-.09.27a0.84,0.84,0,0,0-.24.09,1,1,0,0,1-.17.23,0.5,0.5,0,0,0-.23.1l0,0.09a0.23,0.23,0,0,0-.2,0,0.46,0.46,0,0,1-.32.33,0.46,0.46,0,0,0-.16.32,2.16,2.16,0,0,1,0,.28,0.45,0.45,0,0,1,.06.16,1,1,0,0,0,.22.18,0.21,0.21,0,0,0,.05.18,2.34,2.34,0,0,0,.46.39,1.92,1.92,0,0,1,.19.44,0.56,0.56,0,0,1,.09.39,3.58,3.58,0,0,1,.1.64s0.1,1.84,0,2.54c0,0,.14,0,0,0.38a0.69,0.69,0,0,0,0,.36,4.93,4.93,0,0,0,.14,1s0,0.36.15,0.05a0.6,0.6,0,0,1,.2-0.32,1.86,1.86,0,0,0,.38-0.56,2.26,2.26,0,0,0,0-.26s0,0.15.13,0.05,0.12-.15,0-0.2,0.12,0,.2-0.23a1.38,1.38,0,0,1,.32-0.37,1.77,1.77,0,0,1,.05-0.24,0.54,0.54,0,0,1,.16-0.27,0.2,0.2,0,0,0,.1-0.22,3.93,3.93,0,0,0,.07-0.81s0.06-2.12,0-2.42a0.92,0.92,0,0,1-.15-0.38,0.63,0.63,0,0,1-.3-0.31s-0.21-.28,0-0.37a0.4,0.4,0,0,0,.24-0.26,0.28,0.28,0,0,0,.22-0.22,0.55,0.55,0,0,1,.21,0,0.22,0.22,0,0,1,.25-0.11,2.78,2.78,0,0,1,.57.21,0.51,0.51,0,0,1,.23.15,0.86,0.86,0,0,0,.11.24l0,0a0.36,0.36,0,0,1,0,.42,0.53,0.53,0,0,0-.13.37,6.09,6.09,0,0,1,0,.73s-0.08-.19-0.17-0.1a0.58,0.58,0,0,0-.07.43,1.92,1.92,0,0,0,0,.3s0,0,0,0,0.11,0.13.16,0,0.13-.07.07,0.11c0,0-.07.17,0,0.15s0,0.11.11-.17a0.4,0.4,0,0,0,.17-0.24,0.82,0.82,0,0,1,.09-0.19s0.08,0,.07-0.14a0.19,0.19,0,0,1,.1-0.12,0.53,0.53,0,0,0,.1-0.27,0.36,0.36,0,0,0,.14-0.18,7,7,0,0,1,.38-0.67s0.21-.14.05-0.19a0.06,0.06,0,0,0-.11,0,2.88,2.88,0,0,0-.22.36l-0.09.06s0.21-.45.25-0.48a0.07,0.07,0,0,0,.08,0,2.59,2.59,0,0,1,.54-0.83s0-.38,0-0.5a2.49,2.49,0,0,1,.18-0.31,0.34,0.34,0,0,1,.12-0.2l0.19-.06a1.06,1.06,0,0,1,.57-0.36,1.46,1.46,0,0,0,.46-0.17,1.25,1.25,0,0,1,.39-0.17l0.45,0a1.43,1.43,0,0,1,.28.31,1.93,1.93,0,0,1,.34.47,1.37,1.37,0,0,1,0,1.22,0.44,0.44,0,0,0-.12.1s-0.41.48-.5,0.6-0.05.18-.07,0.31-0.06.42-.07,0.78a1.69,1.69,0,0,0,0,.51s0.05,0,0,.26a1.83,1.83,0,0,0,0,.21,0.51,0.51,0,0,1,0,.16,0.18,0.18,0,0,0,0,.08s0-.31-0.08-0.29a0.22,0.22,0,0,0-.15.07c0,0.05.05-.14-0.07-0.14s-0.08-.06-0.07-0.16-0.12-.26-0.12-0.38,0-.15,0-0.18,0.16-.26,0-0.26-0.16-.07-0.17-0.18-0.07-.08-0.13-0.13a0.67,0.67,0,0,0-.14-0.33,1.32,1.32,0,0,1-.22-0.29,1,1,0,0,0-.14-0.32,0.24,0.24,0,0,0-.2-0.26,0.41,0.41,0,0,0-.49.24,14.55,14.55,0,0,0-1.11,1.61,0.11,0.11,0,0,1-.1.11,0.37,0.37,0,0,0-.08.27,0.17,0.17,0,0,1-.07.12s-0.1.1-.06,0.16a0.18,0.18,0,0,1-.05.11l-0.07.2s-0.44.75-.46,0.84-0.1-.06-0.14.08a0.14,0.14,0,0,1-.09.09,0.45,0.45,0,0,0,0,.3s0.08,0.11,0,.11-0.13,0-.14.06,0,0.07.05,0.1a0.31,0.31,0,0,1,.06.23c0,0.05.06,0.1,0.1,0a0.18,0.18,0,0,1,0-.08s0,0,.06,0a0.69,0.69,0,0,1,0-.2c0-.07,0-0.14.05-0.1a0.53,0.53,0,0,1,.06.28c0,0.05-.07.42-0.06,0.45s0,0.14,0,.05a0.22,0.22,0,0,0-.07-0.13l0-.09s-0.09-.06-0.11,0a0.66,0.66,0,0,0,0,.15,0.19,0.19,0,0,0-.08.07c0,0.07-.06.13,0,0.17s0.12,0,.12.08a1,1,0,0,1-.05.25s0,0.13,0,.15,0,0.13,0,.16a0.43,0.43,0,0,1,0,.18,0.35,0.35,0,0,0,0,.29,0.16,0.16,0,0,0,.15,0,0.13,0.13,0,0,0,.06-0.15,0.27,0.27,0,0,0,0-.08c0-.06,0-0.14,0-0.13a0.35,0.35,0,0,1,.13.11,1.73,1.73,0,0,1,0,.3,0.32,0.32,0,0,0,0,.17,0.09,0.09,0,0,1,0,.09,0.35,0.35,0,0,0,0,.13,0.41,0.41,0,0,0,0,.15v0.16s-0.07.07-.08,0a1.4,1.4,0,0,1,0-.19,0.79,0.79,0,0,0,0-.37c-0.06,0-.09,0-0.12,0a0.55,0.55,0,0,0-.12.12,0.72,0.72,0,0,0,0,.2,0.71,0.71,0,0,0,.08.06,2.46,2.46,0,0,1,0,.3,0.24,0.24,0,0,0,0,.16s0.06,0,.1,0,0.06,0,.12,0,0.08-.08.1-0.06a0.08,0.08,0,0,1,0,.1,0.17,0.17,0,0,1-.09.07l-0.13,0a0.38,0.38,0,0,1,0,.08,0.58,0.58,0,0,0-.08.19,0.73,0.73,0,0,0,0,.22,0.3,0.3,0,0,1,.07,0,0.7,0.7,0,0,1,0,.23c0,0.08,0,.2,0,0.23a0.27,0.27,0,0,0,0,.15,0.1,0.1,0,0,0,.11,0,0.38,0.38,0,0,0,.06-0.15,0.22,0.22,0,0,0,0-.1,0.41,0.41,0,0,0-.07-0.06,0.27,0.27,0,0,1,0-.1,0.23,0.23,0,0,1,.06-0.1,0.1,0.1,0,0,1,.06.1c0,0.07,0,.17,0,0.23s0,0.3,0,.33a0.25,0.25,0,0,1,.06.14c0,0.12,0,.32,0,0.39s0,0.14,0,.2a2.6,2.6,0,0,1,0,.26,0.71,0.71,0,0,1-.19,0c-0.07,0,0,.11,0,0.2a0.21,0.21,0,0,1,.15.06s0.14,0,.13.2c0,0,0,.21,0,0.29a1.21,1.21,0,0,1,.2.53,1.39,1.39,0,0,0,0,.24,0.42,0.42,0,0,1,.06.22,0.35,0.35,0,0,1-.08.23,0.19,0.19,0,0,0-.09.19,0.49,0.49,0,0,1,0,.18,0.31,0.31,0,0,0-.17.21,0.35,0.35,0,0,1-.05.21l-0.13.3a0.48,0.48,0,0,1-.18,0s0,0.44,0,.52a0.22,0.22,0,0,0-.1.2,0,0,0,0,1,.07,0,1.9,1.9,0,0,1,0,.3c0,0.09,0,.15,0,0.17a0.23,0.23,0,0,1,.1.24,0.71,0.71,0,0,1,.09.25,1.5,1.5,0,0,0,0,.2v0.2s0,0.2,0,.24a0.15,0.15,0,0,1-.18,0c-0.05,0,0-.1-0.12-0.1s-0.11,0-.13.19-0.14.08-.18,0.08,0,0.22,0,.24l-0.17.07a0.94,0.94,0,0,1-.2.11,0.63,0.63,0,0,0-.2,0s0,0.08-.07,0a0.88,0.88,0,0,0-.16-0.23,1,1,0,0,1-.22-0.16c0-.05.06-0.09,0.08-0.1a0.55,0.55,0,0,0,0-.19,4.7,4.7,0,0,0,0-.62,0.08,0.08,0,0,1,0-.11,0.57,0.57,0,0,0,0-.37,0.11,0.11,0,0,1,0-.16s0.09,0,.06-0.1a0.34,0.34,0,0,0-.1-0.13,0.14,0.14,0,0,1,.08-0.12,0.26,0.26,0,0,0,.14-0.09,1.28,1.28,0,0,0,.07-0.46c0-.11.1-1.19,0.06-1.27a0.55,0.55,0,0,1-.05-0.27,1.29,1.29,0,0,0,0-.45,2.27,2.27,0,0,0,.13-0.54,0.29,0.29,0,0,1,0-.16,0.92,0.92,0,0,0,0-.24,0.38,0.38,0,0,0,0-.13,0.2,0.2,0,0,1,0-.18,1.33,1.33,0,0,0,0-.39s0-.26,0-0.35a1.4,1.4,0,0,1-.08-0.32,2.09,2.09,0,0,0,.08-0.43,0.16,0.16,0,0,1-.09-0.15,1.19,1.19,0,0,1,.06-0.35,0.84,0.84,0,0,0-.07-0.31s0-.13,0-0.2a2.07,2.07,0,0,1,0-.21s0-.23,0-0.25a0.58,0.58,0,0,0,.06-0.13s-0.08-.22-0.08-0.3a0.66,0.66,0,0,0,0-.33,0.19,0.19,0,0,0-.17,0v0.12s0.08,0,.08,0a0.46,0.46,0,0,1-.1.17,0.48,0.48,0,0,1-.16,0v0.09s0,0,0,0l-0.15.1a0.06,0.06,0,0,0,0,.1s0.07,0,0,.05a0.15,0.15,0,0,0-.08.07s0,0.15,0,.15l-0.15,0s0,0.1,0,.14a0.16,0.16,0,0,1,0,.2,0.12,0.12,0,0,0-.08.11,1.27,1.27,0,0,1-.19.06,0.23,0.23,0,0,0,0,.17,0.45,0.45,0,0,1,0,.15s-0.08,0-.09.09a0.73,0.73,0,0,1,0,.19l-0.14.05a0.18,0.18,0,0,0-.05.11,0.94,0.94,0,0,0-.1.06,2.1,2.1,0,0,1-.07.29,0.64,0.64,0,0,0-.09.25c0,0.1,0,.22,0,0.27a1.34,1.34,0,0,0,0,.23c0,0.06,0,.45,0,0.52a0.24,0.24,0,0,1,.05.13s0,0-.05,0a0.36,0.36,0,0,0,0,.26s0.1,0.05.08,0.08-0.07,0-.07,0a0.63,0.63,0,0,0,0,.13h0.07a0.06,0.06,0,0,0,0,0s-0.06.14,0,.15a0.41,0.41,0,0,1,0,.34,4.13,4.13,0,0,1-.05.47,0.65,0.65,0,0,1-.15.22,0.33,0.33,0,0,0,0,.18,0.23,0.23,0,0,1-.19.16,1.37,1.37,0,0,1-.21.16,0.81,0.81,0,0,1-.2-0.12,0.06,0.06,0,0,1-.07.07,3.34,3.34,0,0,1-.47-0.3,0.87,0.87,0,0,1,0-.17,0.3,0.3,0,0,0-.12-0.07,0.16,0.16,0,0,1,0,.06,0.64,0.64,0,0,1-.23-0.19,0.69,0.69,0,0,0,.09-0.12,0.15,0.15,0,0,0-.12-0.16,1,1,0,0,0-.23.09s0,0.16,0,.2a1,1,0,0,1-.07.14,0.68,0.68,0,0,1-.24.06,0.26,0.26,0,0,1,0,.2c-0.05,0-.35.32-0.38,0.36a0.34,0.34,0,0,1,0,.19,2.53,2.53,0,0,0-.34.21,0.46,0.46,0,0,1-.18,0c-0.08,0,0,.09,0,0.12a0.09,0.09,0,0,1,0,.13,0.77,0.77,0,0,0-.2.19,1.59,1.59,0,0,1-1,.7,0.75,0.75,0,0,1-.66-0.43,0.32,0.32,0,0,1-.1-0.1,0.79,0.79,0,0,0,0-.2,0.18,0.18,0,0,1-.08-0.12c0-.07,0-0.28,0-0.34a1.71,1.71,0,0,1,0-.29,0.27,0.27,0,0,0,.12-0.23,0.25,0.25,0,0,1-.07-0.12,2,2,0,0,0,.13-0.21,3.11,3.11,0,0,1,.08-0.34s0.11-.44.11-0.54a0.62,0.62,0,0,0,.05-0.28,1.35,1.35,0,0,0,.22-0.57,3.77,3.77,0,0,0,.13-1.16s0.05-.38.05-0.46a1.6,1.6,0,0,1-.07-0.26c0-.06.06-0.15,0.06-0.19a0.34,0.34,0,0,1-.09-0.2,1.16,1.16,0,0,0,.07-0.32c0-.14-0.05-0.15-0.06-0.23s0-.27,0-0.3a3.4,3.4,0,0,0,0-.63,1,1,0,0,1,0-.34,3.3,3.3,0,0,0,0-.52,0.34,0.34,0,0,1-.08-0.17,1,1,0,0,0-.09-0.28,0.86,0.86,0,0,1-.12-0.33,1.28,1.28,0,0,0-.3-0.62,0.56,0.56,0,0,1-.2-0.19,1.68,1.68,0,0,0-.19-0.25,0.3,0.3,0,0,1-.12,0,1.24,1.24,0,0,1-.12-0.21,0.36,0.36,0,0,0-.16-0.15c-0.06,0,0,0-.12,0a1.93,1.93,0,0,0-.21-0.23,0.4,0.4,0,0,1-.26,0,3.37,3.37,0,0,0-.19-0.32c-0.08,0-.26-0.1-0.29-0.12a1,1,0,0,1-.31-0.3,0.68,0.68,0,0,0-.1-0.21,0.39,0.39,0,0,0,0-.23,0.25,0.25,0,0,1-.1-0.13,0.27,0.27,0,0,1,.14-0.27,3.32,3.32,0,0,1,.59-0.43l0.59,0a1.06,1.06,0,0,0,.37,0,0.28,0.28,0,0,1,.05-0.17,0.29,0.29,0,0,1,.22,0,0.38,0.38,0,0,1,.37-0.1,0.19,0.19,0,0,1,.06.28,0.11,0.11,0,0,0,0,.13,0.68,0.68,0,0,1,.38.28,1.61,1.61,0,0,1,.28.33,2.12,2.12,0,0,1,.33.44,0.48,0.48,0,0,1,0,.4l-0.08.13a0.14,0.14,0,0,1-.07.19,1.06,1.06,0,0,1,0,.26s0,0.26,0,.32a0.28,0.28,0,0,1,0,.28s0,0.37,0,.45a0.44,0.44,0,0,0,0,.31,1.19,1.19,0,0,1,.14.58s0,0.57,0,.73c0,0,0,.34,0,0.53,0,0,0,.7,0,0.78s0,0,0,.09,0,0.23,0,.28a0.38,0.38,0,0,1,0,.26,2,2,0,0,1,.08.51,4,4,0,0,1,.1.74s0,0.58,0,.67,0,0.73,0,.8,0,0.26.18,0.13a1.63,1.63,0,0,0,.65-0.41,0.51,0.51,0,0,1,.27-0.14,3.58,3.58,0,0,0,.53-0.38,0.67,0.67,0,0,0,.06-0.51s0.06-.11,0-0.11a0.08,0.08,0,0,1-.08-0.08,0.19,0.19,0,0,1,.08-0.08,0.09,0.09,0,0,0,0-.08s0,0,0,0a0.18,0.18,0,0,1,0-.11,0.23,0.23,0,0,1-.05-0.12,2.63,2.63,0,0,0,0-.73,10.35,10.35,0,0,0-.26-1.07s-0.09-1.12-.12-1.37c0,0-.18-1.28-0.23-1.64a7,7,0,0,0-.12-1.06,1.15,1.15,0,0,1,0-.54,1,1,0,0,0,.13-0.59,4.06,4.06,0,0,1,.27-0.68,0.7,0.7,0,0,0,.17-0.34,0.4,0.4,0,0,0,.15-0.2,1,1,0,0,1,.27-0.37,4.23,4.23,0,0,0,.39-0.28,1.32,1.32,0,0,0,.4-0.38,1.94,1.94,0,0,1,.27-0.06,0.39,0.39,0,0,0,.08-0.15c0-.05.14-0.05,0.12-0.16l0.27-.07a0.32,0.32,0,0,0,0-.08,0.32,0.32,0,0,1,.16-0.09,0.41,0.41,0,0,1,.06-0.14,0.26,0.26,0,0,1,.19,0,1.36,1.36,0,0,0,.14-0.31,0.47,0.47,0,0,1,.22-0.2,0.67,0.67,0,0,0,.22,0s0-.08,0-0.15a0.41,0.41,0,0,1,.2-0.15s0,0.13.08,0.09a1.07,1.07,0,0,0,.26-0.25,0.4,0.4,0,0,1,.23-0.09,0.11,0.11,0,0,0,.09-0.08h0.15a0.14,0.14,0,0,0,.13-0.08s-0.08-.07,0-0.09a1.83,1.83,0,0,0,.23,0c0.11,0,0-.07,0-0.15s0.09,0.05.12-.08a0.33,0.33,0,0,1,.12-0.28,1.62,1.62,0,0,1,.26,0s0.12-.22.22-0.33a4.58,4.58,0,0,1,.29-0.42s0.13-.2-0.08-0.12a0.59,0.59,0,0,1-.29.07,0.29,0.29,0,0,1-.17.14,0.38,0.38,0,0,0-.28.08,0.16,0.16,0,0,0-.2-0.05l-0.21.12a0.31,0.31,0,0,0-.18.11,0.33,0.33,0,0,1-.28,0,0.73,0.73,0,0,1-.22.27s-0.1.18,0,.2a0.18,0.18,0,0,1-.08.19s-0.12,0-.11.15a0.26,0.26,0,0,1-.15.16,0.17,0.17,0,0,0-.24.06l-0.36-.24a0.61,0.61,0,0,1-.37-0.07s-0.18-.13-0.31.2a5.64,5.64,0,0,1-.7.8,3.6,3.6,0,0,1-.81.64,1.66,1.66,0,0,0-.31.23,2.16,2.16,0,0,1-.72.27,0.79,0.79,0,0,0-.24.17,2.14,2.14,0,0,0-.49,0,0.67,0.67,0,0,1-.44.17,0.73,0.73,0,0,1-.31-0.54,2.18,2.18,0,0,1-.27-0.84,1.24,1.24,0,0,0-.1-0.65s-0.12-.59-0.18-0.69a0.76,0.76,0,0,1-.08-0.44,2.2,2.2,0,0,1-.23-0.47,1.21,1.21,0,0,0-.25-0.75,2.57,2.57,0,0,1-.28.08,0.37,0.37,0,0,0-.26-0.15c-0.21,0-.42-0.07-0.53-0.05a0.32,0.32,0,0,1-.27,0,4,4,0,0,0-.94-0.07c-0.08,0-.08.13-0.08,0.17s0.05,0.18.07,0.25a1.16,1.16,0,0,0,0,.42,0.49,0.49,0,0,1,0,.29,3,3,0,0,1,.32.48,3.06,3.06,0,0,1-.13.74,0.13,0.13,0,0,0-.16,0,2.09,2.09,0,0,1-.16.19,0.19,0.19,0,0,0-.15.13s-0.32.06-.41,0.06a1,1,0,0,0-.26,0,0.41,0.41,0,0,0-.23-0.1,0.51,0.51,0,0,1-.38,0,1.63,1.63,0,0,0-.34-0.11,0.25,0.25,0,0,0-.15-0.11,0.31,0.31,0,0,1-.23-0.24,0.36,0.36,0,0,0-.13-0.33,3.13,3.13,0,0,1-.1-0.43,1.74,1.74,0,0,1,0-.35,0.15,0.15,0,0,0,0-.11s0-.06,0-0.18a1.5,1.5,0,0,0-.08-0.32s0-.2,0-0.26a0.66,0.66,0,0,1,0-.24,0.19,0.19,0,0,0,.09-0.14c0-.08,0-0.22,0-0.26a0.52,0.52,0,0,1,.12-0.12,1.63,1.63,0,0,0,0-.38,0.4,0.4,0,0,0,.14-0.13,0.53,0.53,0,0,1,0-.21,1.27,1.27,0,0,0,.14-0.25,3.09,3.09,0,0,0,.18-0.28c0-.07,0-0.19,0-0.22s0-.15,0-0.15a0.84,0.84,0,0,0,.15-0.13s0-.09,0-0.09h0.09L210,377a0.22,0.22,0,0,1,.2,0,0.2,0.2,0,0,0,.05.09,0.18,0.18,0,0,1,.18.17l0.22,0a0.54,0.54,0,0,1,.11.47l0.38,0.06,0.92,0a4.06,4.06,0,0,0,.66-0.09,1.12,1.12,0,0,1,.4-0.06,0.23,0.23,0,0,0,.19,0,0.47,0.47,0,0,1,.28-0.1,0.71,0.71,0,0,0,.13-0.62,1.52,1.52,0,0,1,0-.32,0.59,0.59,0,0,0,.14-0.3,0.15,0.15,0,0,1,.18-0.16,2.11,2.11,0,0,1,.51.35,9.93,9.93,0,0,1,.82.68,1,1,0,0,0,.34,0l0.75-.27a2.93,2.93,0,0,0,.41-0.14,0.69,0.69,0,0,1,.38-0.17,11.94,11.94,0,0,0,1.09-.63,0.33,0.33,0,0,0,.11-0.34,0.64,0.64,0,0,1,0-.29,0.34,0.34,0,0,0,0-.25,0.27,0.27,0,0,1,0-.22s0-.46,0-0.55a0.83,0.83,0,0,1,.06-0.3s0.14-1,.14-1.25a5.18,5.18,0,0,0,.11-0.87s0.08-.4-0.1-0.45a2.58,2.58,0,0,1-.55-0.07s-0.5-.54-0.65-0.72a0.66,0.66,0,0,1-.24-0.16,1.86,1.86,0,0,0-.07-0.18,0.53,0.53,0,0,1-.09,0,1.16,1.16,0,0,0-.06-0.22c-0.05-.05-0.11-0.29-0.15-0.3a0.17,0.17,0,0,1,0-.19,0.15,0.15,0,0,0,0-.16,0.24,0.24,0,0,1-.06-0.06s-0.12-.06,0-0.13,0.08-.05.08-0.09,0-.12,0-0.12,0,0,0,0a2.06,2.06,0,0,0,.08-0.23,0.5,0.5,0,0,0,0-.14,0.4,0.4,0,0,1,0-.23A0.5,0.5,0,0,1,217.47,368.16Zm-31.26,15.27a4.11,4.11,0,0,0,.66-0.16l0.22,0a1.4,1.4,0,0,1,.18-0.3,0.59,0.59,0,0,1,.23-0.09,1.14,1.14,0,0,0,.2-0.07l0.05-.08a0.66,0.66,0,0,0,.15,0s0-.13.09-0.13h0.17s0-.18.06-0.18h0.26a0.14,0.14,0,0,1,0-.13c0.06,0,0,0,.19,0a0.32,0.32,0,0,0,.26-0.11,1.43,1.43,0,0,0,.17,0,0.15,0.15,0,0,0,.13-0.17c0-.08.23,0,0.27,0a0.84,0.84,0,0,1,.16-0.14,0.12,0.12,0,0,1,.1.05,0.29,0.29,0,0,1,.18-0.12,0.6,0.6,0,0,0,.12,0,0.32,0.32,0,0,0,.19,0,0.24,0.24,0,0,1,.17-0.08,0.94,0.94,0,0,1,.12,0l0.12,0s0.14,0,.14,0a0.41,0.41,0,0,0,.09-0.21,0.08,0.08,0,0,1,0-.06,0.33,0.33,0,0,1,0-.23,0.13,0.13,0,0,0,.05-0.17,0.22,0.22,0,0,1,0-.18,0.14,0.14,0,0,0,.14-0.09,1.08,1.08,0,0,1,.06-0.33c0.05-.09.16-0.38,0.16-0.38a0.15,0.15,0,0,1,0-.11,0.66,0.66,0,0,0,.05-0.13,0.73,0.73,0,0,0,.11-0.16,0.35,0.35,0,0,0,.06-0.18c0-.06,0-0.08,0-0.11a0.36,0.36,0,0,0,.11-0.18c0-.06.08-0.16,0.09-0.19s0.21-.57.2-0.6,0.07,0,0,.24a1,1,0,0,1-.08.28,2.17,2.17,0,0,1,0,.42,0.22,0.22,0,0,0,0,.14l0,0.25a0.63,0.63,0,0,1-.06.22,1.77,1.77,0,0,1-.05.39,0.15,0.15,0,0,0-.05.1,0.44,0.44,0,0,1,0,.2,1.51,1.51,0,0,1-.09.19,0.78,0.78,0,0,1,0,.29c0,0.07-.07,0-0.07.1a1.45,1.45,0,0,1,0,.23,0.06,0.06,0,0,0-.07.07,0.1,0.1,0,0,0,0,.09s0.08,0.09-.08.08a0.27,0.27,0,0,0-.07.12s0,0.07,0,.08a0.22,0.22,0,0,1,.06.17,1,1,0,0,0,0,.17,1,1,0,0,0,0,.21s0.18,0,.07.14a1.22,1.22,0,0,1,0,.35,13.23,13.23,0,0,1-.4,2.08,3.66,3.66,0,0,1-.28.74,0.42,0.42,0,0,0-.1.33,8.56,8.56,0,0,0-.1,1.5h0.12s0.58-.84.67-1a0.57,0.57,0,0,0,.28-0.37,0.76,0.76,0,0,1,.19-0.19,0.73,0.73,0,0,1,.07-0.24,0.35,0.35,0,0,1,.12-0.18,0.2,0.2,0,0,0,.08-0.18,0.23,0.23,0,0,0,.14-0.1,1.15,1.15,0,0,1,.28-0.48,0.61,0.61,0,0,0,.06-0.27,0.18,0.18,0,0,1,.09-0.11,0.11,0.11,0,0,1,0-.11,0.27,0.27,0,0,0,.05-0.21,0.16,0.16,0,0,0,.09,0,0.48,0.48,0,0,0,0-.28,0.39,0.39,0,0,0,.21-0.19,0.5,0.5,0,0,0,0-.13,0.82,0.82,0,0,1,.21,0l0.06-.11v-0.12h0.12a0.29,0.29,0,0,0,0-.17,0.21,0.21,0,0,0,0-.13l0.1,0a0.77,0.77,0,0,0,.12-0.14,0.44,0.44,0,0,1,0-.2l0.1,0v-0.13s0.11,0,.06-0.14-0.13-.08,0-0.1a0.37,0.37,0,0,0,.16-0.1,0.43,0.43,0,0,0,0-.18h0.15s0-.18,0-0.23h0.09v-0.11s0.35-.68.39-0.83a0.47,0.47,0,0,0,.07-0.12,0.07,0.07,0,0,1,.08-0.07s0.06-.2.07-0.23,0.07,0.05.06-.11l0.06,0a0.74,0.74,0,0,0,.13-0.45s0.07,0,.07,0a0.47,0.47,0,0,1,0-.19,0.2,0.2,0,0,0,.14-0.18,0.08,0.08,0,0,0,.08-0.1,0.25,0.25,0,0,1,0-.2,0.25,0.25,0,0,0,.16-0.29,0.72,0.72,0,0,1,.27-0.43,0.52,0.52,0,0,1,.08-0.17,0.16,0.16,0,0,0,.08-0.18s-0.11,0,0-.15a0.28,0.28,0,0,1,.07-0.18l0.17-.13s0-.16,0-0.28l0.28-.22a0.48,0.48,0,0,0,.09-0.44,0.42,0.42,0,0,0-.06-0.18s-0.13,0,0-.11a0.19,0.19,0,0,0,0-.17,0.18,0.18,0,0,1,.19-0.13s0.06,0,.06-0.19l0.16-.15a0.23,0.23,0,0,1,.09-0.16,0.26,0.26,0,0,0,.23-0.13h0.23s0,0.08.13,0.07a0.11,0.11,0,0,1,.13.13,0.09,0.09,0,0,0,.11.06,1.21,1.21,0,0,1,.29.56,1.91,1.91,0,0,1-.06.63,0.74,0.74,0,0,0,0,.32,2.8,2.8,0,0,1-.13.82s-0.15,0-.12.27a5.06,5.06,0,0,0-.09.52s-0.12,0-.14.3a1.14,1.14,0,0,1-.12.43,0.74,0.74,0,0,0-.14.35,0.33,0.33,0,0,1-.14.31s0,0.12-.06.26a0.38,0.38,0,0,0-.05.28,0.1,0.1,0,0,0,.18,0,0.7,0.7,0,0,1,.33-0.29,1.83,1.83,0,0,0,.2-0.12,0.38,0.38,0,0,0,.08-0.2l0.17,0,0.47-.3s0.28-.16.42-0.26a0.6,0.6,0,0,1,.25-0.15,1,1,0,0,1,.21-0.12c0.08,0,.39-0.07.44,0.14,0,0,0,.11.06,0.28,0,0,0,.32,0,0.54a2,2,0,0,1,0,.36,0.21,0.21,0,0,0,0,.15s0,0.32,0,.5c0,0,0,.22,0,0.32s-0.07,0,0,.12a0.29,0.29,0,0,1-.11.24,0.53,0.53,0,0,1,0,.21,0.28,0.28,0,0,0-.1.22s0,0.16,0,.3,0.13,0,0,.09a1.66,1.66,0,0,1,0,.2,0.73,0.73,0,0,0-.1.3l-0.05.33a0.46,0.46,0,0,1,0,.29,0.57,0.57,0,0,0,.07.37s0.62,0.06,1.13.06h0.75a1.11,1.11,0,0,1,.5,0h1.1l0.17,0a0.32,0.32,0,0,1,.1-0.1c0.06,0,.14.1,0.22,0.1s0.08-.07.14-0.07,0.18,0.12.23,0.12a1.16,1.16,0,0,1,.16-0.08,2,2,0,0,0,.28.09,0.5,0.5,0,0,1,.16,0,3.71,3.71,0,0,1,.87.26c0.11,0.11.19,0.1,0,.19a0.13,0.13,0,0,0,0,.18s0,0,.09.12a0.09,0.09,0,0,1,.1,0s0.07,0.16-.06.17a0.75,0.75,0,0,0-.44.42,1.2,1.2,0,0,0-.27.17s-0.07-.06-0.22.09a0.31,0.31,0,0,1-.24.14,1.41,1.41,0,0,0-.53.25,0.75,0.75,0,0,1-.26.13s0.08,0.13-.28.12a0.56,0.56,0,0,1-.41.25,6.94,6.94,0,0,1-1.51.55l-0.41,0a1.65,1.65,0,0,1-1.12.15,0.53,0.53,0,0,1-.4-0.2,0.45,0.45,0,0,1-.2-0.08,1.19,1.19,0,0,1-.31-0.66,0.32,0.32,0,0,1-.07-0.29s-0.13,0-.09-0.79c0,0,0-.93,0-1.09a3.58,3.58,0,0,1-.57,0c-0.14,0-.17-0.11-0.28-0.11-0.4,0-.55,0-0.75,0,0,0-.34-0.12-0.33.07v0.26a2.2,2.2,0,0,1,.53.3,1.83,1.83,0,0,1,.26.1,3.42,3.42,0,0,0,.33.3,0.87,0.87,0,0,1,.21.21,0.14,0.14,0,0,1,.1,0,0.34,0.34,0,0,1,.16.22,0.55,0.55,0,0,1,0,.37,0.75,0.75,0,0,1-.17.3,0.21,0.21,0,0,1,0,.18,0.23,0.23,0,0,1,0,.2,0.35,0.35,0,0,1-.19.21,0.18,0.18,0,0,0-.2.15s0,0.09,0,.1a0.12,0.12,0,0,1-.06.13,1.15,1.15,0,0,1-.2.32,1.2,1.2,0,0,0-.3.16,0.81,0.81,0,0,0,0,.2,0.81,0.81,0,0,1-.27.27,0.21,0.21,0,0,1-.13.16,0.16,0.16,0,0,0-.15.18,0.82,0.82,0,0,0-.31.36,0.23,0.23,0,0,0-.17.18s0,0.13.24,0.11c0,0,.05.07,0.09,0a0.3,0.3,0,0,1,.22-0.15c0.15,0,.73,0,0.83,0a0.1,0.1,0,0,1,.08-0.1c0.08,0,0,.07.07,0.07h0.13a0.22,0.22,0,0,1,.27.08c0.12,0.15.16,0.07,0.23,0.07a2,2,0,0,1,.37.36,0.35,0.35,0,0,0,.09.31s0.07,0.13-.16.27a1.19,1.19,0,0,1-.24.26,0.53,0.53,0,0,1-.21.19,0.27,0.27,0,0,1-.09.21c-0.08,0-.11,0-0.11.14a0.82,0.82,0,0,1-.2.17s-0.14,0-.13.15a0.09,0.09,0,0,0-.12.07,2.31,2.31,0,0,1-.18.29,0.13,0.13,0,0,0-.11.14,0.48,0.48,0,0,1-.22.19,2,2,0,0,0-.12.18,0.18,0.18,0,0,0-.07.17,0.05,0.05,0,0,0-.07,0c0,0.07-.06.11-0.12,0a0.24,0.24,0,0,0-.13.1,0.37,0.37,0,0,1-.07.22,0.14,0.14,0,0,1-.15,0,0.11,0.11,0,0,0,0,.15,0.1,0.1,0,0,0,.16,0s0.09-.11.15,0,0.09,0.11.15,0l0.21,0s0-.12,0-0.12a1,1,0,0,1,.27.05,1,1,0,0,1,.3-0.06,0.88,0.88,0,0,1,.54,0s0.94,0.2.93,0.55a1.2,1.2,0,0,1-.35.71s-0.12,0-.1.23a1.21,1.21,0,0,1-.31.41,2.16,2.16,0,0,0-.31.32,3,3,0,0,1-.51.51s0,0.12-.07.12a1.94,1.94,0,0,0-.26.16l-0.08.1h-0.13l-0.15.16a0.48,0.48,0,0,1,0,.11l-0.22.13a1.84,1.84,0,0,0-.27.19,1.5,1.5,0,0,0-.28.25,0.25,0.25,0,0,0-.14,0,2.42,2.42,0,0,1-.42.37l-0.07.11-0.22.2s-0.09,0-.12.05a0.17,0.17,0,0,1,0,.12s-0.16,0-.22.11-0.25.33-.34,0.42h-0.17l0,0.12-0.22.14a1.35,1.35,0,0,1-.27.26l-0.33.24a0.42,0.42,0,0,0-.27.25,0.83,0.83,0,0,0,.49,0s0.17-.14.19,0a2.2,2.2,0,0,0,.55,0s-0.05-.1.38-0.12c0,0,.46,0,0.61,0,0,0,0-.06.25,0a0.1,0.1,0,0,1,.07-0.09l0.58,0,0.38-.06s0.31,0,.32-0.09h0.34a0.14,0.14,0,0,0,.15-0.12,1.09,1.09,0,0,0,.79-0.23,1,1,0,0,1,.33,0,0.52,0.52,0,0,1,.3-0.15,0.85,0.85,0,0,1,.32-0.12l0.51-.24a0.77,0.77,0,0,0,.39-0.26,0.32,0.32,0,0,0,.09-0.18,0.25,0.25,0,0,1,.2-0.11,0.1,0.1,0,0,1,0-.1s0.09,0.06.09,0a0.45,0.45,0,0,1,.15-0.27,0.47,0.47,0,0,0,.21-0.05,0.3,0.3,0,0,1,.23-0.12c0.14,0,.17.1,0.41,0.12a1,1,0,0,1,.3,0,0.69,0.69,0,0,0,.11.22,2.68,2.68,0,0,1,.81.73s0.38,0.18,0,.89a1,1,0,0,0-.44.53,1.88,1.88,0,0,1-1,1,0.55,0.55,0,0,1-.49.11,0.47,0.47,0,0,1-.69,0,0.15,0.15,0,0,1,.08-0.25,0.51,0.51,0,0,1,.18-0.38,5.48,5.48,0,0,0,.15-0.62,0.88,0.88,0,0,1,0-.57s0.14-.08,0-0.53c0,0-.08-0.16-0.37.13a0.18,0.18,0,0,0-.17.1,0.43,0.43,0,0,1-.18.2,0.39,0.39,0,0,0-.22,0,0.5,0.5,0,0,1-.21.15l-0.39.19a1.63,1.63,0,0,1-.38.18,0.23,0.23,0,0,0-.24.08,0.37,0.37,0,0,0-.25.09,7.31,7.31,0,0,0-.85.28,1.36,1.36,0,0,0-.31.11,3.76,3.76,0,0,0-.36.11,1,1,0,0,0-.43.09,1.45,1.45,0,0,0-.44.08,0.72,0.72,0,0,1-.56.15,8.86,8.86,0,0,0-1.46.27,4.37,4.37,0,0,0-.86.17,1.13,1.13,0,0,0-.55.26s-0.58.27-.75,0a1,1,0,0,1,.25-1,1.11,1.11,0,0,1,.76-0.8s0-.18.1-0.12a1.11,1.11,0,0,1,.35-0.2l0.35-.37h0.1a0.56,0.56,0,0,1,.14-0.23,0.22,0.22,0,0,0,.17-0.08c0.13-.09,0-0.07.05-0.15s0,0.32.93-.61l0.15-.21,0.17-.11a0.46,0.46,0,0,1,.23-0.25,0.13,0.13,0,0,0,.17-0.12,1,1,0,0,0,.24-0.16,0.61,0.61,0,0,0,.45-0.36s0.18,0.05.16-.25c0,0,1.51-.91,1.42-1.8,0,0,.1-0.15-0.38-0.13,0,0,0,.1-0.39.14,0,0,0,.23-0.44.12a0.66,0.66,0,0,1-.4.12,0.76,0.76,0,0,0-.48.13,1,1,0,0,1-1,.08,0.21,0.21,0,0,0-.15-0.26,1.67,1.67,0,0,1,.05-0.82,0.38,0.38,0,0,0,.17-0.25s0.18,0,.13-0.27a0.38,0.38,0,0,0,.32-0.26s0.12,0.05.22-.28a0.8,0.8,0,0,0,.4-0.55,0.77,0.77,0,0,0,.19-0.41s0.1-.16-0.27,0l-0.17.1-0.21-.11s-0.07.17-.56-0.13a0.87,0.87,0,0,1-.17-1.1s0.29-.12,0-0.52c0,0-.29-0.16-0.06-0.8a2.26,2.26,0,0,0,.06-0.58,2.68,2.68,0,0,0,.15-1.31,0.85,0.85,0,0,1-.4-0.68,0.52,0.52,0,0,0-.21-0.43s-0.07-.31.18-0.32a1.78,1.78,0,0,1,.85-1.22s0.28-1.43.6-2.93c0,0,.58-1.9.65-2.35a7.06,7.06,0,0,0,.31-1.52s-0.06-.46-0.33.2a0.42,0.42,0,0,1-.13.29,0.43,0.43,0,0,0-.14.32s-0.24.16-.12,0.24-0.15,0-.13.07-0.09,0,0,.15a3,3,0,0,1-.2.45,0.73,0.73,0,0,0-.14.14c0,0.11,0,.09,0,0.2a0.93,0.93,0,0,0-.17.73,2.42,2.42,0,0,0-.53.87s-0.18.5-.35,1a6,6,0,0,0-.38.66s-0.22.19-.08,0.24a0.13,0.13,0,0,1-.06.15,1.17,1.17,0,0,0-.07.26,1.1,1.1,0,0,0-.34.61s-0.47.73-.57,0.85a0.66,0.66,0,0,1-.14.22s-0.41.67-.53,0.9a2.31,2.31,0,0,1,0,.33s-0.16-.09-0.15.24c0,0-.13,0-0.1.22,0,0-.13-0.09-0.13.18l-0.22,0a1.84,1.84,0,0,1,0,.36s-0.13-.14-0.2.24a0.3,0.3,0,0,0-.2.2,0.43,0.43,0,0,0-.13.36s-0.23-.12-0.32.47h-0.15a0.51,0.51,0,0,1,0,.3c-0.07.08-.22,0-0.16,0.78,0,0,0,.16.07,0.29a4.4,4.4,0,0,1,0,.65,0.27,0.27,0,0,1,.12.28,4.69,4.69,0,0,1,.2.61,0.47,0.47,0,0,1,.18.39s0,0.55.31,0.54a0.57,0.57,0,0,1,.07.3s-0.2.06,0,.4a0.91,0.91,0,0,1,.06.7s-0.2.13-.59-0.33a0.23,0.23,0,0,1-.17-0.07,0.54,0.54,0,0,0-.08-0.25,0.17,0.17,0,0,1-.18-0.14,1.11,1.11,0,0,1-.27-0.44s0.05,0-.08-0.15a3.44,3.44,0,0,1-.52-1.5,4.15,4.15,0,0,1-.07-0.48s-0.11-.32-0.35.07a3.79,3.79,0,0,1-.33.36,2.77,2.77,0,0,1-.33.52l-0.49.44s0.09,0.12,0,.16a0.38,0.38,0,0,0-.2,0,2.74,2.74,0,0,0-.36.41s-0.29,0-.3-0.54a1.11,1.11,0,0,1,.26-0.82v-0.17l0.11,0s0.07-.13.35-0.53a1,1,0,0,1,.25-0.52s0.08,0,.09-0.29a0.9,0.9,0,0,0,.2-0.41,0.18,0.18,0,0,1,.19-0.25,0.39,0.39,0,0,0,.07-0.26,0.17,0.17,0,0,0,.13-0.13,0.21,0.21,0,0,1,.08-0.15s0-.36,0-0.47a0.55,0.55,0,0,0,.13,0,1.45,1.45,0,0,0,.16-0.66h0.11a1.07,1.07,0,0,0,0-.42,0.2,0.2,0,0,1,.07-0.15,0.21,0.21,0,0,0,0-.3s-0.15-.1.07-0.18a1.57,1.57,0,0,0,0-.53,1.85,1.85,0,0,0,0-.52s0.09,0,.09,0,0.36-1.31.36-1.5c0,0,.19-0.66-0.24-0.49h0a5.7,5.7,0,0,0-.82.38,0.28,0.28,0,0,0-.21,0,0.51,0.51,0,0,0-.23.15l-0.26.05a0.85,0.85,0,0,1-.3.21,2.28,2.28,0,0,0-.77.49,0.67,0.67,0,0,1-.77,0,0.14,0.14,0,0,0-.12-0.12,0.09,0.09,0,0,1-.08-0.13A1,1,0,0,1,186.22,383.43Zm0.31-7.17a1.18,1.18,0,0,1,0,.64,0.54,0.54,0,0,0,0,.22,0.25,0.25,0,0,1,0,.19s0,0.08.12,0.1a0.52,0.52,0,0,0,0,.19,0.28,0.28,0,0,1,.13.16,0.66,0.66,0,0,0,.32.21s0.16,0,.17.09a0.69,0.69,0,0,1,.19,0l0.14,0.15a0.09,0.09,0,0,0,0-.07,0.34,0.34,0,0,1,.26,0s0,0.08,0,.08h0.48a0.36,0.36,0,0,1,.2,0,0.5,0.5,0,0,0,.18.1,0.25,0.25,0,0,0,.14,0s0.06,0,.13,0a0.35,0.35,0,0,0,.16-0.16,1,1,0,0,1,.2,0,0.38,0.38,0,0,1,.11-0.1l0.12,0a1.59,1.59,0,0,1,.25-0.09,8.65,8.65,0,0,0,1.1-.38,1.05,1.05,0,0,0,.33-0.06,0.16,0.16,0,0,0,.09-0.11,0.19,0.19,0,0,1,.16,0s0,0.06,0,.06a0.33,0.33,0,0,0,.11-0.14,0.86,0.86,0,0,1,.21-0.15,0.75,0.75,0,0,0,.1.07s0-.1,0-0.11a0.14,0.14,0,0,1,.08-0.09l0.12-.09a0.2,0.2,0,0,0,.09-0.09,0.78,0.78,0,0,1,.3-0.06,1.4,1.4,0,0,1,.39-0.22,0.1,0.1,0,0,0,.11-0.11,1.06,1.06,0,0,0,.29,0,0.3,0.3,0,0,1,.11-0.11,1.49,1.49,0,0,1,.23-0.2,0.15,0.15,0,0,0,.12,0,0.46,0.46,0,0,1,.14-0.15,2,2,0,0,0,.29-0.21,0.22,0.22,0,0,1,.09,0s0,0,.1,0a0.4,0.4,0,0,1,.14,0,0.61,0.61,0,0,0,.25-0.27,0.28,0.28,0,0,1,0-.09,0.76,0.76,0,0,0,.23,0,0.34,0.34,0,0,0,0-.15,1.06,1.06,0,0,1,.3,0,0.22,0.22,0,0,0,.09-0.13s0,0,.1,0a0.74,0.74,0,0,0,.27-0.34,0.28,0.28,0,0,1,.28,0,0.28,0.28,0,0,0,.23-0.09,0.33,0.33,0,0,0,0-.08s-0.11,0-.1,0a0.15,0.15,0,0,1,.1-0.14c0.08,0,.11-0.06.13,0a0.35,0.35,0,0,0,0,.11s0.32-.27.44-0.35a4.76,4.76,0,0,1,.46-0.32,0.11,0.11,0,0,0,.11,0,0.72,0.72,0,0,0,.27-0.18,1.75,1.75,0,0,1,.27,0h0.38l0.38-.07a0.46,0.46,0,0,1,.23,0s0,0.06.07,0.06,0.2-.17.26-0.17,0,0.06.09,0.06,0-.1.05-0.15,0.06,0,.09,0a0.3,0.3,0,0,1,.19,0,0.7,0.7,0,0,1,.33-0.29,0.18,0.18,0,0,0,.1,0,4.25,4.25,0,0,1,.64-0.41,1.86,1.86,0,0,1,.63-0.19,0.42,0.42,0,0,0,.29-0.3,0.35,0.35,0,0,1,.11-0.19,0.3,0.3,0,0,0,.1-0.19,0.25,0.25,0,0,1,0-.17,0.55,0.55,0,0,0-.23-0.28,0.18,0.18,0,0,0-.08-0.13,0.29,0.29,0,0,1-.2-0.06c-0.1-.11-0.07-0.2-0.19-0.2a0.83,0.83,0,0,0-.46.08l-0.27,0a1.09,1.09,0,0,0-.17.09s-0.42.24-.54,0.33a1.89,1.89,0,0,0-.88.51,0.51,0.51,0,0,0-.38.17,2.93,2.93,0,0,0-.63.45,0.48,0.48,0,0,0-.39.19,6.78,6.78,0,0,0-.73.4,0.2,0.2,0,0,0-.22.1,3,3,0,0,0-.27.23,0.45,0.45,0,0,0-.38.24,1,1,0,0,1-.24.14,0.37,0.37,0,0,0-.34.11s-0.72.4-.89,0.53a0.27,0.27,0,0,1-.18,0s0,0.08,0,.08a0.39,0.39,0,0,0-.18,0s-0.11.15-.13,0.16h-0.1c-0.06,0,.06.06-0.07,0.12a2.67,2.67,0,0,0-.45.23s0,0.05-.17,0a0.89,0.89,0,0,1-.15.11,0.37,0.37,0,0,0-.16,0,0.3,0.3,0,0,1-.08.13,0.39,0.39,0,0,1-.18.11,0.92,0.92,0,0,0-.56.23l-0.2,0a0.79,0.79,0,0,0-.16.15,0.34,0.34,0,0,1-.14,0s0.06,0-.1,0l-0.25,0a5.39,5.39,0,0,1-.6.19,0.88,0.88,0,0,1-.18,0c-0.06,0,0,.08,0,0.08a0.26,0.26,0,0,0-.13,0,0.11,0.11,0,0,0-.06.11,3.63,3.63,0,0,1-.82.33,0.43,0.43,0,0,0-.27.07l-0.3,0a1.2,1.2,0,0,0-.24.06,0.31,0.31,0,0,1-.12,0,0.25,0.25,0,0,1-.13.11,1,1,0,0,1-.46,0,2.67,2.67,0,0,0-.57,0,1.88,1.88,0,0,1-.43-0.09,2,2,0,0,1-.27-0.13A1.76,1.76,0,0,1,186.53,376.26Zm16.16-11.81a0.46,0.46,0,0,1,0,.21,0.41,0.41,0,0,0-.15.33s0,0.1,0,.12a1.85,1.85,0,0,1-.15.55,0.25,0.25,0,0,0-.06.16,2.4,2.4,0,0,0-.17.38,7,7,0,0,1-.56.6l-0.67.52a0.75,0.75,0,0,0-.11.1,1.89,1.89,0,0,0-.43.3,0.49,0.49,0,0,0-.29.18s-0.18,0-.11.17,0.15,0.07,0,.18a1.27,1.27,0,0,0-.2.1s-0.14,0-.14,0a0.09,0.09,0,0,1,0-.1s0-.06,0-0.05a0.24,0.24,0,0,0-.07.11,0.18,0.18,0,0,1-.18.06s-0.22.16-.16,0.2,0,0.09,0,.09a0.13,0.13,0,0,1-.09,0s0,0-.12,0a0.71,0.71,0,0,0-.29.11,0.23,0.23,0,0,1-.18.09,0.12,0.12,0,0,0-.08.14,0.2,0.2,0,0,1-.07.17,0.13,0.13,0,0,1-.12.07,0.43,0.43,0,0,1-.21.18s-0.15,0,0,.11a0.39,0.39,0,0,0,.1.09l0.31-.14,0.41-.19a0.52,0.52,0,0,0,.34-0.15,0.36,0.36,0,0,0,.23,0c0-.06,0-0.1.05-0.1l0.16,0c0.08,0,1.47-.78,1.55-0.85s0.51-.31.67-0.45a2.91,2.91,0,0,0,.84-1.18,0.45,0.45,0,0,0,0-.13s0.05,0,.05,0V366.2a0.54,0.54,0,0,0,.13-0.14s0-.31,0-0.34a0.68,0.68,0,0,0,.06-0.14,1.84,1.84,0,0,0,0-.64s-0.08-.23-0.12-0.33S202.79,364.43,202.69,364.46Zm22.74,22.74s0.09,0.64.09,0.77a1.8,1.8,0,0,0,0,.63,0.52,0.52,0,0,1,.1.22s-0.1,0-.09.27a3.4,3.4,0,0,0,0,.46,0.26,0.26,0,0,1,.08.15,0.47,0.47,0,0,0-.1.32,8.11,8.11,0,0,1,0,.83,0.31,0.31,0,0,0-.05.22,3.12,3.12,0,0,0,0,.36,1.15,1.15,0,0,1,0,.6,1.34,1.34,0,0,1,.09.25,4.15,4.15,0,0,1,.08.42,1,1,0,0,1,.12.09,1.05,1.05,0,0,0,.29.53,4.9,4.9,0,0,1,.51,0,1.23,1.23,0,0,1,.62.61,3.12,3.12,0,0,1,.25.88,4.46,4.46,0,0,1-.71.6,9,9,0,0,1-1.46.84,0.5,0.5,0,0,0-.42.19,1.1,1.1,0,0,0-.41.23,7.54,7.54,0,0,0-1.45.58s0,0.11.06,0a0.44,0.44,0,0,1,.31,0,0.48,0.48,0,0,1,.17-0.09,0.65,0.65,0,0,0,.21-0.06,1.84,1.84,0,0,0,.7-0.18l0.36-.08s0,0.12.05,0.08l0.27-.12a1.24,1.24,0,0,0,.44-0.06,0.86,0.86,0,0,1,.4-0.08l0.35,0a3,3,0,0,1,.31-0.07,1.11,1.11,0,0,0,.16-0.13,1.21,1.21,0,0,0,.2,0,1.55,1.55,0,0,1,.38-0.27l0.25,0a0.68,0.68,0,0,1,.23-0.11,0.82,0.82,0,0,1,.26.13c0.06,0,.24,0,0.25.15a1,1,0,0,1,.3.07c0.09,0.05.06,0,.1-0.06l0.17-.14c0.08-.07.17-0.34,0.26-0.42a0.27,0.27,0,0,0,0-.28,1.45,1.45,0,0,0-.52-0.82,0.76,0.76,0,0,0-.44-0.36,3.76,3.76,0,0,1-.72-0.46,5.5,5.5,0,0,0-.15-0.66,0.62,0.62,0,0,1,0-.4,2.13,2.13,0,0,0,.11-0.86,1.18,1.18,0,0,0-.65-0.86,2.33,2.33,0,0,0-.39-0.33,5.44,5.44,0,0,1-.52-0.38,1.24,1.24,0,0,1-.22-0.58,0.2,0.2,0,0,1-.06-0.18,0.57,0.57,0,0,0,.08-0.27s-0.05-.41-0.05-0.49a1.09,1.09,0,0,1,0-.16,1,1,0,0,0,0-.42s0.05-.31.05-0.42a0.24,0.24,0,0,0-.19-0.25,0.36,0.36,0,0,1,0-.19c0-.07.09,0,0.06-0.13S225.43,387.11,225.43,387.19Zm-34.37-19.87a0.63,0.63,0,0,0,.16.32c0.14,0.15.23,0.81,0.42,1.11a1,1,0,0,0,.25.42,0.38,0.38,0,0,1,.26.2,0.34,0.34,0,0,1,.27.14,0.18,0.18,0,0,1,.19.07,0.86,0.86,0,0,0,.27,0c0.07,0,.27-0.06.37-0.11a0.32,0.32,0,0,0,.21-0.1,0.28,0.28,0,0,1,.17-0.12,1.6,1.6,0,0,0,.22-0.24,0.11,0.11,0,0,1,.1-0.07,0.91,0.91,0,0,0,.2-0.23,0.28,0.28,0,0,1,0,.17,1.1,1.1,0,0,1-.26.24,0.38,0.38,0,0,1-.13.15,0.19,0.19,0,0,1,0,.17,0.43,0.43,0,0,1-.07.28,2.32,2.32,0,0,1-.27.38,1.06,1.06,0,0,1-.09.17,1.39,1.39,0,0,0-.19.13,0.84,0.84,0,0,1-.44.17,0.75,0.75,0,0,1-.45-0.14,1.11,1.11,0,0,1-.76-0.36,0.21,0.21,0,0,1-.13-0.09,1,1,0,0,1-.11-0.2c0-.07-0.27-0.46-0.27-0.55a0.46,0.46,0,0,1-.07-0.21,0.08,0.08,0,0,0,.06-0.13,0.43,0.43,0,0,1-.07-0.25,1.28,1.28,0,0,1,0-.28S191,367.53,191.06,367.32Z" transform="translate(-186.1 -362.73)"/><path class="cls-2" d="M232.3,368.78v-4.06h1.8a2.38,2.38,0,0,1,.82.11,0.9,0.9,0,0,1,.45.39,1.15,1.15,0,0,1,.17.61,1,1,0,0,1-.28.73,1.42,1.42,0,0,1-.86.38,1.38,1.38,0,0,1,.32.2,2.8,2.8,0,0,1,.45.54l0.71,1.1H235.2l-0.54-.84q-0.24-.37-0.39-0.56a1.21,1.21,0,0,0-.27-0.27,0.8,0.8,0,0,0-.25-0.11l-0.3,0h-0.62v1.8H232.3Zm0.54-2.27H234a1.73,1.73,0,0,0,.58-0.08,0.61,0.61,0,0,0,.32-0.24,0.66,0.66,0,0,0,.11-0.36,0.6,0.6,0,0,0-.21-0.47,1,1,0,0,0-.66-0.19h-1.28v1.34Z" transform="translate(-186.1 -362.73)"/><path class="cls-2" d="M229.88,366.76a4,4,0,0,1,4-4h0a4,4,0,1,0,0,8.05h0A4,4,0,0,1,229.88,366.76Z" transform="translate(-186.1 -362.73)"/><path class="cls-2" d="M233.91,362.73h0a4,4,0,0,1,0,8h0A4,4,0,0,0,233.91,362.73Z" transform="translate(-186.1 -362.73)"/></svg>